G04 Layer_Physical_Order=2*
G04 Layer_Color=16711680*
%FSLAX44Y44*%
%MOMM*%
G71*
G01*
G75*
%ADD11R,1.5000X1.5000*%
%ADD12R,1.2500X1.5000*%
%ADD13R,1.5000X1.5000*%
%ADD16R,1.5000X1.2500*%
%ADD23R,1.1000X1.4000*%
%ADD41C,0.6000*%
%ADD42C,0.2000*%
%ADD43C,0.3000*%
%ADD44C,0.4000*%
%ADD45C,0.3500*%
%ADD46C,0.8000*%
%ADD49C,1.2000*%
%ADD50C,1.5000*%
%ADD51O,4.6000X2.3000*%
%ADD52C,1.5080*%
%ADD53R,1.5080X1.5080*%
%ADD54O,2.0000X1.0000*%
%ADD55O,2.0000X4.0000*%
%ADD56O,1.8000X3.6000*%
%ADD57O,3.6000X1.8000*%
%ADD58C,1.5750*%
%ADD59C,0.3000*%
%ADD60R,2.4000X11.0000*%
%ADD61O,6.0000X3.0000*%
%ADD62C,1.6500*%
%ADD63R,1.6500X1.6500*%
%ADD64C,1.4080*%
%ADD65R,1.4080X1.4080*%
%ADD66O,1.6000X3.2000*%
%ADD67C,1.7000*%
%ADD68C,1.0000*%
%ADD69C,0.4000*%
%ADD70C,0.7000*%
%ADD71C,0.6000*%
%ADD72C,0.5000*%
%ADD73C,1.4000*%
%ADD74C,1.2000*%
%ADD75C,4.0000*%
%ADD76R,3.3020X2.4130*%
G04:AMPARAMS|DCode=77|XSize=1.97mm|YSize=0.6mm|CornerRadius=0.075mm|HoleSize=0mm|Usage=FLASHONLY|Rotation=270.000|XOffset=0mm|YOffset=0mm|HoleType=Round|Shape=RoundedRectangle|*
%AMROUNDEDRECTD77*
21,1,1.9700,0.4500,0,0,270.0*
21,1,1.8200,0.6000,0,0,270.0*
1,1,0.1500,-0.2250,-0.9100*
1,1,0.1500,-0.2250,0.9100*
1,1,0.1500,0.2250,0.9100*
1,1,0.1500,0.2250,-0.9100*
%
%ADD77ROUNDEDRECTD77*%
%ADD78R,1.1500X0.7000*%
%ADD79R,1.1500X0.8000*%
%ADD80R,1.1500X0.9000*%
G04:AMPARAMS|DCode=81|XSize=1.97mm|YSize=0.57mm|CornerRadius=0.0712mm|HoleSize=0mm|Usage=FLASHONLY|Rotation=180.000|XOffset=0mm|YOffset=0mm|HoleType=Round|Shape=RoundedRectangle|*
%AMROUNDEDRECTD81*
21,1,1.9700,0.4275,0,0,180.0*
21,1,1.8275,0.5700,0,0,180.0*
1,1,0.1425,-0.9137,0.2137*
1,1,0.1425,0.9137,0.2137*
1,1,0.1425,0.9137,-0.2137*
1,1,0.1425,-0.9137,-0.2137*
%
%ADD81ROUNDEDRECTD81*%
%ADD82R,5.0000X8.0000*%
%ADD83C,0.7000*%
G36*
X1661000Y442000D02*
X261000Y442000D01*
X261000Y594460D01*
X286730D01*
Y637000D01*
Y679540D01*
X261000D01*
X261000Y1193000D01*
X502054Y1193000D01*
X502335Y1192709D01*
X502891Y1191730D01*
X502760Y1191075D01*
Y1128075D01*
X502957Y1127084D01*
X503519Y1126244D01*
X504359Y1125682D01*
X505350Y1125485D01*
X683616D01*
X684102Y1124312D01*
X668363Y1108573D01*
X512692D01*
X512512Y1108693D01*
X510350Y1109124D01*
X508188Y1108693D01*
X506356Y1107469D01*
X505131Y1105637D01*
X504701Y1103475D01*
X505131Y1101313D01*
X506356Y1099481D01*
X508188Y1098256D01*
X510350Y1097827D01*
X512512Y1098256D01*
X512692Y1098377D01*
X670475D01*
X672426Y1098765D01*
X674080Y1099870D01*
X714112Y1139902D01*
X957888D01*
X970902Y1126888D01*
Y956098D01*
X919342D01*
X919162Y956219D01*
X917000Y956648D01*
X915703Y956391D01*
X914623Y957471D01*
X914629Y957500D01*
X914277Y959271D01*
X913273Y960773D01*
X911771Y961777D01*
X911270Y961876D01*
Y957500D01*
Y952136D01*
X911526Y951880D01*
X911351Y951000D01*
X911781Y948838D01*
X913006Y947006D01*
X914838Y945781D01*
X917000Y945351D01*
X919162Y945781D01*
X919342Y945902D01*
X982888D01*
X1072395Y856395D01*
X1074049Y855290D01*
X1076000Y854902D01*
X1312009D01*
X1312366Y854366D01*
X1314034Y853252D01*
X1316000Y852861D01*
X1317966Y853252D01*
X1319634Y854366D01*
X1320748Y856033D01*
X1321139Y858000D01*
X1320919Y859102D01*
X1321098Y860000D01*
X1320710Y861951D01*
X1320367Y862464D01*
X1320748Y863034D01*
X1321139Y865000D01*
X1320748Y866966D01*
X1319634Y868634D01*
X1317966Y869748D01*
X1316000Y870139D01*
X1314034Y869748D01*
X1312366Y868634D01*
X1311252Y866966D01*
X1310881Y865098D01*
X1078112D01*
X988605Y954605D01*
X986951Y955710D01*
X985000Y956098D01*
X981098D01*
Y1068549D01*
X982319Y1068781D01*
X983175Y1066713D01*
X984538Y1064938D01*
X986313Y1063575D01*
X988051Y1062856D01*
Y1000400D01*
X988245Y999425D01*
X988798Y998598D01*
X1007541Y979854D01*
X1007371Y979000D01*
X1007723Y977229D01*
X1008727Y975727D01*
X1010229Y974723D01*
X1012000Y974371D01*
X1013771Y974723D01*
X1015273Y975727D01*
X1016277Y977229D01*
X1016629Y979000D01*
X1016277Y980771D01*
X1015273Y982273D01*
X1013771Y983277D01*
X1012000Y983629D01*
X1011146Y983459D01*
X993149Y1001456D01*
Y1062856D01*
X994887Y1063575D01*
X996662Y1064938D01*
X998025Y1066713D01*
X998881Y1068781D01*
X999173Y1071000D01*
X998881Y1073219D01*
X998025Y1075287D01*
X996662Y1077062D01*
X994887Y1078425D01*
X992819Y1079281D01*
X990600Y1079573D01*
X988381Y1079281D01*
X986313Y1078425D01*
X984538Y1077062D01*
X983175Y1075287D01*
X982319Y1073219D01*
X981098Y1073451D01*
Y1129000D01*
X980710Y1130951D01*
X979605Y1132605D01*
X963605Y1148605D01*
X961951Y1149710D01*
X960000Y1150098D01*
X712000D01*
X710049Y1149710D01*
X708395Y1148605D01*
X689113Y1129323D01*
X687940Y1129809D01*
Y1191075D01*
X687810Y1191730D01*
X688365Y1192709D01*
X688646Y1193000D01*
X1661000Y1193000D01*
X1661000Y442000D01*
D02*
G37*
%LPC*%
G36*
X931000Y822500D02*
X916500D01*
Y805500D01*
X931000D01*
Y805823D01*
X932173Y806309D01*
X950000Y788482D01*
Y778500D01*
X964500D01*
Y782922D01*
X998000D01*
X998000Y782922D01*
X999561Y783232D01*
X1000884Y784116D01*
X1007339Y790572D01*
X1024250D01*
X1025229Y790767D01*
X1033388D01*
X1034056Y790899D01*
X1034622Y791278D01*
X1035001Y791844D01*
X1035134Y792513D01*
Y796787D01*
X1035001Y797456D01*
X1034622Y798022D01*
X1034056Y798401D01*
X1033388Y798533D01*
X1025229D01*
X1024250Y798728D01*
X1005650D01*
X1004089Y798418D01*
X1002766Y797534D01*
X1002766Y797534D01*
X996311Y791078D01*
X964500D01*
Y795500D01*
X954518D01*
X933134Y816884D01*
X931811Y817768D01*
X931000Y817929D01*
Y822500D01*
D02*
G37*
G36*
X1072480Y787404D02*
X1064613D01*
X1063343Y787151D01*
X1062268Y786432D01*
X1061549Y785357D01*
X1061296Y784088D01*
Y783220D01*
X1072480D01*
Y787404D01*
D02*
G37*
G36*
X1082887D02*
X1075020D01*
Y783220D01*
X1086204D01*
Y784088D01*
X1085951Y785357D01*
X1085232Y786432D01*
X1084157Y787151D01*
X1082887Y787404D01*
D02*
G37*
G36*
X1642050Y788405D02*
X1638320D01*
Y782070D01*
X1649488D01*
X1649396Y782768D01*
X1648636Y784603D01*
X1647428Y786178D01*
X1645853Y787386D01*
X1644018Y788146D01*
X1642050Y788405D01*
D02*
G37*
G36*
X1607290Y795230D02*
X1599000D01*
X1590710D01*
Y789460D01*
X1592333D01*
X1592416Y788190D01*
X1592082Y788146D01*
X1590247Y787386D01*
X1588672Y786178D01*
X1587464Y784603D01*
X1586704Y782768D01*
X1586612Y782070D01*
X1599050D01*
X1611488D01*
X1611396Y782768D01*
X1610636Y784603D01*
X1609428Y786178D01*
X1607853Y787386D01*
X1606018Y788146D01*
X1605684Y788190D01*
X1605767Y789460D01*
X1607290D01*
Y795230D01*
D02*
G37*
G36*
X1635780Y788405D02*
X1632050D01*
X1630082Y788146D01*
X1628248Y787386D01*
X1626672Y786178D01*
X1625464Y784603D01*
X1624704Y782768D01*
X1624612Y782070D01*
X1635780D01*
Y788405D01*
D02*
G37*
G36*
X1490050Y815730D02*
X1472270D01*
Y802395D01*
X1472282D01*
X1473316Y801350D01*
Y796201D01*
X1473006Y795994D01*
X1471781Y794162D01*
X1471351Y792000D01*
X1471781Y789838D01*
X1473006Y788006D01*
X1473316Y787799D01*
Y783150D01*
X1473452Y782467D01*
X1473838Y781888D01*
X1474417Y781501D01*
X1475100Y781366D01*
X1479600D01*
X1480283Y781501D01*
X1480862Y781888D01*
X1481248Y782467D01*
X1481384Y783150D01*
Y788590D01*
X1482219Y789838D01*
X1482353Y790512D01*
X1483647D01*
X1483781Y789838D01*
X1485006Y788006D01*
X1486016Y787331D01*
Y783150D01*
X1486151Y782467D01*
X1486538Y781888D01*
X1487117Y781501D01*
X1487800Y781366D01*
X1492300D01*
X1492983Y781501D01*
X1493562Y781888D01*
X1493949Y782467D01*
X1494084Y783150D01*
Y789637D01*
X1494219Y789838D01*
X1494648Y792000D01*
X1494219Y794162D01*
X1494084Y794363D01*
Y801350D01*
X1493949Y802033D01*
X1493562Y802612D01*
X1492983Y802999D01*
X1492300Y803134D01*
X1490050D01*
Y815730D01*
D02*
G37*
G36*
X372110Y810580D02*
X364934D01*
X365060Y809621D01*
X365920Y807543D01*
X367289Y805759D01*
X369073Y804390D01*
X371151Y803530D01*
X372110Y803403D01*
Y810580D01*
D02*
G37*
G36*
X381827D02*
X374650D01*
Y803403D01*
X375609Y803530D01*
X377687Y804390D01*
X379471Y805759D01*
X380840Y807543D01*
X381700Y809621D01*
X381827Y810580D01*
D02*
G37*
G36*
X691000Y819119D02*
X689424Y818806D01*
X688087Y817913D01*
X687504Y817039D01*
X674000D01*
X673220Y816884D01*
X672558Y816442D01*
X672558Y816442D01*
X662558Y806442D01*
X662116Y805780D01*
X661961Y805000D01*
Y765000D01*
X662116Y764220D01*
X662558Y763558D01*
X671558Y754558D01*
X672220Y754116D01*
X673000Y753961D01*
X681504D01*
X682087Y753087D01*
X683424Y752194D01*
X685000Y751881D01*
X686576Y752194D01*
X687913Y753087D01*
X688806Y754424D01*
X689119Y756000D01*
X688806Y757576D01*
X687913Y758913D01*
X686576Y759806D01*
X685000Y760119D01*
X683424Y759806D01*
X682087Y758913D01*
X681504Y758039D01*
X678624D01*
X678314Y758496D01*
X678061Y759309D01*
X678806Y760424D01*
X679119Y762000D01*
X678806Y763576D01*
X677913Y764913D01*
X676576Y765806D01*
X675000Y766119D01*
X673970Y765914D01*
X671039Y768845D01*
Y801826D01*
X675174Y805961D01*
X687504D01*
X688087Y805087D01*
X689424Y804194D01*
X691000Y803881D01*
X692576Y804194D01*
X693913Y805087D01*
X694806Y806424D01*
X695119Y808000D01*
X694806Y809576D01*
X694076Y810669D01*
X693980Y811500D01*
X694076Y812331D01*
X694806Y813424D01*
X695119Y815000D01*
X694806Y816576D01*
X693913Y817913D01*
X692576Y818806D01*
X691000Y819119D01*
D02*
G37*
G36*
X957000Y851000D02*
X944000D01*
Y835000D01*
X952732D01*
X954172Y833561D01*
Y822500D01*
X951000D01*
Y805500D01*
X965500D01*
Y815922D01*
X985011D01*
X996466Y804466D01*
X996466Y804466D01*
X997789Y803582D01*
X999350Y803272D01*
X999350Y803272D01*
X1024250D01*
X1025229Y803466D01*
X1033388D01*
X1034056Y803599D01*
X1034622Y803978D01*
X1035001Y804544D01*
X1035134Y805212D01*
Y809488D01*
X1035001Y810156D01*
X1034622Y810722D01*
X1034056Y811101D01*
X1033388Y811234D01*
X1025229D01*
X1024250Y811428D01*
X1001039D01*
X989584Y822884D01*
X988261Y823768D01*
X986700Y824078D01*
X986700Y824078D01*
X962328D01*
Y835250D01*
X962018Y836811D01*
X961134Y838134D01*
X961134Y838134D01*
X957000Y842268D01*
Y851000D01*
D02*
G37*
G36*
X372110Y794896D02*
X371151Y794770D01*
X369073Y793910D01*
X367289Y792541D01*
X365920Y790757D01*
X365060Y788679D01*
X364934Y787720D01*
X372110D01*
Y794896D01*
D02*
G37*
G36*
X374650D02*
Y787720D01*
X381827D01*
X381700Y788679D01*
X380840Y790757D01*
X379471Y792541D01*
X377687Y793910D01*
X375609Y794770D01*
X374650Y794896D01*
D02*
G37*
G36*
X1172500Y825500D02*
X1158000D01*
Y815518D01*
X1139270Y796788D01*
X1138000Y797314D01*
Y800500D01*
X1123500D01*
Y796078D01*
X1112689D01*
X1098534Y810234D01*
X1097211Y811118D01*
X1095650Y811428D01*
X1095650Y811428D01*
X1073750D01*
X1072770Y811234D01*
X1064613D01*
X1063944Y811101D01*
X1063378Y810722D01*
X1062999Y810156D01*
X1062867Y809488D01*
Y805212D01*
X1062999Y804544D01*
X1063378Y803978D01*
X1063944Y803599D01*
X1064613Y803466D01*
X1072770D01*
X1073750Y803272D01*
X1093961D01*
X1108116Y789116D01*
X1109439Y788232D01*
X1111000Y787922D01*
X1123500D01*
Y783500D01*
X1138000D01*
Y787922D01*
X1140250D01*
X1140250Y787922D01*
X1141811Y788232D01*
X1143134Y789116D01*
X1162518Y808500D01*
X1172500D01*
Y825500D01*
D02*
G37*
G36*
X381827Y785180D02*
X374650D01*
Y778003D01*
X375609Y778130D01*
X377687Y778990D01*
X379471Y780359D01*
X380840Y782143D01*
X381700Y784221D01*
X381827Y785180D01*
D02*
G37*
G36*
X290838Y774230D02*
X281770D01*
Y765162D01*
X283219Y765353D01*
X285752Y766403D01*
X287928Y768072D01*
X289597Y770248D01*
X290647Y772781D01*
X290838Y774230D01*
D02*
G37*
G36*
X325500Y784452D02*
X323183Y784146D01*
X321024Y783252D01*
X319170Y781830D01*
X317748Y779976D01*
X316854Y777817D01*
X316548Y775500D01*
X316854Y773183D01*
X317748Y771024D01*
X319170Y769170D01*
X321024Y767748D01*
X323183Y766853D01*
X325500Y766548D01*
X327817Y766853D01*
X329976Y767748D01*
X331830Y769170D01*
X333252Y771024D01*
X334147Y773183D01*
X334452Y775500D01*
X334147Y777817D01*
X333252Y779976D01*
X331830Y781830D01*
X329976Y783252D01*
X327817Y784146D01*
X325500Y784452D01*
D02*
G37*
G36*
X1597780Y779530D02*
X1586612D01*
X1586704Y778832D01*
X1587464Y776998D01*
X1588672Y775422D01*
X1590247Y774214D01*
X1592082Y773454D01*
X1594050Y773195D01*
X1597780D01*
Y779530D01*
D02*
G37*
G36*
X279230Y774230D02*
X270162D01*
X270353Y772781D01*
X271402Y770248D01*
X273072Y768072D01*
X275248Y766403D01*
X277781Y765353D01*
X279230Y765162D01*
Y774230D01*
D02*
G37*
G36*
X1528270Y767959D02*
Y759270D01*
X1536959D01*
X1536782Y760621D01*
X1535770Y763063D01*
X1534161Y765161D01*
X1532063Y766770D01*
X1529621Y767782D01*
X1528270Y767959D01*
D02*
G37*
G36*
X372110Y769497D02*
X371151Y769370D01*
X369073Y768510D01*
X367289Y767141D01*
X365920Y765357D01*
X365060Y763279D01*
X364934Y762320D01*
X372110D01*
Y769497D01*
D02*
G37*
G36*
X374650D02*
Y762320D01*
X381827D01*
X381700Y763279D01*
X380840Y765357D01*
X379471Y767141D01*
X377687Y768510D01*
X375609Y769370D01*
X374650Y769497D01*
D02*
G37*
G36*
X1611488Y779530D02*
X1600320D01*
Y773195D01*
X1604050D01*
X1606018Y773454D01*
X1607853Y774214D01*
X1609428Y775422D01*
X1610636Y776998D01*
X1611396Y778832D01*
X1611488Y779530D01*
D02*
G37*
G36*
X279230Y785838D02*
X277781Y785647D01*
X275248Y784597D01*
X273072Y782928D01*
X271402Y780752D01*
X270353Y778219D01*
X270162Y776770D01*
X279230D01*
Y785838D01*
D02*
G37*
G36*
X281770D02*
Y776770D01*
X290838D01*
X290647Y778219D01*
X289597Y780752D01*
X287928Y782928D01*
X285752Y784597D01*
X283219Y785647D01*
X281770Y785838D01*
D02*
G37*
G36*
X372110Y785180D02*
X364934D01*
X365060Y784221D01*
X365920Y782143D01*
X367289Y780359D01*
X369073Y778990D01*
X371151Y778130D01*
X372110Y778003D01*
Y785180D01*
D02*
G37*
G36*
X1086204Y780680D02*
X1075020D01*
Y776496D01*
X1082887D01*
X1084157Y776749D01*
X1085232Y777468D01*
X1085951Y778543D01*
X1086204Y779812D01*
Y780680D01*
D02*
G37*
G36*
X1635780Y779530D02*
X1624612D01*
X1624704Y778832D01*
X1625464Y776998D01*
X1626672Y775422D01*
X1628248Y774214D01*
X1630082Y773454D01*
X1632050Y773195D01*
X1635780D01*
Y779530D01*
D02*
G37*
G36*
X1649488D02*
X1638320D01*
Y773195D01*
X1642050D01*
X1644018Y773454D01*
X1645853Y774214D01*
X1647428Y775422D01*
X1648636Y776998D01*
X1649396Y778832D01*
X1649488Y779530D01*
D02*
G37*
G36*
X1072480Y780680D02*
X1061296D01*
Y779812D01*
X1061549Y778543D01*
X1062268Y777468D01*
X1063343Y776749D01*
X1064613Y776496D01*
X1072480D01*
Y780680D01*
D02*
G37*
G36*
X1544500Y825000D02*
X1527500D01*
Y810500D01*
X1544500D01*
Y825000D01*
D02*
G37*
G36*
X1635780Y865930D02*
X1624612D01*
X1624704Y865232D01*
X1625464Y863398D01*
X1626672Y861822D01*
X1628248Y860614D01*
X1630082Y859854D01*
X1632050Y859595D01*
X1635780D01*
Y865930D01*
D02*
G37*
G36*
X1649488D02*
X1638320D01*
Y859595D01*
X1642050D01*
X1644018Y859854D01*
X1645853Y860614D01*
X1647428Y861822D01*
X1648636Y863398D01*
X1649396Y865232D01*
X1649488Y865930D01*
D02*
G37*
G36*
X1019980Y870730D02*
X1012460D01*
Y861960D01*
X1019980D01*
Y870730D01*
D02*
G37*
G36*
X1339000Y870139D02*
X1337034Y869748D01*
X1335366Y868634D01*
X1334252Y866966D01*
X1333861Y865000D01*
X1334252Y863034D01*
X1335277Y861500D01*
X1334252Y859967D01*
X1334147Y859439D01*
X1332853D01*
X1332748Y859967D01*
X1331634Y861634D01*
X1329966Y862748D01*
X1328000Y863139D01*
X1326033Y862748D01*
X1324366Y861634D01*
X1323252Y859967D01*
X1322861Y858000D01*
X1323252Y856033D01*
X1324366Y854366D01*
X1326033Y853252D01*
X1328000Y852861D01*
X1329966Y853252D01*
X1331634Y854366D01*
X1332748Y856033D01*
X1332853Y856561D01*
X1334147D01*
X1334252Y856033D01*
X1335366Y854366D01*
X1337034Y853252D01*
X1339000Y852861D01*
X1340966Y853252D01*
X1342634Y854366D01*
X1343748Y856033D01*
X1344139Y858000D01*
X1343748Y859967D01*
X1342723Y861500D01*
X1343748Y863034D01*
X1344139Y865000D01*
X1343748Y866966D01*
X1342634Y868634D01*
X1340966Y869748D01*
X1339000Y870139D01*
D02*
G37*
G36*
X1546040Y861040D02*
X1537270D01*
Y853520D01*
X1546040D01*
Y861040D01*
D02*
G37*
G36*
X1512730D02*
X1503960D01*
Y853520D01*
X1512730D01*
Y861040D01*
D02*
G37*
G36*
X1524040D02*
X1515270D01*
Y853520D01*
X1524040D01*
Y861040D01*
D02*
G37*
G36*
X1030040Y870730D02*
X1022520D01*
Y861960D01*
X1030040D01*
Y870730D01*
D02*
G37*
G36*
X373380Y896664D02*
X371151Y896370D01*
X369073Y895510D01*
X367289Y894141D01*
X365920Y892357D01*
X365060Y890279D01*
X364766Y888050D01*
X365060Y885821D01*
X365920Y883743D01*
X367289Y881959D01*
X369073Y880590D01*
X371151Y879730D01*
X373380Y879436D01*
X375609Y879730D01*
X377687Y880590D01*
X379471Y881959D01*
X380840Y883743D01*
X381700Y885821D01*
X381994Y888050D01*
X381700Y890279D01*
X380840Y892357D01*
X379471Y894141D01*
X377687Y895510D01*
X375609Y896370D01*
X373380Y896664D01*
D02*
G37*
G36*
X279230Y898230D02*
X270162D01*
X270353Y896781D01*
X271403Y894248D01*
X273072Y892072D01*
X275248Y890403D01*
X277781Y889353D01*
X279230Y889162D01*
Y898230D01*
D02*
G37*
G36*
X290838D02*
X281770D01*
Y889162D01*
X283219Y889353D01*
X285752Y890403D01*
X287928Y892072D01*
X289597Y894248D01*
X290647Y896781D01*
X290838Y898230D01*
D02*
G37*
G36*
X1604050Y874805D02*
X1600320D01*
Y868470D01*
X1611488D01*
X1611396Y869168D01*
X1610636Y871003D01*
X1609428Y872578D01*
X1607853Y873786D01*
X1606018Y874546D01*
X1604050Y874805D01*
D02*
G37*
G36*
X1597780D02*
X1594050D01*
X1592082Y874546D01*
X1590247Y873786D01*
X1588672Y872578D01*
X1587464Y871003D01*
X1586704Y869168D01*
X1586612Y868470D01*
X1597780D01*
Y874805D01*
D02*
G37*
G36*
X1635780D02*
X1632050D01*
X1630082Y874546D01*
X1628248Y873786D01*
X1626672Y872578D01*
X1625464Y871003D01*
X1624704Y869168D01*
X1624612Y868470D01*
X1635780D01*
Y874805D01*
D02*
G37*
G36*
X1642050D02*
X1638320D01*
Y868470D01*
X1649488D01*
X1649396Y869168D01*
X1648636Y871003D01*
X1647428Y872578D01*
X1645853Y873786D01*
X1644018Y874546D01*
X1642050Y874805D01*
D02*
G37*
G36*
X279230Y839230D02*
X270162D01*
X270353Y837781D01*
X271402Y835248D01*
X273072Y833072D01*
X275248Y831403D01*
X277781Y830353D01*
X279230Y830162D01*
Y839230D01*
D02*
G37*
G36*
X290838D02*
X281770D01*
Y830162D01*
X283219Y830353D01*
X285752Y831403D01*
X287928Y833072D01*
X289597Y835248D01*
X290647Y837781D01*
X290838Y839230D01*
D02*
G37*
G36*
X1458750Y908500D02*
X1444250D01*
Y891500D01*
X1456395D01*
X1462951Y884944D01*
Y852634D01*
X1462400D01*
X1461717Y852498D01*
X1461138Y852112D01*
X1460751Y851533D01*
X1460616Y850850D01*
Y832650D01*
X1459582Y831605D01*
X1457018D01*
X1455984Y832650D01*
Y850850D01*
X1455849Y851533D01*
X1455462Y852112D01*
X1454883Y852498D01*
X1454200Y852634D01*
X1449700D01*
X1449017Y852498D01*
X1448438Y852112D01*
X1448051Y851533D01*
X1447916Y850850D01*
Y832650D01*
X1448051Y831967D01*
X1448438Y831388D01*
X1449017Y831002D01*
X1449700Y830866D01*
X1451950D01*
Y818270D01*
X1471000D01*
X1490050D01*
Y830866D01*
X1492300D01*
X1492983Y831002D01*
X1493562Y831388D01*
X1493949Y831967D01*
X1494084Y832650D01*
Y834612D01*
X1591868D01*
X1592250Y833500D01*
X1592250Y833500D01*
X1592250D01*
X1592250Y833500D01*
Y831549D01*
X1575000D01*
X1574025Y831355D01*
X1573198Y830802D01*
X1539944Y797549D01*
X1521056D01*
X1516549Y802056D01*
Y810500D01*
X1522500D01*
Y825000D01*
X1505500D01*
Y810500D01*
X1511451D01*
Y801000D01*
X1511645Y800024D01*
X1512198Y799198D01*
X1518198Y793198D01*
X1518339Y793103D01*
X1518500Y791900D01*
X1518500Y791584D01*
Y774900D01*
X1535500D01*
Y791181D01*
X1535500Y791900D01*
X1536542Y792451D01*
X1541000D01*
X1541976Y792645D01*
X1542802Y793198D01*
X1576056Y826451D01*
X1592250D01*
Y824500D01*
X1592250Y824500D01*
Y823500D01*
X1592250D01*
X1592250Y823230D01*
Y815070D01*
X1592250Y814500D01*
X1592250D01*
Y813800D01*
X1592250D01*
Y811859D01*
X1577005D01*
X1576000Y812059D01*
X1574830Y811826D01*
X1574827Y811824D01*
X1573829Y811626D01*
X1572837Y810963D01*
X1572174Y809970D01*
X1572057Y809383D01*
X1564837Y802163D01*
X1564174Y801171D01*
X1563941Y800000D01*
X1563941Y800000D01*
Y757267D01*
X1552733Y746059D01*
X1526493D01*
X1525974Y746727D01*
X1526595Y747927D01*
X1527000Y747873D01*
X1529621Y748218D01*
X1532063Y749230D01*
X1534161Y750839D01*
X1535770Y752937D01*
X1536782Y755379D01*
X1536959Y756730D01*
X1527000D01*
Y758000D01*
D01*
Y756730D01*
X1516167D01*
X1515784Y756541D01*
X1509163Y763163D01*
X1508170Y763826D01*
X1507000Y764059D01*
X1507000Y764059D01*
X1473267D01*
X1455459Y781866D01*
X1455462Y781888D01*
X1455849Y782467D01*
X1455984Y783150D01*
Y788316D01*
X1457169Y790088D01*
X1457402Y791263D01*
X1458697D01*
X1458781Y790838D01*
X1460006Y789006D01*
X1460616Y788598D01*
Y783150D01*
X1460751Y782467D01*
X1461138Y781888D01*
X1461717Y781501D01*
X1462400Y781366D01*
X1466900D01*
X1467583Y781501D01*
X1468162Y781888D01*
X1468548Y782467D01*
X1468684Y783150D01*
Y790039D01*
X1469219Y790838D01*
X1469648Y793000D01*
X1469219Y795162D01*
X1468684Y795961D01*
Y801350D01*
X1469718Y802395D01*
X1469730D01*
Y815730D01*
X1451950D01*
Y803134D01*
X1449700D01*
X1449017Y802999D01*
X1448438Y802612D01*
X1448051Y802033D01*
X1447916Y801350D01*
Y796184D01*
X1446731Y794412D01*
X1446302Y792250D01*
X1446731Y790088D01*
X1447916Y788316D01*
Y783150D01*
X1448051Y782467D01*
X1448438Y781888D01*
X1448891Y781586D01*
Y781050D01*
X1448891Y781050D01*
X1449124Y779880D01*
X1449787Y778887D01*
X1469837Y758837D01*
X1469837Y758837D01*
X1470829Y758174D01*
X1472000Y757941D01*
X1472000Y757941D01*
X1505733D01*
X1522837Y740837D01*
X1523829Y740174D01*
X1525000Y739941D01*
X1525000Y739941D01*
X1554000D01*
X1554000Y739941D01*
X1555170Y740174D01*
X1556163Y740837D01*
X1569163Y753837D01*
X1569163Y753837D01*
X1569826Y754829D01*
X1570059Y756000D01*
X1570059Y756000D01*
Y798733D01*
X1577067Y805741D01*
X1591352D01*
X1592071Y805022D01*
X1591894Y803720D01*
X1591088Y803540D01*
X1590710D01*
Y797770D01*
X1599000D01*
X1607290D01*
Y802942D01*
X1607290Y803540D01*
X1608282Y804212D01*
X1615800D01*
X1617556Y804561D01*
X1619044Y805556D01*
X1624244Y810756D01*
X1625239Y812244D01*
X1625588Y814000D01*
Y833000D01*
X1625239Y834756D01*
X1624244Y836244D01*
X1618044Y842444D01*
X1616556Y843439D01*
X1614800Y843788D01*
X1608282D01*
X1607290Y844460D01*
X1607290Y845058D01*
Y850230D01*
X1599000D01*
X1590710D01*
Y845058D01*
X1590710Y844460D01*
X1589718Y843788D01*
X1546040D01*
Y850980D01*
X1536000D01*
X1525960D01*
Y843788D01*
X1524040D01*
Y850980D01*
X1514000D01*
X1503960D01*
Y843788D01*
X1494500D01*
X1494084Y844204D01*
Y850850D01*
X1493949Y851533D01*
X1493562Y852112D01*
X1492983Y852498D01*
X1492300Y852634D01*
X1487800D01*
X1487117Y852498D01*
X1486538Y852112D01*
X1486151Y851533D01*
X1486016Y850850D01*
Y843812D01*
X1485811Y843506D01*
X1485462Y841750D01*
X1485811Y839994D01*
X1486016Y839688D01*
Y832650D01*
X1484982Y831605D01*
X1483748D01*
X1482942Y832587D01*
X1482955Y832650D01*
Y840480D01*
X1477350D01*
X1471745D01*
Y832650D01*
X1471758Y832587D01*
X1470952Y831605D01*
X1469718D01*
X1468684Y832650D01*
Y850850D01*
X1468548Y851533D01*
X1468162Y852112D01*
X1468049Y852187D01*
Y886000D01*
X1467855Y886975D01*
X1467302Y887802D01*
X1458750Y896355D01*
Y908500D01*
D02*
G37*
G36*
X373380Y845864D02*
X371151Y845570D01*
X369073Y844710D01*
X367289Y843341D01*
X365920Y841557D01*
X365060Y839479D01*
X364766Y837250D01*
X365060Y835021D01*
X365920Y832943D01*
X367289Y831159D01*
X369073Y829790D01*
X371151Y828930D01*
X373380Y828636D01*
X375609Y828930D01*
X377687Y829790D01*
X379471Y831159D01*
X380840Y832943D01*
X381700Y835021D01*
X381994Y837250D01*
X381700Y839479D01*
X380840Y841557D01*
X379471Y843341D01*
X377687Y844710D01*
X375609Y845570D01*
X373380Y845864D01*
D02*
G37*
G36*
X372110Y820296D02*
X371151Y820170D01*
X369073Y819310D01*
X367289Y817941D01*
X365920Y816157D01*
X365060Y814079D01*
X364934Y813120D01*
X372110D01*
Y820296D01*
D02*
G37*
G36*
X374650D02*
Y813120D01*
X381827D01*
X381700Y814079D01*
X380840Y816157D01*
X379471Y817941D01*
X377687Y819310D01*
X375609Y820170D01*
X374650Y820296D01*
D02*
G37*
G36*
X1391000Y929000D02*
X1365000D01*
Y817000D01*
X1391000D01*
Y929000D01*
D02*
G37*
G36*
X994000Y880500D02*
X979500D01*
Y863500D01*
X989482D01*
X1011866Y841116D01*
X1011866Y841116D01*
X1013000Y840359D01*
Y838727D01*
X1011827Y838241D01*
X1003184Y846884D01*
X1001861Y847768D01*
X1000300Y848078D01*
X1000300Y848078D01*
X993000D01*
Y852500D01*
X978500D01*
Y835500D01*
X993000D01*
Y839922D01*
X998611D01*
X1013701Y824831D01*
X1013878Y823422D01*
X1013499Y822856D01*
X1013366Y822188D01*
Y817913D01*
X1013499Y817244D01*
X1013878Y816678D01*
X1014444Y816299D01*
X1015113Y816167D01*
X1023271D01*
X1024250Y815972D01*
X1025229Y816167D01*
X1033388D01*
X1034056Y816299D01*
X1034622Y816678D01*
X1035001Y817244D01*
X1035134Y817913D01*
Y822188D01*
X1035001Y822856D01*
X1034622Y823422D01*
X1034056Y823801D01*
X1033388Y823933D01*
X1026134D01*
X1015741Y834327D01*
X1016227Y835500D01*
X1027500D01*
Y838936D01*
X1028770Y839462D01*
X1046422Y821811D01*
Y792189D01*
X1040261Y786028D01*
X1024250D01*
X1023271Y785834D01*
X1015113D01*
X1014444Y785701D01*
X1013878Y785322D01*
X1013499Y784756D01*
X1013366Y784088D01*
Y779812D01*
X1013499Y779144D01*
X1013878Y778578D01*
X1014444Y778199D01*
X1015113Y778066D01*
X1023271D01*
X1024250Y777872D01*
X1041950D01*
X1041950Y777872D01*
X1043511Y778182D01*
X1044834Y779066D01*
X1053384Y787616D01*
X1056339Y790572D01*
X1073750D01*
X1074729Y790767D01*
X1082887D01*
X1083556Y790899D01*
X1084122Y791278D01*
X1084501Y791844D01*
X1084633Y792513D01*
Y796787D01*
X1084501Y797456D01*
X1084122Y798022D01*
X1083556Y798401D01*
X1082887Y798533D01*
X1074729D01*
X1073750Y798728D01*
X1054650D01*
X1054650Y798728D01*
X1054578Y798787D01*
Y823500D01*
X1054268Y825061D01*
X1053384Y826384D01*
X1053384Y826384D01*
X1032884Y846884D01*
X1031561Y847768D01*
X1030000Y848078D01*
X1030000Y848078D01*
X1027500D01*
Y852500D01*
X1013000D01*
Y852500D01*
X1012305Y852212D01*
X994000Y870518D01*
Y880500D01*
D02*
G37*
G36*
X942000Y851000D02*
X929000D01*
Y847078D01*
X918000D01*
X918000Y847078D01*
X916439Y846768D01*
X915116Y845884D01*
X915116Y845884D01*
X890311Y821078D01*
X879900D01*
Y825500D01*
X862900D01*
Y808500D01*
X879900D01*
Y812922D01*
X892000D01*
X892000Y812922D01*
X893561Y813232D01*
X894884Y814116D01*
X919689Y838922D01*
X929000D01*
Y835000D01*
X942000D01*
Y851000D01*
D02*
G37*
G36*
X1611488Y865930D02*
X1599050D01*
X1586612D01*
X1586704Y865232D01*
X1587464Y863398D01*
X1588672Y861822D01*
X1590247Y860614D01*
X1592082Y859854D01*
X1592416Y859810D01*
X1592333Y858540D01*
X1590710D01*
Y852770D01*
X1599000D01*
X1607290D01*
Y858540D01*
X1605767D01*
X1605684Y859810D01*
X1606018Y859854D01*
X1607853Y860614D01*
X1609428Y861822D01*
X1610636Y863398D01*
X1611396Y865232D01*
X1611488Y865930D01*
D02*
G37*
G36*
X1534730Y861040D02*
X1525960D01*
Y853520D01*
X1534730D01*
Y861040D01*
D02*
G37*
G36*
X1479600Y854204D02*
X1478620D01*
Y843020D01*
X1482955D01*
Y850850D01*
X1482699Y852134D01*
X1481972Y853222D01*
X1480884Y853949D01*
X1479600Y854204D01*
D02*
G37*
G36*
X279230Y850838D02*
X277781Y850647D01*
X275248Y849597D01*
X273072Y847928D01*
X271402Y845752D01*
X270353Y843219D01*
X270162Y841770D01*
X279230D01*
Y850838D01*
D02*
G37*
G36*
X281770D02*
Y841770D01*
X290838D01*
X290647Y843219D01*
X289597Y845752D01*
X287928Y847928D01*
X285752Y849597D01*
X283219Y850647D01*
X281770Y850838D01*
D02*
G37*
G36*
X1476080Y854204D02*
X1475100D01*
X1473816Y853949D01*
X1472728Y853222D01*
X1472001Y852134D01*
X1471745Y850850D01*
Y843020D01*
X1476080D01*
Y854204D01*
D02*
G37*
G36*
X1525730Y767959D02*
X1524379Y767782D01*
X1521937Y766770D01*
X1519839Y765161D01*
X1518230Y763063D01*
X1517218Y760621D01*
X1517041Y759270D01*
X1525730D01*
Y767959D01*
D02*
G37*
G36*
X1141838Y507230D02*
X1132770D01*
Y498162D01*
X1134219Y498353D01*
X1136752Y499403D01*
X1138928Y501072D01*
X1140598Y503247D01*
X1141647Y505781D01*
X1141838Y507230D01*
D02*
G37*
G36*
X1206838D02*
X1197770D01*
Y498162D01*
X1199219Y498353D01*
X1201752Y499403D01*
X1203928Y501072D01*
X1205598Y503247D01*
X1206647Y505781D01*
X1206838Y507230D01*
D02*
G37*
G36*
X862338Y507230D02*
X853270D01*
Y498162D01*
X854719Y498353D01*
X857252Y499403D01*
X859428Y501072D01*
X861097Y503247D01*
X862147Y505781D01*
X862338Y507230D01*
D02*
G37*
G36*
X647838Y507230D02*
X638770D01*
Y498162D01*
X640219Y498353D01*
X642753Y499403D01*
X644928Y501072D01*
X646598Y503247D01*
X647647Y505781D01*
X647838Y507230D01*
D02*
G37*
G36*
X1130230D02*
X1121162D01*
X1121353Y505781D01*
X1122402Y503247D01*
X1124072Y501072D01*
X1126248Y499403D01*
X1128781Y498353D01*
X1130230Y498162D01*
Y507230D01*
D02*
G37*
G36*
X1195230D02*
X1186162D01*
X1186353Y505781D01*
X1187403Y503247D01*
X1189072Y501072D01*
X1191248Y499403D01*
X1193781Y498353D01*
X1195230Y498162D01*
Y507230D01*
D02*
G37*
G36*
X582838D02*
X573770D01*
Y498162D01*
X575219Y498353D01*
X577752Y499403D01*
X579928Y501072D01*
X581598Y503247D01*
X582647Y505781D01*
X582838Y507230D01*
D02*
G37*
G36*
X927338Y507230D02*
X918270D01*
Y498162D01*
X919719Y498353D01*
X922253Y499403D01*
X924428Y501072D01*
X926097Y503247D01*
X927147Y505781D01*
X927338Y507230D01*
D02*
G37*
G36*
X571230Y518838D02*
X569781Y518647D01*
X567248Y517597D01*
X565072Y515928D01*
X563402Y513752D01*
X562353Y511219D01*
X562162Y509770D01*
X571230D01*
Y518838D01*
D02*
G37*
G36*
X636230D02*
X634781Y518647D01*
X632248Y517597D01*
X630072Y515928D01*
X628403Y513752D01*
X627353Y511219D01*
X627162Y509770D01*
X636230D01*
Y518838D01*
D02*
G37*
G36*
X573770Y518838D02*
Y509770D01*
X582838D01*
X582647Y511219D01*
X581598Y513752D01*
X579928Y515928D01*
X577752Y517597D01*
X575219Y518647D01*
X573770Y518838D01*
D02*
G37*
G36*
X853270D02*
Y509770D01*
X862338D01*
X862147Y511219D01*
X861097Y513752D01*
X859428Y515928D01*
X857252Y517597D01*
X854719Y518647D01*
X853270Y518838D01*
D02*
G37*
G36*
X915730Y518838D02*
X914281Y518647D01*
X911748Y517597D01*
X909572Y515928D01*
X907903Y513752D01*
X906853Y511219D01*
X906662Y509770D01*
X915730D01*
Y518838D01*
D02*
G37*
G36*
X850730D02*
X849281Y518647D01*
X846748Y517597D01*
X844572Y515928D01*
X842903Y513752D01*
X841853Y511219D01*
X841662Y509770D01*
X850730D01*
Y518838D01*
D02*
G37*
G36*
X918270Y518838D02*
Y509770D01*
X927338D01*
X927147Y511219D01*
X926097Y513752D01*
X924428Y515928D01*
X922253Y517597D01*
X919719Y518647D01*
X918270Y518838D01*
D02*
G37*
G36*
X636230Y507230D02*
X627162D01*
X627353Y505781D01*
X628403Y503247D01*
X630072Y501072D01*
X632248Y499403D01*
X634781Y498353D01*
X636230Y498162D01*
Y507230D01*
D02*
G37*
G36*
X637500Y472452D02*
X635183Y472146D01*
X633024Y471252D01*
X631170Y469830D01*
X629748Y467976D01*
X628853Y465817D01*
X628549Y463500D01*
X628853Y461183D01*
X629748Y459024D01*
X631170Y457170D01*
X633024Y455748D01*
X635183Y454853D01*
X637500Y454548D01*
X639817Y454853D01*
X641976Y455748D01*
X643830Y457170D01*
X645252Y459024D01*
X646147Y461183D01*
X646452Y463500D01*
X646147Y465817D01*
X645252Y467976D01*
X643830Y469830D01*
X641976Y471252D01*
X639817Y472146D01*
X637500Y472452D01*
D02*
G37*
G36*
X1196500D02*
X1194183Y472146D01*
X1192024Y471252D01*
X1190170Y469830D01*
X1188748Y467976D01*
X1187853Y465817D01*
X1187549Y463500D01*
X1187853Y461183D01*
X1188748Y459024D01*
X1190170Y457170D01*
X1192024Y455748D01*
X1194183Y454853D01*
X1196500Y454548D01*
X1198817Y454853D01*
X1200976Y455748D01*
X1202830Y457170D01*
X1204252Y459024D01*
X1205147Y461183D01*
X1205452Y463500D01*
X1205147Y465817D01*
X1204252Y467976D01*
X1202830Y469830D01*
X1200976Y471252D01*
X1198817Y472146D01*
X1196500Y472452D01*
D02*
G37*
G36*
X293730Y497524D02*
X290581Y497214D01*
X286333Y495925D01*
X282417Y493832D01*
X278985Y491015D01*
X276168Y487583D01*
X274075Y483667D01*
X272786Y479419D01*
X272476Y476270D01*
X293730D01*
Y497524D01*
D02*
G37*
G36*
X1646524Y473730D02*
X1625270D01*
Y452476D01*
X1628419Y452786D01*
X1632667Y454075D01*
X1636583Y456168D01*
X1640015Y458985D01*
X1642832Y462417D01*
X1644925Y466333D01*
X1646214Y470581D01*
X1646524Y473730D01*
D02*
G37*
G36*
X293730D02*
X272476D01*
X272786Y470581D01*
X274075Y466333D01*
X276168Y462417D01*
X278985Y458985D01*
X282417Y456168D01*
X286333Y454075D01*
X290581Y452786D01*
X293730Y452476D01*
Y473730D01*
D02*
G37*
G36*
X317524D02*
X296270D01*
Y452476D01*
X299419Y452786D01*
X303667Y454075D01*
X307583Y456168D01*
X311015Y458985D01*
X313832Y462417D01*
X315925Y466333D01*
X317214Y470581D01*
X317524Y473730D01*
D02*
G37*
G36*
X1622730D02*
X1601476D01*
X1601786Y470581D01*
X1603075Y466333D01*
X1605168Y462417D01*
X1607985Y458985D01*
X1611417Y456168D01*
X1615333Y454075D01*
X1619581Y452786D01*
X1622730Y452476D01*
Y473730D01*
D02*
G37*
G36*
X296270Y497524D02*
Y476270D01*
X317524D01*
X317214Y479419D01*
X315925Y483667D01*
X313832Y487583D01*
X311015Y491015D01*
X307583Y493832D01*
X303667Y495925D01*
X299419Y497214D01*
X296270Y497524D01*
D02*
G37*
G36*
X850730Y507230D02*
X841662D01*
X841853Y505781D01*
X842903Y503247D01*
X844572Y501072D01*
X846748Y499403D01*
X849281Y498353D01*
X850730Y498162D01*
Y507230D01*
D02*
G37*
G36*
X915730D02*
X906662D01*
X906853Y505781D01*
X907903Y503247D01*
X909572Y501072D01*
X911748Y499403D01*
X914281Y498353D01*
X915730Y498162D01*
Y507230D01*
D02*
G37*
G36*
X571230Y507230D02*
X562162D01*
X562353Y505781D01*
X563402Y503247D01*
X565072Y501072D01*
X567248Y499403D01*
X569781Y498353D01*
X571230Y498162D01*
Y507230D01*
D02*
G37*
G36*
X1558500Y510730D02*
X1527270D01*
Y494375D01*
X1541000D01*
X1544438Y494714D01*
X1547745Y495717D01*
X1550792Y497345D01*
X1553463Y499537D01*
X1555654Y502208D01*
X1557283Y505255D01*
X1558286Y508562D01*
X1558500Y510730D01*
D02*
G37*
G36*
X1622730Y497524D02*
X1619581Y497214D01*
X1615333Y495925D01*
X1611417Y493832D01*
X1607985Y491015D01*
X1605168Y487583D01*
X1603075Y483667D01*
X1601786Y479419D01*
X1601476Y476270D01*
X1622730D01*
Y497524D01*
D02*
G37*
G36*
X1625270D02*
Y476270D01*
X1646524D01*
X1646214Y479419D01*
X1644925Y483667D01*
X1642832Y487583D01*
X1640015Y491015D01*
X1636583Y493832D01*
X1632667Y495925D01*
X1628419Y497214D01*
X1625270Y497524D01*
D02*
G37*
G36*
X1524730Y510730D02*
X1493500D01*
X1493714Y508562D01*
X1494717Y505255D01*
X1496346Y502208D01*
X1498537Y499537D01*
X1501208Y497345D01*
X1504255Y495717D01*
X1507562Y494714D01*
X1511000Y494375D01*
X1524730D01*
Y510730D01*
D02*
G37*
G36*
X372110Y718697D02*
X371151Y718570D01*
X369073Y717710D01*
X367289Y716341D01*
X365920Y714557D01*
X365060Y712479D01*
X364934Y711520D01*
X372110D01*
Y718697D01*
D02*
G37*
G36*
X374650D02*
Y711520D01*
X381827D01*
X381700Y712479D01*
X380840Y714557D01*
X379471Y716341D01*
X377687Y717710D01*
X375609Y718570D01*
X374650Y718697D01*
D02*
G37*
G36*
X372110Y734380D02*
X364934D01*
X365060Y733421D01*
X365920Y731343D01*
X367289Y729559D01*
X369073Y728190D01*
X371151Y727330D01*
X372110Y727204D01*
Y734380D01*
D02*
G37*
G36*
X381827Y708980D02*
X374650D01*
Y701804D01*
X375609Y701930D01*
X377687Y702790D01*
X379471Y704159D01*
X380840Y705943D01*
X381700Y708021D01*
X381827Y708980D01*
D02*
G37*
G36*
X1541000Y643625D02*
X1527270D01*
Y627270D01*
X1558500D01*
X1558286Y629438D01*
X1557283Y632745D01*
X1555654Y635792D01*
X1553463Y638463D01*
X1550792Y640655D01*
X1547745Y642283D01*
X1544438Y643286D01*
X1541000Y643625D01*
D02*
G37*
G36*
X315540Y679540D02*
X289270D01*
Y638270D01*
X315540D01*
Y679540D01*
D02*
G37*
G36*
X372110Y708980D02*
X364934D01*
X365060Y708021D01*
X365920Y705943D01*
X367289Y704159D01*
X369073Y702790D01*
X371151Y701930D01*
X372110Y701804D01*
Y708980D01*
D02*
G37*
G36*
X381827Y734380D02*
X374650D01*
Y727204D01*
X375609Y727330D01*
X377687Y728190D01*
X379471Y729559D01*
X380840Y731343D01*
X381700Y733421D01*
X381827Y734380D01*
D02*
G37*
G36*
X372110Y759780D02*
X364934D01*
X365060Y758821D01*
X365920Y756743D01*
X367289Y754959D01*
X369073Y753590D01*
X371151Y752730D01*
X372110Y752604D01*
Y759780D01*
D02*
G37*
G36*
X381827D02*
X374650D01*
Y752604D01*
X375609Y752730D01*
X377687Y753590D01*
X379471Y754959D01*
X380840Y756743D01*
X381700Y758821D01*
X381827Y759780D01*
D02*
G37*
G36*
X1148000Y757000D02*
X1135000D01*
Y753078D01*
X1081000D01*
X1081000Y753078D01*
X1079439Y752768D01*
X1078116Y751884D01*
X1078116Y751884D01*
X1061215Y734983D01*
X1060033Y734748D01*
X1058366Y733634D01*
X1057252Y731966D01*
X1056861Y730000D01*
X1057252Y728034D01*
X1058366Y726366D01*
X1060033Y725252D01*
X1062000Y724861D01*
X1063967Y725252D01*
X1065634Y726366D01*
X1066748Y728034D01*
X1066983Y729215D01*
X1082689Y744922D01*
X1135000D01*
Y741000D01*
X1148000D01*
Y757000D01*
D02*
G37*
G36*
X1172500Y800500D02*
X1158000D01*
Y790518D01*
X1153616Y786134D01*
X1152732Y784811D01*
X1152422Y783250D01*
X1152422Y783250D01*
Y757000D01*
X1150000D01*
Y741000D01*
X1163000D01*
Y757000D01*
X1160578D01*
Y781561D01*
X1162518Y783500D01*
X1172500D01*
Y800500D01*
D02*
G37*
G36*
X372110Y744097D02*
X371151Y743970D01*
X369073Y743110D01*
X367289Y741741D01*
X365920Y739957D01*
X365060Y737879D01*
X364934Y736920D01*
X372110D01*
Y744097D01*
D02*
G37*
G36*
X374650D02*
Y736920D01*
X381827D01*
X381700Y737879D01*
X380840Y739957D01*
X379471Y741741D01*
X377687Y743110D01*
X375609Y743970D01*
X374650Y744097D01*
D02*
G37*
G36*
X930000Y795500D02*
X915500D01*
Y778500D01*
X925482D01*
X930422Y773561D01*
Y756000D01*
X928000D01*
Y740000D01*
X941000D01*
Y756000D01*
X938578D01*
Y775250D01*
X938268Y776811D01*
X937384Y778134D01*
X937384Y778134D01*
X930000Y785518D01*
Y795500D01*
D02*
G37*
G36*
X1524730Y643625D02*
X1511000D01*
X1507562Y643286D01*
X1504255Y642283D01*
X1501208Y640655D01*
X1498537Y638463D01*
X1496346Y635792D01*
X1494717Y632745D01*
X1493714Y629438D01*
X1493500Y627270D01*
X1524730D01*
Y643625D01*
D02*
G37*
G36*
X1461716Y567730D02*
X1452270D01*
Y558284D01*
X1453817Y558488D01*
X1456442Y559575D01*
X1458696Y561304D01*
X1460425Y563558D01*
X1461512Y566183D01*
X1461716Y567730D01*
D02*
G37*
G36*
X1449730Y579716D02*
X1448183Y579512D01*
X1445558Y578425D01*
X1443304Y576696D01*
X1441575Y574441D01*
X1440488Y571817D01*
X1440284Y570270D01*
X1449730D01*
Y579716D01*
D02*
G37*
G36*
X1452270D02*
Y570270D01*
X1461716D01*
X1461512Y571817D01*
X1460425Y574441D01*
X1458696Y576696D01*
X1456442Y578425D01*
X1453817Y579512D01*
X1452270Y579716D01*
D02*
G37*
G36*
X1449730Y567730D02*
X1440284D01*
X1440488Y566183D01*
X1441575Y563558D01*
X1443304Y561304D01*
X1445558Y559575D01*
X1448183Y558488D01*
X1449730Y558284D01*
Y567730D01*
D02*
G37*
G36*
X638770Y518838D02*
Y509770D01*
X647838D01*
X647647Y511219D01*
X646598Y513752D01*
X644928Y515928D01*
X642753Y517597D01*
X640219Y518647D01*
X638770Y518838D01*
D02*
G37*
G36*
X1524730Y529625D02*
X1511000D01*
X1507562Y529286D01*
X1504255Y528283D01*
X1501208Y526655D01*
X1498537Y524463D01*
X1496346Y521792D01*
X1494717Y518745D01*
X1493714Y515438D01*
X1493500Y513270D01*
X1524730D01*
Y529625D01*
D02*
G37*
G36*
X1541000D02*
X1527270D01*
Y513270D01*
X1558500D01*
X1558286Y515438D01*
X1557283Y518745D01*
X1555654Y521792D01*
X1553463Y524463D01*
X1550792Y526655D01*
X1547745Y528283D01*
X1544438Y529286D01*
X1541000Y529625D01*
D02*
G37*
G36*
X1594730Y592730D02*
X1585210D01*
Y583210D01*
X1594730D01*
Y592730D01*
D02*
G37*
G36*
X1524730Y624730D02*
X1493500D01*
X1493714Y622561D01*
X1494717Y619255D01*
X1496346Y616208D01*
X1498537Y613537D01*
X1501208Y611345D01*
X1504255Y609717D01*
X1507562Y608714D01*
X1511000Y608375D01*
X1524730D01*
Y624730D01*
D02*
G37*
G36*
X1558500D02*
X1527270D01*
Y608375D01*
X1541000D01*
X1544438Y608714D01*
X1547745Y609717D01*
X1550792Y611345D01*
X1553463Y613537D01*
X1555654Y616208D01*
X1557283Y619255D01*
X1558286Y622561D01*
X1558500Y624730D01*
D02*
G37*
G36*
X956000Y756000D02*
X943000D01*
Y740000D01*
X945422D01*
Y730500D01*
X945422Y730500D01*
X945732Y728939D01*
X946616Y727616D01*
X1048116Y626116D01*
X1048116Y626116D01*
X1049439Y625232D01*
X1051000Y624922D01*
X1052032D01*
X1053034Y624252D01*
X1055000Y623861D01*
X1056966Y624252D01*
X1058634Y625366D01*
X1059748Y627034D01*
X1060139Y629000D01*
X1059748Y630966D01*
X1058634Y632634D01*
X1056966Y633748D01*
X1055000Y634139D01*
X1053034Y633748D01*
X1052426Y633342D01*
X953578Y732189D01*
Y740000D01*
X956000D01*
Y756000D01*
D02*
G37*
G36*
X1606790Y604790D02*
X1597270D01*
Y595270D01*
X1606790D01*
Y604790D01*
D02*
G37*
G36*
Y592730D02*
X1597270D01*
Y583210D01*
X1606790D01*
Y592730D01*
D02*
G37*
G36*
X315540Y635730D02*
X289270D01*
Y594460D01*
X315540D01*
Y635730D01*
D02*
G37*
G36*
X1594730Y604790D02*
X1585210D01*
Y595270D01*
X1594730D01*
Y604790D01*
D02*
G37*
G36*
X1484730Y898730D02*
X1477210D01*
Y889960D01*
X1484730D01*
Y898730D01*
D02*
G37*
G36*
X584080Y1054217D02*
X583774Y1054156D01*
X582437Y1053263D01*
X581544Y1051926D01*
X581483Y1051620D01*
X584080D01*
Y1054217D01*
D02*
G37*
G36*
X586620D02*
Y1051620D01*
X589216D01*
X589156Y1051926D01*
X588263Y1053263D01*
X586926Y1054156D01*
X586620Y1054217D01*
D02*
G37*
G36*
X602430D02*
X602124Y1054156D01*
X600787Y1053263D01*
X599894Y1051926D01*
X599833Y1051620D01*
X602430D01*
Y1054217D01*
D02*
G37*
G36*
X568270D02*
Y1051620D01*
X570867D01*
X570806Y1051926D01*
X569913Y1053263D01*
X568576Y1054156D01*
X568270Y1054217D01*
D02*
G37*
G36*
X602430Y1049080D02*
X599833D01*
X599894Y1048774D01*
X600787Y1047437D01*
X602124Y1046544D01*
X602430Y1046484D01*
Y1049080D01*
D02*
G37*
G36*
X607566D02*
X604970D01*
Y1046484D01*
X605276Y1046544D01*
X606613Y1047437D01*
X607506Y1048774D01*
X607566Y1049080D01*
D02*
G37*
G36*
X565730Y1054217D02*
X565424Y1054156D01*
X564087Y1053263D01*
X563194Y1051926D01*
X563134Y1051620D01*
X565730D01*
Y1054217D01*
D02*
G37*
G36*
X580042Y1058255D02*
X577445D01*
Y1055658D01*
X577751Y1055719D01*
X579088Y1056612D01*
X579981Y1057949D01*
X580042Y1058255D01*
D02*
G37*
G36*
X593255D02*
X590658D01*
X590719Y1057949D01*
X591612Y1056612D01*
X592949Y1055719D01*
X593255Y1055658D01*
Y1058255D01*
D02*
G37*
G36*
X598391D02*
X595795D01*
Y1055658D01*
X596101Y1055719D01*
X597438Y1056612D01*
X598331Y1057949D01*
X598391Y1058255D01*
D02*
G37*
G36*
X574905D02*
X572309D01*
X572369Y1057949D01*
X573262Y1056612D01*
X574599Y1055719D01*
X574905Y1055658D01*
Y1058255D01*
D02*
G37*
G36*
X604970Y1054217D02*
Y1051620D01*
X607566D01*
X607506Y1051926D01*
X606613Y1053263D01*
X605276Y1054156D01*
X604970Y1054217D01*
D02*
G37*
G36*
X1485000Y1062730D02*
X1476270D01*
Y1054000D01*
X1477631Y1054180D01*
X1480083Y1055195D01*
X1482189Y1056811D01*
X1483805Y1058916D01*
X1484821Y1061369D01*
X1485000Y1062730D01*
D02*
G37*
G36*
X1473730D02*
X1465000D01*
X1465179Y1061369D01*
X1466195Y1058916D01*
X1467811Y1056811D01*
X1469917Y1055195D01*
X1472369Y1054180D01*
X1473730Y1054000D01*
Y1062730D01*
D02*
G37*
G36*
X589216Y1049080D02*
X586620D01*
Y1046484D01*
X586926Y1046544D01*
X588263Y1047437D01*
X589156Y1048774D01*
X589216Y1049080D01*
D02*
G37*
G36*
X580042Y1039905D02*
X577445D01*
Y1037309D01*
X577751Y1037369D01*
X579088Y1038262D01*
X579981Y1039599D01*
X580042Y1039905D01*
D02*
G37*
G36*
X593255D02*
X590658D01*
X590719Y1039599D01*
X591612Y1038262D01*
X592949Y1037369D01*
X593255Y1037309D01*
Y1039905D01*
D02*
G37*
G36*
X598391D02*
X595795D01*
Y1037309D01*
X596101Y1037369D01*
X597438Y1038262D01*
X598331Y1039599D01*
X598391Y1039905D01*
D02*
G37*
G36*
X574905D02*
X572309D01*
X572369Y1039599D01*
X573262Y1038262D01*
X574599Y1037369D01*
X574905Y1037309D01*
Y1039905D01*
D02*
G37*
G36*
X604970Y1035866D02*
Y1033270D01*
X607566D01*
X607506Y1033576D01*
X606613Y1034913D01*
X605276Y1035806D01*
X604970Y1035866D01*
D02*
G37*
G36*
X527000Y1044649D02*
X524838Y1044219D01*
X523006Y1042994D01*
X522040Y1041549D01*
X508000D01*
X507024Y1041355D01*
X506198Y1040802D01*
X490198Y1024802D01*
X489645Y1023976D01*
X489451Y1023000D01*
Y999000D01*
X489645Y998025D01*
X490198Y997198D01*
X498589Y988806D01*
X498782Y987838D01*
X500006Y986006D01*
X500323Y985794D01*
X499938Y984524D01*
X381680D01*
X381026Y985794D01*
X381700Y987421D01*
X381994Y989650D01*
X381700Y991879D01*
X380840Y993957D01*
X379471Y995741D01*
X377687Y997110D01*
X375609Y997970D01*
X373380Y998264D01*
X371151Y997970D01*
X369073Y997110D01*
X367289Y995741D01*
X365920Y993957D01*
X365060Y991879D01*
X364766Y989650D01*
X365060Y987421D01*
X365920Y985343D01*
X366341Y984795D01*
X366173Y983777D01*
X346198Y963802D01*
X345645Y962975D01*
X345451Y962000D01*
Y862056D01*
X330922Y847526D01*
X329976Y848252D01*
X327817Y849147D01*
X325500Y849452D01*
X323183Y849147D01*
X321024Y848252D01*
X319170Y846830D01*
X317748Y844976D01*
X316854Y842817D01*
X316548Y840500D01*
X316854Y838183D01*
X317748Y836024D01*
X319170Y834170D01*
X321024Y832748D01*
X323183Y831853D01*
X325500Y831548D01*
X327817Y831853D01*
X329976Y832748D01*
X331830Y834170D01*
X333252Y836024D01*
X334147Y838183D01*
X334452Y840500D01*
X334147Y842817D01*
X333934Y843329D01*
X349802Y859198D01*
X350355Y860024D01*
X350549Y861000D01*
Y960944D01*
X368594Y978989D01*
X368884Y978795D01*
X369859Y978601D01*
X376901D01*
X377876Y978795D01*
X378703Y979348D01*
X378782Y979426D01*
X504248D01*
X505036Y978156D01*
X504701Y976475D01*
X505131Y974313D01*
X506356Y972481D01*
X508188Y971256D01*
X510350Y970826D01*
X512512Y971256D01*
X514344Y972481D01*
X515569Y974313D01*
X515593Y974436D01*
X555680D01*
X598558Y931558D01*
X598558Y931558D01*
X599220Y931116D01*
X600000Y930961D01*
X600000Y930961D01*
X679757D01*
X679781Y930838D01*
X681006Y929006D01*
X682838Y927781D01*
X685000Y927352D01*
X687162Y927781D01*
X688994Y929006D01*
X690219Y930838D01*
X690648Y933000D01*
X690219Y935162D01*
X688994Y936994D01*
X687162Y938219D01*
X685000Y938649D01*
X682838Y938219D01*
X681006Y936994D01*
X679781Y935162D01*
X679757Y935039D01*
X600845D01*
X557967Y977917D01*
X557609Y978156D01*
X557955Y979426D01*
X645969D01*
X673116Y952280D01*
X672861Y951000D01*
X673252Y949034D01*
X674366Y947366D01*
X676033Y946252D01*
X678000Y945861D01*
X679967Y946252D01*
X681634Y947366D01*
X682748Y949034D01*
X683139Y951000D01*
X682748Y952967D01*
X681634Y954634D01*
X679967Y955748D01*
X678000Y956139D01*
X676721Y955884D01*
X648827Y983777D01*
X648000Y984330D01*
X647025Y984524D01*
X508062D01*
X507677Y985794D01*
X507994Y986006D01*
X509219Y987838D01*
X509649Y990000D01*
X509219Y992162D01*
X507994Y993994D01*
X506162Y995219D01*
X504000Y995648D01*
X501838Y995219D01*
X500368Y994236D01*
X494549Y1000056D01*
Y1021944D01*
X509056Y1036451D01*
X522040D01*
X523006Y1035006D01*
X524838Y1033781D01*
X527000Y1033352D01*
X529162Y1033781D01*
X530994Y1035006D01*
X532219Y1036838D01*
X532649Y1039000D01*
X532219Y1041162D01*
X530994Y1042994D01*
X529162Y1044219D01*
X527000Y1044649D01*
D02*
G37*
G36*
X1059000Y1173109D02*
X1056901Y1172833D01*
X1054945Y1172023D01*
X1053266Y1170734D01*
X1051977Y1169055D01*
X1051167Y1167099D01*
X1050891Y1165000D01*
X1051167Y1162901D01*
X1051977Y1160945D01*
X1053266Y1159266D01*
X1054945Y1157977D01*
X1056901Y1157167D01*
X1059000Y1156891D01*
X1061099Y1157167D01*
X1063055Y1157977D01*
X1064734Y1159266D01*
X1066023Y1160945D01*
X1066833Y1162901D01*
X1067109Y1165000D01*
X1066833Y1167099D01*
X1066023Y1169055D01*
X1064734Y1170734D01*
X1063055Y1172023D01*
X1061099Y1172833D01*
X1059000Y1173109D01*
D02*
G37*
G36*
X565730Y1049080D02*
X563134D01*
X563194Y1048774D01*
X564087Y1047437D01*
X565424Y1046544D01*
X565730Y1046484D01*
Y1049080D01*
D02*
G37*
G36*
X570867D02*
X568270D01*
Y1046484D01*
X568576Y1046544D01*
X569913Y1047437D01*
X570806Y1048774D01*
X570867Y1049080D01*
D02*
G37*
G36*
X584080D02*
X581483D01*
X581544Y1048774D01*
X582437Y1047437D01*
X583774Y1046544D01*
X584080Y1046484D01*
Y1049080D01*
D02*
G37*
G36*
X595795Y1045042D02*
Y1042445D01*
X598391D01*
X598331Y1042751D01*
X597438Y1044088D01*
X596101Y1044981D01*
X595795Y1045042D01*
D02*
G37*
G36*
X574905D02*
X574599Y1044981D01*
X573262Y1044088D01*
X572369Y1042751D01*
X572309Y1042445D01*
X574905D01*
Y1045042D01*
D02*
G37*
G36*
X577445D02*
Y1042445D01*
X580042D01*
X579981Y1042751D01*
X579088Y1044088D01*
X577751Y1044981D01*
X577445Y1045042D01*
D02*
G37*
G36*
X593255D02*
X592949Y1044981D01*
X591612Y1044088D01*
X590719Y1042751D01*
X590658Y1042445D01*
X593255D01*
Y1045042D01*
D02*
G37*
G36*
X574905Y1063391D02*
X574599Y1063331D01*
X573262Y1062438D01*
X572369Y1061101D01*
X572309Y1060795D01*
X574905D01*
Y1063391D01*
D02*
G37*
G36*
X834070Y1132959D02*
Y1124270D01*
X842759D01*
X842582Y1125621D01*
X841570Y1128063D01*
X839961Y1130161D01*
X837863Y1131770D01*
X835421Y1132782D01*
X834070Y1132959D01*
D02*
G37*
G36*
X1622730Y1156730D02*
X1601476D01*
X1601786Y1153581D01*
X1603075Y1149333D01*
X1605168Y1145417D01*
X1607985Y1141985D01*
X1611417Y1139168D01*
X1615333Y1137075D01*
X1619581Y1135786D01*
X1622730Y1135476D01*
Y1156730D01*
D02*
G37*
G36*
X1646524D02*
X1625270D01*
Y1135476D01*
X1628419Y1135786D01*
X1632667Y1137075D01*
X1636583Y1139168D01*
X1640015Y1141985D01*
X1642832Y1145417D01*
X1644925Y1149333D01*
X1646214Y1153581D01*
X1646524Y1156730D01*
D02*
G37*
G36*
X831530Y1132959D02*
X830179Y1132782D01*
X827737Y1131770D01*
X825639Y1130161D01*
X824030Y1128063D01*
X823018Y1125621D01*
X822841Y1124270D01*
X831530D01*
Y1132959D01*
D02*
G37*
G36*
X909000Y1131573D02*
X906781Y1131281D01*
X904713Y1130425D01*
X902938Y1129062D01*
X901575Y1127287D01*
X900719Y1125219D01*
X900427Y1123000D01*
X900719Y1120781D01*
X901575Y1118713D01*
X902938Y1116938D01*
X904713Y1115575D01*
X906781Y1114719D01*
X909000Y1114427D01*
X911219Y1114719D01*
X913287Y1115575D01*
X915062Y1116938D01*
X916425Y1118713D01*
X917281Y1120781D01*
X917573Y1123000D01*
X917281Y1125219D01*
X916425Y1127287D01*
X915062Y1129062D01*
X913287Y1130425D01*
X911219Y1131281D01*
X909000Y1131573D01*
D02*
G37*
G36*
X942900Y1131500D02*
X925900D01*
Y1114500D01*
X942900D01*
Y1131500D01*
D02*
G37*
G36*
X1556500Y1145608D02*
X1533500D01*
X1530237Y1145178D01*
X1527196Y1143919D01*
X1524585Y1141915D01*
X1522581Y1139304D01*
X1521322Y1136263D01*
X1520892Y1133000D01*
X1521322Y1129737D01*
X1522581Y1126696D01*
X1524585Y1124085D01*
X1527196Y1122081D01*
X1530237Y1120822D01*
X1533500Y1120392D01*
X1556500D01*
X1559763Y1120822D01*
X1562804Y1122081D01*
X1565415Y1124085D01*
X1567419Y1126696D01*
X1568678Y1129737D01*
X1569108Y1133000D01*
X1568678Y1136263D01*
X1567419Y1139304D01*
X1565415Y1141915D01*
X1562804Y1143919D01*
X1559763Y1145178D01*
X1556500Y1145608D01*
D02*
G37*
G36*
X1151500Y1182078D02*
X1149150Y1181768D01*
X1146961Y1180862D01*
X1145081Y1179419D01*
X1143639Y1177539D01*
X1142732Y1175350D01*
X1142422Y1173000D01*
Y1157000D01*
X1142732Y1154650D01*
X1143639Y1152461D01*
X1145081Y1150581D01*
X1146961Y1149138D01*
X1149150Y1148232D01*
X1151500Y1147922D01*
X1153849Y1148232D01*
X1156039Y1149138D01*
X1157919Y1150581D01*
X1159361Y1152461D01*
X1160268Y1154650D01*
X1160578Y1157000D01*
Y1173000D01*
X1160268Y1175350D01*
X1159361Y1177539D01*
X1157919Y1179419D01*
X1156039Y1180862D01*
X1153849Y1181768D01*
X1151500Y1182078D01*
D02*
G37*
G36*
X1241000Y1168582D02*
X1238520Y1168255D01*
X1236209Y1167298D01*
X1234225Y1165776D01*
X1232702Y1163791D01*
X1231745Y1161480D01*
X1231418Y1159000D01*
X1231745Y1156520D01*
X1232702Y1154209D01*
X1234225Y1152225D01*
X1236209Y1150702D01*
X1238520Y1149745D01*
X1241000Y1149418D01*
X1243480Y1149745D01*
X1245791Y1150702D01*
X1247775Y1152225D01*
X1249298Y1154209D01*
X1250256Y1156520D01*
X1250582Y1159000D01*
X1250256Y1161480D01*
X1249298Y1163791D01*
X1247775Y1165776D01*
X1245791Y1167298D01*
X1243480Y1168255D01*
X1241000Y1168582D01*
D02*
G37*
G36*
X1391000Y1169582D02*
X1388520Y1169256D01*
X1386209Y1168298D01*
X1384225Y1166776D01*
X1382702Y1164791D01*
X1381745Y1162480D01*
X1381418Y1160000D01*
X1381745Y1157520D01*
X1382702Y1155209D01*
X1384225Y1153225D01*
X1386209Y1151702D01*
X1388520Y1150745D01*
X1391000Y1150418D01*
X1393480Y1150745D01*
X1395791Y1151702D01*
X1397776Y1153225D01*
X1399298Y1155209D01*
X1400255Y1157520D01*
X1400582Y1160000D01*
X1400255Y1162480D01*
X1399298Y1164791D01*
X1397776Y1166776D01*
X1395791Y1168298D01*
X1393480Y1169256D01*
X1391000Y1169582D01*
D02*
G37*
G36*
X1026500Y1182078D02*
X1024150Y1181768D01*
X1021961Y1180862D01*
X1020081Y1179419D01*
X1018639Y1177539D01*
X1017732Y1175350D01*
X1017422Y1173000D01*
Y1157000D01*
X1017732Y1154650D01*
X1018639Y1152461D01*
X1020081Y1150581D01*
X1021961Y1149138D01*
X1024150Y1148232D01*
X1026500Y1147922D01*
X1028849Y1148232D01*
X1031039Y1149138D01*
X1032919Y1150581D01*
X1034361Y1152461D01*
X1035268Y1154650D01*
X1035578Y1157000D01*
Y1173000D01*
X1035268Y1175350D01*
X1034361Y1177539D01*
X1032919Y1179419D01*
X1031039Y1180862D01*
X1028849Y1181768D01*
X1026500Y1182078D01*
D02*
G37*
G36*
X293730Y1157730D02*
X272476D01*
X272786Y1154581D01*
X274075Y1150333D01*
X276168Y1146417D01*
X278985Y1142985D01*
X282417Y1140168D01*
X286333Y1138075D01*
X290581Y1136786D01*
X293730Y1136476D01*
Y1157730D01*
D02*
G37*
G36*
X317524D02*
X296270D01*
Y1136476D01*
X299419Y1136786D01*
X303667Y1138075D01*
X307583Y1140168D01*
X311015Y1142985D01*
X313832Y1146417D01*
X315925Y1150333D01*
X317214Y1154581D01*
X317524Y1157730D01*
D02*
G37*
G36*
X1205000Y1178649D02*
X1202838Y1178219D01*
X1201006Y1176994D01*
X1199781Y1175162D01*
X1199352Y1173000D01*
X1199781Y1170838D01*
X1201006Y1169006D01*
X1202838Y1167781D01*
X1205000Y1167352D01*
X1207162Y1167781D01*
X1208994Y1169006D01*
X1210219Y1170838D01*
X1210243Y1170961D01*
X1286155D01*
X1326961Y1130155D01*
Y1062845D01*
X1202155Y938039D01*
X1067243D01*
X1067219Y938162D01*
X1065994Y939994D01*
X1064162Y941219D01*
X1062000Y941648D01*
X1059838Y941219D01*
X1058006Y939994D01*
X1056781Y938162D01*
X1056351Y936000D01*
X1056781Y933838D01*
X1058006Y932006D01*
X1059838Y930781D01*
X1062000Y930351D01*
X1064162Y930781D01*
X1065994Y932006D01*
X1067219Y933838D01*
X1067243Y933961D01*
X1203000D01*
X1203780Y934116D01*
X1204442Y934558D01*
X1330181Y1060297D01*
X1331207Y1059999D01*
X1331451Y1059821D01*
Y1017056D01*
X1320705Y1006309D01*
X1319000Y1006648D01*
X1316838Y1006219D01*
X1315006Y1004994D01*
X1313781Y1003162D01*
X1313351Y1001000D01*
X1313781Y998838D01*
X1315006Y997006D01*
X1316838Y995781D01*
X1319000Y995351D01*
X1321162Y995781D01*
X1322994Y997006D01*
X1324219Y998838D01*
X1324648Y1001000D01*
X1324309Y1002705D01*
X1335802Y1014198D01*
X1336355Y1015024D01*
X1336549Y1016000D01*
Y1104944D01*
X1375056Y1143451D01*
X1423000D01*
X1423976Y1143645D01*
X1424802Y1144198D01*
X1426721Y1146116D01*
X1428000Y1145861D01*
X1429966Y1146252D01*
X1431634Y1147366D01*
X1432748Y1149034D01*
X1433139Y1151000D01*
X1432748Y1152967D01*
X1431634Y1154634D01*
X1429966Y1155748D01*
X1428000Y1156139D01*
X1426033Y1155748D01*
X1424366Y1154634D01*
X1423252Y1152967D01*
X1422861Y1151000D01*
X1423116Y1149721D01*
X1421944Y1148549D01*
X1374000D01*
X1373024Y1148355D01*
X1372198Y1147802D01*
X1332309Y1107914D01*
X1331842Y1107972D01*
X1331039Y1108355D01*
Y1131000D01*
X1331039Y1131000D01*
X1330884Y1131780D01*
X1330442Y1132442D01*
X1288442Y1174442D01*
X1287780Y1174884D01*
X1287000Y1175039D01*
X1210243D01*
X1210219Y1175162D01*
X1208994Y1176994D01*
X1207162Y1178219D01*
X1205000Y1178649D01*
D02*
G37*
G36*
X883600Y1131573D02*
X881381Y1131281D01*
X879313Y1130425D01*
X877538Y1129062D01*
X876175Y1127287D01*
X875319Y1125219D01*
X875027Y1123000D01*
X875319Y1120781D01*
X875405Y1120573D01*
X836986Y1082153D01*
X824852D01*
X824806Y1082211D01*
X824391Y1083423D01*
X855773Y1114805D01*
X855981Y1114719D01*
X858200Y1114427D01*
X860419Y1114719D01*
X862487Y1115575D01*
X864262Y1116938D01*
X865625Y1118713D01*
X866481Y1120781D01*
X866773Y1123000D01*
X866481Y1125219D01*
X865625Y1127287D01*
X864262Y1129062D01*
X862487Y1130425D01*
X860419Y1131281D01*
X858200Y1131573D01*
X855981Y1131281D01*
X853913Y1130425D01*
X852138Y1129062D01*
X850775Y1127287D01*
X849919Y1125219D01*
X849627Y1123000D01*
X849919Y1120781D01*
X850005Y1120573D01*
X819511Y1090078D01*
X740868D01*
X739162Y1091219D01*
X737000Y1091648D01*
X734838Y1091219D01*
X733006Y1089994D01*
X731781Y1088162D01*
X731351Y1086000D01*
X731781Y1083838D01*
X732159Y1083273D01*
X731560Y1082153D01*
X684218D01*
X682512Y1083294D01*
X680350Y1083724D01*
X678188Y1083294D01*
X677190Y1082627D01*
X676381Y1083613D01*
X711689Y1118922D01*
X799889D01*
X799975Y1118713D01*
X801338Y1116938D01*
X803113Y1115575D01*
X805181Y1114719D01*
X807400Y1114427D01*
X809619Y1114719D01*
X811687Y1115575D01*
X813462Y1116938D01*
X814825Y1118713D01*
X815681Y1120781D01*
X815973Y1123000D01*
X815681Y1125219D01*
X814825Y1127287D01*
X813462Y1129062D01*
X811687Y1130425D01*
X809619Y1131281D01*
X807400Y1131573D01*
X805181Y1131281D01*
X803113Y1130425D01*
X801338Y1129062D01*
X799975Y1127287D01*
X799889Y1127078D01*
X710000D01*
X710000Y1127078D01*
X708439Y1126768D01*
X707116Y1125884D01*
X707116Y1125884D01*
X665311Y1084078D01*
X511591D01*
X511466Y1085348D01*
X512512Y1085556D01*
X514344Y1086781D01*
X515569Y1088613D01*
X515998Y1090775D01*
X515569Y1092937D01*
X514344Y1094769D01*
X512512Y1095993D01*
X510350Y1096423D01*
X508188Y1095993D01*
X506356Y1094769D01*
X505390Y1093324D01*
X390775D01*
X389799Y1093130D01*
X388973Y1092577D01*
X306198Y1009802D01*
X305645Y1008976D01*
X305451Y1008000D01*
Y982000D01*
X305645Y981025D01*
X306198Y980198D01*
X317652Y968744D01*
X316854Y966817D01*
X316549Y964500D01*
X316854Y962183D01*
X317748Y960024D01*
X319170Y958170D01*
X321024Y956748D01*
X323183Y955854D01*
X325500Y955548D01*
X327817Y955854D01*
X329976Y956748D01*
X331830Y958170D01*
X333252Y960024D01*
X334147Y962183D01*
X334452Y964500D01*
X334147Y966817D01*
X333252Y968976D01*
X331830Y970830D01*
X329976Y972252D01*
X327817Y973147D01*
X325500Y973452D01*
X323183Y973147D01*
X321256Y972348D01*
X310549Y983056D01*
Y1006944D01*
X391831Y1088226D01*
X505390D01*
X506356Y1086781D01*
X508188Y1085556D01*
X509235Y1085348D01*
X509109Y1084078D01*
X492000D01*
X490439Y1083768D01*
X489116Y1082884D01*
X489116Y1082884D01*
X450560Y1044327D01*
X449550Y1044528D01*
X449550Y1044528D01*
X382017D01*
X381713Y1045261D01*
X380184Y1047254D01*
X378191Y1048783D01*
X375870Y1049744D01*
X373380Y1050072D01*
X370890Y1049744D01*
X368569Y1048783D01*
X366576Y1047254D01*
X365047Y1045261D01*
X364086Y1042940D01*
X363758Y1040450D01*
X364086Y1037960D01*
X365047Y1035639D01*
X366576Y1033646D01*
X368569Y1032117D01*
X370890Y1031155D01*
X373380Y1030828D01*
X375870Y1031155D01*
X378191Y1032117D01*
X380184Y1033646D01*
X381713Y1035639D01*
X382017Y1036372D01*
X447861D01*
X448116Y1036116D01*
X448116Y1036116D01*
X449439Y1035232D01*
X451000Y1034922D01*
X452561Y1035232D01*
X453884Y1036116D01*
X493689Y1075922D01*
X667000D01*
X667000Y1075922D01*
X668561Y1076232D01*
X669884Y1077116D01*
X674812Y1082044D01*
X675798Y1081235D01*
X675132Y1080237D01*
X674702Y1078075D01*
X675132Y1075913D01*
X676356Y1074081D01*
X678188Y1072856D01*
X680350Y1072427D01*
X682512Y1072856D01*
X684218Y1073997D01*
X838675D01*
X838675Y1073997D01*
X840236Y1074307D01*
X841559Y1075191D01*
X881173Y1114805D01*
X881381Y1114719D01*
X883600Y1114427D01*
X885819Y1114719D01*
X887887Y1115575D01*
X889662Y1116938D01*
X891025Y1118713D01*
X891881Y1120781D01*
X892173Y1123000D01*
X891881Y1125219D01*
X891025Y1127287D01*
X889662Y1129062D01*
X887887Y1130425D01*
X885819Y1131281D01*
X883600Y1131573D01*
D02*
G37*
G36*
X1476270Y1074000D02*
Y1065270D01*
X1485000D01*
X1484821Y1066631D01*
X1483805Y1069083D01*
X1482189Y1071189D01*
X1480083Y1072805D01*
X1477631Y1073820D01*
X1476270Y1074000D01*
D02*
G37*
G36*
X1291000Y1084500D02*
X1276500D01*
Y1078039D01*
X1212243D01*
X1212219Y1078162D01*
X1210994Y1079994D01*
X1209162Y1081219D01*
X1207000Y1081648D01*
X1204838Y1081219D01*
X1203006Y1079994D01*
X1201781Y1078162D01*
X1201351Y1076000D01*
X1201781Y1073838D01*
X1203006Y1072006D01*
X1204838Y1070781D01*
X1207000Y1070351D01*
X1209162Y1070781D01*
X1210994Y1072006D01*
X1212219Y1073838D01*
X1212243Y1073961D01*
X1276500D01*
Y1067500D01*
X1291000D01*
Y1084500D01*
D02*
G37*
G36*
X1241000Y1098582D02*
X1238520Y1098255D01*
X1236209Y1097298D01*
X1234225Y1095776D01*
X1232702Y1093791D01*
X1231745Y1091480D01*
X1231418Y1089000D01*
X1231745Y1086520D01*
X1232702Y1084209D01*
X1234225Y1082225D01*
X1236209Y1080702D01*
X1238520Y1079745D01*
X1241000Y1079418D01*
X1243480Y1079745D01*
X1245791Y1080702D01*
X1247775Y1082225D01*
X1249298Y1084209D01*
X1250256Y1086520D01*
X1250582Y1089000D01*
X1250256Y1091480D01*
X1249298Y1093791D01*
X1247775Y1095776D01*
X1245791Y1097298D01*
X1243480Y1098255D01*
X1241000Y1098582D01*
D02*
G37*
G36*
X1473730Y1074000D02*
X1472369Y1073820D01*
X1469917Y1072805D01*
X1467811Y1071189D01*
X1466195Y1069083D01*
X1465179Y1066631D01*
X1465000Y1065270D01*
X1473730D01*
Y1074000D01*
D02*
G37*
G36*
X577445Y1063391D02*
Y1060795D01*
X580042D01*
X579981Y1061101D01*
X579088Y1062438D01*
X577751Y1063331D01*
X577445Y1063391D01*
D02*
G37*
G36*
X593255D02*
X592949Y1063331D01*
X591612Y1062438D01*
X590719Y1061101D01*
X590658Y1060795D01*
X593255D01*
Y1063391D01*
D02*
G37*
G36*
X595795D02*
Y1060795D01*
X598391D01*
X598331Y1061101D01*
X597438Y1062438D01*
X596101Y1063331D01*
X595795Y1063391D01*
D02*
G37*
G36*
X1483540Y1122540D02*
X1466460D01*
Y1114039D01*
X1461000D01*
X1460220Y1113884D01*
X1459558Y1113442D01*
X1387265Y1041149D01*
X1387162Y1041219D01*
X1385000Y1041648D01*
X1382838Y1041219D01*
X1381006Y1039994D01*
X1379781Y1038162D01*
X1379352Y1036000D01*
X1379781Y1033838D01*
X1381006Y1032006D01*
X1382838Y1030781D01*
X1385000Y1030351D01*
X1387162Y1030781D01*
X1388994Y1032006D01*
X1390219Y1033838D01*
X1390648Y1036000D01*
X1390219Y1038162D01*
X1390149Y1038265D01*
X1461845Y1109961D01*
X1466460D01*
Y1105460D01*
X1483540D01*
Y1122540D01*
D02*
G37*
G36*
X831530Y1121730D02*
X822841D01*
X823018Y1120379D01*
X824030Y1117937D01*
X825639Y1115839D01*
X827737Y1114230D01*
X830179Y1113218D01*
X831530Y1113041D01*
Y1121730D01*
D02*
G37*
G36*
X842759D02*
X834070D01*
Y1113041D01*
X835421Y1113218D01*
X837863Y1114230D01*
X839961Y1115839D01*
X841570Y1117937D01*
X842582Y1120379D01*
X842759Y1121730D01*
D02*
G37*
G36*
X1277000Y1153649D02*
X1274838Y1153219D01*
X1273006Y1151994D01*
X1271781Y1150162D01*
X1271351Y1148000D01*
X1271781Y1145838D01*
X1273006Y1144006D01*
X1274838Y1142781D01*
X1277000Y1142352D01*
X1279162Y1142781D01*
X1279265Y1142851D01*
X1280711Y1141405D01*
Y1115500D01*
X1275500D01*
Y1098500D01*
X1290000D01*
Y1115500D01*
X1284789D01*
Y1142250D01*
X1284634Y1143030D01*
X1284192Y1143692D01*
X1284192Y1143692D01*
X1282149Y1145735D01*
X1282219Y1145838D01*
X1282648Y1148000D01*
X1282219Y1150162D01*
X1280994Y1151994D01*
X1279162Y1153219D01*
X1277000Y1153649D01*
D02*
G37*
G36*
X1475000Y1097614D02*
X1472771Y1097320D01*
X1470693Y1096460D01*
X1468909Y1095091D01*
X1467540Y1093307D01*
X1466812Y1091549D01*
X1456000D01*
X1455025Y1091355D01*
X1454198Y1090802D01*
X1317198Y953802D01*
X1316645Y952975D01*
X1316451Y952000D01*
Y911960D01*
X1315006Y910994D01*
X1313781Y909162D01*
X1313351Y907000D01*
X1313781Y904838D01*
X1315006Y903006D01*
X1316838Y901781D01*
X1319000Y901351D01*
X1321162Y901781D01*
X1322994Y903006D01*
X1324219Y904838D01*
X1324648Y907000D01*
X1324219Y909162D01*
X1322994Y910994D01*
X1321549Y911960D01*
Y950944D01*
X1457056Y1086451D01*
X1466812D01*
X1467540Y1084693D01*
X1468909Y1082909D01*
X1470693Y1081540D01*
X1472771Y1080680D01*
X1475000Y1080386D01*
X1477229Y1080680D01*
X1479307Y1081540D01*
X1481091Y1082909D01*
X1482460Y1084693D01*
X1483320Y1086771D01*
X1483614Y1089000D01*
X1483320Y1091229D01*
X1482460Y1093307D01*
X1481091Y1095091D01*
X1479307Y1096460D01*
X1477229Y1097320D01*
X1475000Y1097614D01*
D02*
G37*
G36*
X1391000Y1099582D02*
X1388520Y1099256D01*
X1386209Y1098298D01*
X1384225Y1096776D01*
X1382702Y1094791D01*
X1381745Y1092480D01*
X1381418Y1090000D01*
X1381745Y1087520D01*
X1382702Y1085209D01*
X1384225Y1083225D01*
X1386209Y1081702D01*
X1388520Y1080744D01*
X1391000Y1080418D01*
X1393480Y1080744D01*
X1395791Y1081702D01*
X1397776Y1083225D01*
X1399298Y1085209D01*
X1400255Y1087520D01*
X1400582Y1090000D01*
X1400255Y1092480D01*
X1399298Y1094791D01*
X1397776Y1096776D01*
X1395791Y1098298D01*
X1393480Y1099256D01*
X1391000Y1099582D01*
D02*
G37*
G36*
X1067000Y1098078D02*
X1067000Y1098078D01*
X1028000D01*
X1028000Y1098078D01*
X1026439Y1097768D01*
X1025116Y1096884D01*
X1013116Y1084884D01*
X1012232Y1083561D01*
X1011922Y1082000D01*
X1011922Y1082000D01*
Y1078511D01*
X1011713Y1078425D01*
X1009938Y1077062D01*
X1008575Y1075287D01*
X1007719Y1073219D01*
X1007427Y1071000D01*
X1007719Y1068781D01*
X1008575Y1066713D01*
X1009938Y1064938D01*
X1011713Y1063575D01*
X1013781Y1062719D01*
X1016000Y1062427D01*
X1018219Y1062719D01*
X1020287Y1063575D01*
X1022062Y1064938D01*
X1023425Y1066713D01*
X1024281Y1068781D01*
X1024573Y1071000D01*
X1024281Y1073219D01*
X1023425Y1075287D01*
X1022062Y1077062D01*
X1020287Y1078425D01*
X1020078Y1078511D01*
Y1080311D01*
X1029689Y1089922D01*
X1065311D01*
X1123116Y1032116D01*
X1123116Y1032116D01*
X1124439Y1031232D01*
X1126000Y1030922D01*
X1126000Y1030922D01*
X1158932D01*
X1159229Y1030723D01*
X1161000Y1030371D01*
X1162771Y1030723D01*
X1164273Y1031727D01*
X1165277Y1033229D01*
X1165629Y1035000D01*
X1165277Y1036771D01*
X1164273Y1038273D01*
X1162771Y1039277D01*
X1161000Y1039629D01*
X1159229Y1039277D01*
X1158932Y1039078D01*
X1127689D01*
X1069884Y1096884D01*
X1068561Y1097768D01*
X1068302Y1097819D01*
X1067000Y1098078D01*
D02*
G37*
G36*
X602430Y1035866D02*
X602124Y1035806D01*
X600787Y1034913D01*
X599894Y1033576D01*
X599833Y1033270D01*
X602430D01*
Y1035866D01*
D02*
G37*
G36*
X290838Y963230D02*
X281770D01*
Y954162D01*
X283219Y954353D01*
X285752Y955403D01*
X287928Y957072D01*
X289597Y959248D01*
X290647Y961781D01*
X290838Y963230D01*
D02*
G37*
G36*
X1289000Y971573D02*
X1286781Y971281D01*
X1284713Y970425D01*
X1282938Y969062D01*
X1281575Y967287D01*
X1280719Y965219D01*
X1280427Y963000D01*
X1280719Y960781D01*
X1281575Y958713D01*
X1282938Y956938D01*
X1284713Y955575D01*
X1286781Y954719D01*
X1289000Y954427D01*
X1291219Y954719D01*
X1293287Y955575D01*
X1295062Y956938D01*
X1296425Y958713D01*
X1297281Y960781D01*
X1297573Y963000D01*
X1297281Y965219D01*
X1296425Y967287D01*
X1295062Y969062D01*
X1293287Y970425D01*
X1291219Y971281D01*
X1289000Y971573D01*
D02*
G37*
G36*
X1324500Y1115500D02*
X1310000D01*
Y1098500D01*
X1314701D01*
Y1084500D01*
X1311000D01*
Y1072355D01*
X1204194Y965549D01*
X1065960D01*
X1064994Y966994D01*
X1063162Y968219D01*
X1061000Y968649D01*
X1058838Y968219D01*
X1057006Y966994D01*
X1055781Y965162D01*
X1055351Y963000D01*
X1055781Y960838D01*
X1057006Y959006D01*
X1058838Y957781D01*
X1061000Y957352D01*
X1063162Y957781D01*
X1064994Y959006D01*
X1065960Y960451D01*
X1205250D01*
X1206226Y960645D01*
X1207052Y961198D01*
X1313355Y1067500D01*
X1325500D01*
Y1084500D01*
X1319799D01*
Y1098500D01*
X1324500D01*
Y1115500D01*
D02*
G37*
G36*
X279230Y963230D02*
X270162D01*
X270353Y961781D01*
X271403Y959248D01*
X273072Y957072D01*
X275248Y955403D01*
X277781Y954353D01*
X279230Y954162D01*
Y963230D01*
D02*
G37*
G36*
X1568730Y966730D02*
X1558360D01*
Y959000D01*
X1558757Y955987D01*
X1559920Y953180D01*
X1561770Y950770D01*
X1564180Y948920D01*
X1566987Y947757D01*
X1568730Y947528D01*
Y966730D01*
D02*
G37*
G36*
X1581640D02*
X1571270D01*
Y947528D01*
X1573013Y947757D01*
X1575820Y948920D01*
X1578230Y950770D01*
X1580080Y953180D01*
X1581243Y955987D01*
X1581640Y959000D01*
Y966730D01*
D02*
G37*
G36*
X908730Y956230D02*
X905624D01*
X905723Y955729D01*
X906727Y954227D01*
X908229Y953223D01*
X908730Y953124D01*
Y956230D01*
D02*
G37*
G36*
X1571270Y988472D02*
Y969270D01*
X1581640D01*
Y977000D01*
X1581243Y980013D01*
X1580080Y982820D01*
X1578230Y985230D01*
X1575820Y987080D01*
X1573013Y988243D01*
X1571270Y988472D01*
D02*
G37*
G36*
X1049900Y1079500D02*
X1032900D01*
Y1062500D01*
X1043895D01*
X1089451Y1016944D01*
Y987757D01*
X1088727Y987273D01*
X1087723Y985771D01*
X1087371Y984000D01*
X1087723Y982229D01*
X1088727Y980727D01*
X1090229Y979723D01*
X1092000Y979371D01*
X1093771Y979723D01*
X1095273Y980727D01*
X1096277Y982229D01*
X1096629Y984000D01*
X1096277Y985771D01*
X1095273Y987273D01*
X1094549Y987757D01*
Y1018000D01*
X1094355Y1018975D01*
X1093802Y1019802D01*
X1049900Y1063705D01*
Y1079500D01*
D02*
G37*
G36*
X296270Y1181524D02*
Y1160270D01*
X317524D01*
X317214Y1163419D01*
X315925Y1167667D01*
X313832Y1171583D01*
X311015Y1175015D01*
X307583Y1177832D01*
X303667Y1179925D01*
X299419Y1181214D01*
X296270Y1181524D01*
D02*
G37*
G36*
X1568730Y988472D02*
X1566987Y988243D01*
X1564180Y987080D01*
X1561770Y985230D01*
X1559920Y982820D01*
X1558757Y980013D01*
X1558360Y977000D01*
Y969270D01*
X1568730D01*
Y988472D01*
D02*
G37*
G36*
X279230Y974838D02*
X277781Y974647D01*
X275248Y973597D01*
X273072Y971928D01*
X271403Y969752D01*
X270353Y967219D01*
X270162Y965770D01*
X279230D01*
Y974838D01*
D02*
G37*
G36*
X281770D02*
Y965770D01*
X290838D01*
X290647Y967219D01*
X289597Y969752D01*
X287928Y971928D01*
X285752Y973597D01*
X283219Y974647D01*
X281770Y974838D01*
D02*
G37*
G36*
X439999Y976647D02*
X437837Y976217D01*
X436005Y974992D01*
X434781Y973160D01*
X434351Y970998D01*
X434404Y970730D01*
X430983Y967309D01*
X381357D01*
X380840Y968557D01*
X379471Y970341D01*
X377687Y971710D01*
X375609Y972570D01*
X373380Y972864D01*
X371151Y972570D01*
X369073Y971710D01*
X367289Y970341D01*
X365920Y968557D01*
X365060Y966479D01*
X364766Y964250D01*
X365060Y962021D01*
X365920Y959943D01*
X367289Y958159D01*
X369073Y956790D01*
X371151Y955930D01*
X373380Y955636D01*
X375609Y955930D01*
X376857Y956447D01*
X518467Y814837D01*
X519459Y814174D01*
X520630Y813941D01*
X540982D01*
X541366Y813366D01*
X543033Y812252D01*
X545000Y811861D01*
X546967Y812252D01*
X547691Y812736D01*
X548961Y812058D01*
Y758161D01*
X547691Y757635D01*
X522163Y783163D01*
X521171Y783826D01*
X520000Y784059D01*
X520000Y784059D01*
X454267D01*
X380467Y857858D01*
X380840Y858343D01*
X381700Y860421D01*
X381994Y862650D01*
X381700Y864879D01*
X380840Y866957D01*
X379471Y868741D01*
X377687Y870110D01*
X375609Y870970D01*
X373380Y871264D01*
X371151Y870970D01*
X369073Y870110D01*
X367289Y868741D01*
X365920Y866957D01*
X365060Y864879D01*
X364766Y862650D01*
X365060Y860421D01*
X365920Y858343D01*
X367289Y856559D01*
X369073Y855190D01*
X371151Y854330D01*
X373380Y854036D01*
X375375Y854299D01*
X450837Y778837D01*
X450837Y778837D01*
X451829Y778174D01*
X453000Y777941D01*
X453000Y777941D01*
X518733D01*
X586571Y710103D01*
X586352Y709000D01*
X586782Y706838D01*
X588006Y705006D01*
X589470Y704028D01*
X590116Y702709D01*
X589961Y701929D01*
Y483845D01*
X577198Y471082D01*
X576976Y471252D01*
X574817Y472146D01*
X572500Y472452D01*
X570183Y472146D01*
X568024Y471252D01*
X566170Y469830D01*
X564748Y467976D01*
X563853Y465817D01*
X563548Y463500D01*
X563853Y461183D01*
X564748Y459024D01*
X566170Y457170D01*
X568024Y455748D01*
X570183Y454853D01*
X572500Y454548D01*
X574817Y454853D01*
X576976Y455748D01*
X578830Y457170D01*
X580252Y459024D01*
X581147Y461183D01*
X581452Y463500D01*
X581147Y465817D01*
X580252Y467976D01*
X580082Y468198D01*
X593442Y481558D01*
X593884Y482220D01*
X594039Y483000D01*
X594039Y483000D01*
Y701084D01*
X598442Y705487D01*
X598652Y705801D01*
X599922Y705416D01*
Y623850D01*
X599922Y623850D01*
X600232Y622289D01*
X601116Y620966D01*
X622654Y599428D01*
X622723Y599079D01*
X623727Y597577D01*
X625229Y596573D01*
X627000Y596221D01*
X628771Y596573D01*
X630273Y597577D01*
X631277Y599079D01*
X631629Y600850D01*
X631277Y602621D01*
X630273Y604123D01*
X628771Y605127D01*
X628422Y605196D01*
X608078Y625539D01*
Y807311D01*
X622689Y821922D01*
X642932D01*
X643229Y821723D01*
X645000Y821371D01*
X646771Y821723D01*
X648273Y822727D01*
X649277Y824229D01*
X649629Y826000D01*
X649277Y827771D01*
X648273Y829273D01*
X646771Y830277D01*
X645000Y830629D01*
X643229Y830277D01*
X642932Y830078D01*
X621000D01*
X619439Y829768D01*
X618116Y828884D01*
X618116Y828884D01*
X601116Y811884D01*
X600232Y810561D01*
X599922Y809000D01*
X599922Y809000D01*
Y712584D01*
X598652Y712199D01*
X598442Y712513D01*
X598442Y712513D01*
X553039Y757916D01*
Y820000D01*
X553039Y820000D01*
X552884Y820780D01*
X552442Y821442D01*
X552442Y821442D01*
X478039Y895845D01*
Y940155D01*
X499620Y961736D01*
X505107D01*
X505131Y961613D01*
X506356Y959781D01*
X508188Y958556D01*
X510350Y958127D01*
X512512Y958556D01*
X514344Y959781D01*
X515569Y961613D01*
X515998Y963775D01*
X515569Y965937D01*
X514344Y967769D01*
X512512Y968994D01*
X510350Y969424D01*
X508188Y968994D01*
X506356Y967769D01*
X505131Y965937D01*
X505107Y965814D01*
X498775D01*
X497995Y965659D01*
X497333Y965217D01*
X497333Y965217D01*
X474558Y942442D01*
X474116Y941780D01*
X473961Y941000D01*
Y895000D01*
X474116Y894220D01*
X474558Y893558D01*
X544735Y823381D01*
X544317Y822003D01*
X543033Y821748D01*
X541366Y820634D01*
X540982Y820059D01*
X521897D01*
X382034Y959921D01*
X382561Y961191D01*
X432250D01*
X432250Y961191D01*
X433420Y961424D01*
X434413Y962087D01*
X438061Y965735D01*
X439999Y965350D01*
X442161Y965779D01*
X443993Y967004D01*
X445218Y968837D01*
X445648Y970998D01*
X445218Y973160D01*
X443993Y974992D01*
X442161Y976217D01*
X439999Y976647D01*
D02*
G37*
G36*
X1510000Y989095D02*
X1507128Y988717D01*
X1504453Y987608D01*
X1502155Y985845D01*
X1500392Y983547D01*
X1499283Y980872D01*
X1498905Y978000D01*
Y958000D01*
X1499283Y955128D01*
X1500392Y952453D01*
X1502155Y950155D01*
X1504453Y948391D01*
X1507128Y947283D01*
X1510000Y946905D01*
X1512872Y947283D01*
X1515547Y948391D01*
X1517845Y950155D01*
X1519608Y952453D01*
X1520717Y955128D01*
X1521095Y958000D01*
Y978000D01*
X1520717Y980872D01*
X1519608Y983547D01*
X1517845Y985845D01*
X1515547Y987608D01*
X1512872Y988717D01*
X1510000Y989095D01*
D02*
G37*
G36*
X1484730Y910040D02*
X1477210D01*
Y901270D01*
X1484730D01*
Y910040D01*
D02*
G37*
G36*
X1494790D02*
X1487270D01*
Y901270D01*
X1494790D01*
Y910040D01*
D02*
G37*
G36*
X373380Y922064D02*
X371151Y921770D01*
X369073Y920910D01*
X367289Y919541D01*
X365920Y917757D01*
X365060Y915679D01*
X364766Y913450D01*
X365060Y911221D01*
X365920Y909143D01*
X367289Y907359D01*
X369073Y905990D01*
X371151Y905130D01*
X373380Y904836D01*
X375609Y905130D01*
X377687Y905990D01*
X379471Y907359D01*
X380840Y909143D01*
X381700Y911221D01*
X381994Y913450D01*
X381700Y915679D01*
X380840Y917757D01*
X379471Y919541D01*
X377687Y920910D01*
X375609Y921770D01*
X373380Y922064D01*
D02*
G37*
G36*
X281770Y909838D02*
Y900770D01*
X290838D01*
X290647Y902219D01*
X289597Y904752D01*
X287928Y906928D01*
X285752Y908597D01*
X283219Y909647D01*
X281770Y909838D01*
D02*
G37*
G36*
X1494790Y898730D02*
X1487270D01*
Y889960D01*
X1494790D01*
Y898730D01*
D02*
G37*
G36*
X325500Y908452D02*
X323183Y908147D01*
X321024Y907252D01*
X319170Y905830D01*
X317748Y903976D01*
X316854Y901817D01*
X316549Y899500D01*
X316854Y897183D01*
X317748Y895024D01*
X319170Y893170D01*
X321024Y891748D01*
X323183Y890854D01*
X325500Y890548D01*
X327817Y890854D01*
X329976Y891748D01*
X331830Y893170D01*
X333252Y895024D01*
X334147Y897183D01*
X334452Y899500D01*
X334147Y901817D01*
X333252Y903976D01*
X331830Y905830D01*
X329976Y907252D01*
X327817Y908147D01*
X325500Y908452D01*
D02*
G37*
G36*
X279230Y909838D02*
X277781Y909647D01*
X275248Y908597D01*
X273072Y906928D01*
X271403Y904752D01*
X270353Y902219D01*
X270162Y900770D01*
X279230D01*
Y909838D01*
D02*
G37*
G36*
X1550000Y930639D02*
X1542270D01*
Y920270D01*
X1561472D01*
X1561243Y922012D01*
X1560080Y924820D01*
X1558230Y927230D01*
X1555820Y929080D01*
X1553013Y930243D01*
X1550000Y930639D01*
D02*
G37*
G36*
X1297500Y946100D02*
X1280500D01*
Y929100D01*
X1297500D01*
Y946100D01*
D02*
G37*
G36*
X373380Y947464D02*
X371151Y947170D01*
X369073Y946310D01*
X367289Y944941D01*
X365920Y943157D01*
X365060Y941079D01*
X364766Y938850D01*
X365060Y936621D01*
X365920Y934543D01*
X367289Y932759D01*
X369073Y931390D01*
X371151Y930530D01*
X373380Y930236D01*
X375609Y930530D01*
X377687Y931390D01*
X379471Y932759D01*
X380840Y934543D01*
X381700Y936621D01*
X381994Y938850D01*
X381700Y941079D01*
X380840Y943157D01*
X379471Y944941D01*
X377687Y946310D01*
X375609Y947170D01*
X373380Y947464D01*
D02*
G37*
G36*
X1539730Y930639D02*
X1532000D01*
X1528987Y930243D01*
X1526180Y929080D01*
X1523770Y927230D01*
X1521920Y924820D01*
X1520757Y922012D01*
X1520528Y920270D01*
X1539730D01*
Y930639D01*
D02*
G37*
G36*
Y917730D02*
X1520528D01*
X1520757Y915987D01*
X1521920Y913180D01*
X1523770Y910770D01*
X1526180Y908920D01*
X1528987Y907757D01*
X1532000Y907360D01*
X1539730D01*
Y917730D01*
D02*
G37*
G36*
X1561472D02*
X1542270D01*
Y907360D01*
X1550000D01*
X1553013Y907757D01*
X1555820Y908920D01*
X1558230Y910770D01*
X1560080Y913180D01*
X1561243Y915987D01*
X1561472Y917730D01*
D02*
G37*
G36*
X706000Y923649D02*
X703838Y923219D01*
X702006Y921994D01*
X700781Y920162D01*
X700351Y918000D01*
X699563Y917039D01*
X630243D01*
X630219Y917162D01*
X628994Y918994D01*
X627162Y920219D01*
X625000Y920648D01*
X622838Y920219D01*
X621006Y918994D01*
X619781Y917162D01*
X619352Y915000D01*
X619781Y912838D01*
X621006Y911006D01*
X622838Y909781D01*
X625000Y909352D01*
X627162Y909781D01*
X628994Y911006D01*
X630219Y912838D01*
X630243Y912961D01*
X703000D01*
X703439Y913048D01*
X703838Y912781D01*
X706000Y912352D01*
X708162Y912781D01*
X709994Y914006D01*
X711219Y915838D01*
X711648Y918000D01*
X711219Y920162D01*
X709994Y921994D01*
X708162Y923219D01*
X706000Y923649D01*
D02*
G37*
G36*
X293730Y1181524D02*
X290581Y1181214D01*
X286333Y1179925D01*
X282417Y1177832D01*
X278985Y1175015D01*
X276168Y1171583D01*
X274075Y1167667D01*
X272786Y1163419D01*
X272476Y1160270D01*
X293730D01*
Y1181524D01*
D02*
G37*
G36*
X570867Y1030730D02*
X568270D01*
Y1028133D01*
X568576Y1028194D01*
X569913Y1029087D01*
X570806Y1030424D01*
X570867Y1030730D01*
D02*
G37*
G36*
X584080D02*
X581483D01*
X581544Y1030424D01*
X582437Y1029087D01*
X583774Y1028194D01*
X584080Y1028133D01*
Y1030730D01*
D02*
G37*
G36*
X589216D02*
X586620D01*
Y1028133D01*
X586926Y1028194D01*
X588263Y1029087D01*
X589156Y1030424D01*
X589216Y1030730D01*
D02*
G37*
G36*
X565730D02*
X563134D01*
X563194Y1030424D01*
X564087Y1029087D01*
X565424Y1028194D01*
X565730Y1028133D01*
Y1030730D01*
D02*
G37*
G36*
X577445Y1026692D02*
Y1024095D01*
X580042D01*
X579981Y1024401D01*
X579088Y1025738D01*
X577751Y1026631D01*
X577445Y1026692D01*
D02*
G37*
G36*
X593255D02*
X592949Y1026631D01*
X591612Y1025738D01*
X590719Y1024401D01*
X590658Y1024095D01*
X593255D01*
Y1026692D01*
D02*
G37*
G36*
X595795D02*
Y1024095D01*
X598391D01*
X598331Y1024401D01*
X597438Y1025738D01*
X596101Y1026631D01*
X595795Y1026692D01*
D02*
G37*
G36*
X568270Y1035866D02*
Y1033270D01*
X570867D01*
X570806Y1033576D01*
X569913Y1034913D01*
X568576Y1035806D01*
X568270Y1035866D01*
D02*
G37*
G36*
X584080D02*
X583774Y1035806D01*
X582437Y1034913D01*
X581544Y1033576D01*
X581483Y1033270D01*
X584080D01*
Y1035866D01*
D02*
G37*
G36*
X586620D02*
Y1033270D01*
X589216D01*
X589156Y1033576D01*
X588263Y1034913D01*
X586926Y1035806D01*
X586620Y1035866D01*
D02*
G37*
G36*
X565730D02*
X565424Y1035806D01*
X564087Y1034913D01*
X563194Y1033576D01*
X563134Y1033270D01*
X565730D01*
Y1035866D01*
D02*
G37*
G36*
X602430Y1030730D02*
X599833D01*
X599894Y1030424D01*
X600787Y1029087D01*
X602124Y1028194D01*
X602430Y1028133D01*
Y1030730D01*
D02*
G37*
G36*
X607566D02*
X604970D01*
Y1028133D01*
X605276Y1028194D01*
X606613Y1029087D01*
X607506Y1030424D01*
X607566Y1030730D01*
D02*
G37*
G36*
X1556500Y1057608D02*
X1533500D01*
X1530237Y1057178D01*
X1527196Y1055919D01*
X1524585Y1053915D01*
X1522581Y1051304D01*
X1521322Y1048263D01*
X1520892Y1045000D01*
X1521322Y1041737D01*
X1522581Y1038696D01*
X1524585Y1036085D01*
X1527196Y1034081D01*
X1530237Y1032822D01*
X1533500Y1032392D01*
X1556500D01*
X1559763Y1032822D01*
X1562804Y1034081D01*
X1565415Y1036085D01*
X1567419Y1038696D01*
X1568678Y1041737D01*
X1569108Y1045000D01*
X1568678Y1048263D01*
X1567419Y1051304D01*
X1565415Y1053915D01*
X1562804Y1055919D01*
X1559763Y1057178D01*
X1556500Y1057608D01*
D02*
G37*
G36*
X574905Y1026692D02*
X574599Y1026631D01*
X573262Y1025738D01*
X572369Y1024401D01*
X572309Y1024095D01*
X574905D01*
Y1026692D01*
D02*
G37*
G36*
X372110Y1013780D02*
X364934D01*
X365060Y1012821D01*
X365920Y1010743D01*
X367289Y1008959D01*
X369073Y1007590D01*
X371151Y1006730D01*
X372110Y1006603D01*
Y1013780D01*
D02*
G37*
G36*
X381827D02*
X374650D01*
Y1006603D01*
X375609Y1006730D01*
X377687Y1007590D01*
X379471Y1008959D01*
X380840Y1010743D01*
X381700Y1012821D01*
X381827Y1013780D01*
D02*
G37*
G36*
X1089000Y1173109D02*
X1086901Y1172833D01*
X1084945Y1172023D01*
X1083266Y1170734D01*
X1081977Y1169055D01*
X1081167Y1167099D01*
X1080891Y1165000D01*
X1081167Y1162901D01*
X1081977Y1160945D01*
X1083266Y1159266D01*
X1084945Y1157977D01*
X1086901Y1157167D01*
X1089000Y1156891D01*
X1091099Y1157167D01*
X1093055Y1157977D01*
X1094734Y1159266D01*
X1096023Y1160945D01*
X1096833Y1162901D01*
X1097109Y1165000D01*
X1096833Y1167099D01*
X1096023Y1169055D01*
X1094734Y1170734D01*
X1093055Y1172023D01*
X1091099Y1172833D01*
X1089000Y1173109D01*
D02*
G37*
G36*
X1127040Y1173040D02*
X1110960D01*
Y1156960D01*
X1127040D01*
Y1173040D01*
D02*
G37*
G36*
X1625270Y1180524D02*
Y1159270D01*
X1646524D01*
X1646214Y1162419D01*
X1644925Y1166667D01*
X1642832Y1170583D01*
X1640015Y1174015D01*
X1636583Y1176832D01*
X1632667Y1178925D01*
X1628419Y1180214D01*
X1625270Y1180524D01*
D02*
G37*
G36*
X1354000Y1082139D02*
X1352034Y1081748D01*
X1350366Y1080634D01*
X1349252Y1078967D01*
X1348861Y1077000D01*
X1349252Y1075033D01*
X1350366Y1073366D01*
X1351451Y1072642D01*
Y1030056D01*
X1340198Y1018802D01*
X1339645Y1017975D01*
X1339451Y1017000D01*
Y1004960D01*
X1338006Y1003994D01*
X1336781Y1002162D01*
X1336351Y1000000D01*
X1336781Y997838D01*
X1338006Y996006D01*
X1339838Y994781D01*
X1342000Y994352D01*
X1344162Y994781D01*
X1345994Y996006D01*
X1347219Y997838D01*
X1347648Y1000000D01*
X1347219Y1002162D01*
X1345994Y1003994D01*
X1344549Y1004960D01*
Y1015944D01*
X1355802Y1027198D01*
X1356355Y1028025D01*
X1356549Y1029000D01*
Y1072642D01*
X1357634Y1073366D01*
X1358748Y1075033D01*
X1359139Y1077000D01*
X1358748Y1078967D01*
X1357634Y1080634D01*
X1355966Y1081748D01*
X1354000Y1082139D01*
D02*
G37*
G36*
X1622730Y1180524D02*
X1619581Y1180214D01*
X1615333Y1178925D01*
X1611417Y1176832D01*
X1607985Y1174015D01*
X1605168Y1170583D01*
X1603075Y1166667D01*
X1601786Y1162419D01*
X1601476Y1159270D01*
X1622730D01*
Y1180524D01*
D02*
G37*
G36*
X593255Y1021555D02*
X590658D01*
X590719Y1021249D01*
X591612Y1019912D01*
X592949Y1019019D01*
X593255Y1018959D01*
Y1021555D01*
D02*
G37*
G36*
X598391D02*
X595795D01*
Y1018959D01*
X596101Y1019019D01*
X597438Y1019912D01*
X598331Y1021249D01*
X598391Y1021555D01*
D02*
G37*
G36*
X680350Y1058324D02*
X678188Y1057894D01*
X676356Y1056669D01*
X675132Y1054837D01*
X674702Y1052675D01*
X675132Y1050513D01*
X675595Y1049819D01*
X674917Y1048549D01*
X648000D01*
X647025Y1048355D01*
X646198Y1047802D01*
X638198Y1039802D01*
X637645Y1038975D01*
X637451Y1038000D01*
Y1037960D01*
X636006Y1036994D01*
X634781Y1035162D01*
X634352Y1033000D01*
X634781Y1030838D01*
X636006Y1029006D01*
X637838Y1027781D01*
X640000Y1027352D01*
X642162Y1027781D01*
X643994Y1029006D01*
X645219Y1030838D01*
X645648Y1033000D01*
X645219Y1035162D01*
X643994Y1036994D01*
X643990Y1036997D01*
X643866Y1038261D01*
X649056Y1043451D01*
X860744D01*
X861429Y1042181D01*
X861019Y1041549D01*
X832100D01*
X831125Y1041355D01*
X830298Y1040802D01*
X812119Y1022624D01*
X685433D01*
X684754Y1023894D01*
X685569Y1025113D01*
X685999Y1027275D01*
X685569Y1029437D01*
X684344Y1031269D01*
X682512Y1032494D01*
X680350Y1032924D01*
X678188Y1032494D01*
X676356Y1031269D01*
X675132Y1029437D01*
X674702Y1027275D01*
X675132Y1025113D01*
X675946Y1023894D01*
X675267Y1022624D01*
X628308D01*
X627634Y1023634D01*
X625966Y1024748D01*
X624000Y1025139D01*
X622034Y1024748D01*
X620366Y1023634D01*
X619252Y1021966D01*
X618861Y1020000D01*
X619252Y1018034D01*
X619493Y1017674D01*
X618894Y1016554D01*
X538956D01*
X537994Y1017994D01*
X536162Y1019219D01*
X534000Y1019649D01*
X531838Y1019219D01*
X530006Y1017994D01*
X528781Y1016162D01*
X528352Y1014000D01*
X528686Y1012319D01*
X527898Y1011049D01*
X516975D01*
X516063Y1010868D01*
X515869Y1011012D01*
X515183Y1011837D01*
X515569Y1012413D01*
X515998Y1014575D01*
X515569Y1016737D01*
X514344Y1018569D01*
X512512Y1019793D01*
X510350Y1020223D01*
X508188Y1019793D01*
X506356Y1018569D01*
X505131Y1016737D01*
X504701Y1014575D01*
X505131Y1012413D01*
X506356Y1010581D01*
X508188Y1009356D01*
X510350Y1008926D01*
X512411Y1009336D01*
X512485Y1009279D01*
X512737Y1008140D01*
X511836Y1007228D01*
X510350Y1007523D01*
X508188Y1007094D01*
X506356Y1005869D01*
X505131Y1004037D01*
X504701Y1001875D01*
X505131Y999713D01*
X506356Y997881D01*
X508188Y996656D01*
X510350Y996227D01*
X512512Y996656D01*
X514344Y997881D01*
X515569Y999713D01*
X515998Y1001875D01*
X515659Y1003580D01*
X518031Y1005951D01*
X540326D01*
X540797Y1004681D01*
X539781Y1003162D01*
X539352Y1001000D01*
X539781Y998838D01*
X541006Y997006D01*
X542838Y995781D01*
X545000Y995351D01*
X547162Y995781D01*
X548994Y997006D01*
X550219Y998838D01*
X550243Y998961D01*
X643155D01*
X661558Y980558D01*
X662220Y980116D01*
X663000Y979961D01*
X674669D01*
X675268Y978841D01*
X675132Y978637D01*
X674702Y976475D01*
X675132Y974313D01*
X676356Y972481D01*
X678188Y971256D01*
X680350Y970826D01*
X682512Y971256D01*
X684344Y972481D01*
X685569Y974313D01*
X685593Y974436D01*
X694680D01*
X717961Y951155D01*
Y891000D01*
X718116Y890220D01*
X718558Y889558D01*
X757961Y850155D01*
Y555500D01*
X758116Y554720D01*
X758558Y554058D01*
X844418Y468198D01*
X844248Y467976D01*
X843354Y465817D01*
X843048Y463500D01*
X843354Y461183D01*
X844248Y459024D01*
X845670Y457170D01*
X847524Y455748D01*
X849683Y454853D01*
X852000Y454548D01*
X854317Y454853D01*
X856476Y455748D01*
X858330Y457170D01*
X859752Y459024D01*
X860647Y461183D01*
X860952Y463500D01*
X860647Y465817D01*
X859752Y467976D01*
X858330Y469830D01*
X856476Y471252D01*
X854317Y472146D01*
X852000Y472452D01*
X849683Y472146D01*
X847524Y471252D01*
X847302Y471082D01*
X762039Y556345D01*
Y623418D01*
X763213Y623904D01*
X913914Y473202D01*
X913616Y471704D01*
X912524Y471252D01*
X910670Y469830D01*
X909248Y467976D01*
X908354Y465817D01*
X908048Y463500D01*
X908354Y461183D01*
X909248Y459024D01*
X910670Y457170D01*
X912524Y455748D01*
X914683Y454853D01*
X917000Y454548D01*
X919317Y454853D01*
X921476Y455748D01*
X923330Y457170D01*
X924752Y459024D01*
X925647Y461183D01*
X925936Y463384D01*
X926500Y463770D01*
X927066Y464050D01*
X929058Y462058D01*
X929058Y462058D01*
X929720Y461616D01*
X930500Y461461D01*
X930500Y461461D01*
X1122817D01*
X1122853Y461183D01*
X1123748Y459024D01*
X1125170Y457170D01*
X1127024Y455748D01*
X1129183Y454853D01*
X1131500Y454548D01*
X1133817Y454853D01*
X1135976Y455748D01*
X1137830Y457170D01*
X1139252Y459024D01*
X1140146Y461183D01*
X1140452Y463500D01*
X1140146Y465817D01*
X1139252Y467976D01*
X1137830Y469830D01*
X1135976Y471252D01*
X1133817Y472146D01*
X1131500Y472452D01*
X1129183Y472146D01*
X1127024Y471252D01*
X1125170Y469830D01*
X1123748Y467976D01*
X1122853Y465817D01*
X1122817Y465539D01*
X931345D01*
X928820Y468064D01*
X928759Y468371D01*
X928317Y469032D01*
X928317Y469032D01*
X922532Y474817D01*
X921871Y475259D01*
X921090Y475414D01*
X917470D01*
X765039Y627845D01*
Y852243D01*
X765039Y852243D01*
X764884Y853023D01*
X764442Y853685D01*
X764442Y853685D01*
X727039Y891087D01*
Y905841D01*
X728309Y906152D01*
X728558Y905780D01*
X1117405Y516933D01*
X1117405Y516933D01*
X1118066Y516491D01*
X1118847Y516336D01*
X1118847Y516336D01*
X1122784D01*
X1123410Y515066D01*
X1122402Y513752D01*
X1121353Y511219D01*
X1121162Y509770D01*
X1131500D01*
X1141838D01*
X1141647Y511219D01*
X1140598Y513752D01*
X1139590Y515066D01*
X1140216Y516336D01*
X1187784D01*
X1188410Y515066D01*
X1187403Y513752D01*
X1186353Y511219D01*
X1186162Y509770D01*
X1196500D01*
X1206838D01*
X1206717Y510691D01*
X1207573Y511961D01*
X1273000D01*
X1273780Y512116D01*
X1274442Y512558D01*
X1303845Y541961D01*
X1441939D01*
X1441988Y541585D01*
X1442920Y539335D01*
X1444403Y537403D01*
X1446335Y535920D01*
X1448585Y534988D01*
X1451000Y534670D01*
X1453415Y534988D01*
X1455665Y535920D01*
X1457597Y537403D01*
X1459080Y539335D01*
X1460012Y541585D01*
X1460330Y544000D01*
X1460012Y546415D01*
X1459080Y548665D01*
X1457597Y550597D01*
X1455665Y552080D01*
X1453415Y553012D01*
X1451000Y553330D01*
X1448585Y553012D01*
X1446335Y552080D01*
X1444403Y550597D01*
X1442920Y548665D01*
X1441988Y546415D01*
X1441939Y546039D01*
X1303000D01*
X1303000Y546039D01*
X1302220Y545884D01*
X1301558Y545442D01*
X1272155Y516039D01*
X1205810D01*
X1202032Y519817D01*
X1201371Y520259D01*
X1200590Y520414D01*
X1119691D01*
X732039Y908066D01*
Y913341D01*
X733309Y913803D01*
X734838Y912781D01*
X734961Y912757D01*
Y908322D01*
X735116Y907542D01*
X735558Y906880D01*
X1079881Y562558D01*
X1080542Y562116D01*
X1081322Y561961D01*
X1081323Y561961D01*
X1308000D01*
X1308780Y562116D01*
X1309442Y562558D01*
X1338845Y591961D01*
X1441939D01*
X1441988Y591585D01*
X1442920Y589335D01*
X1444403Y587403D01*
X1446335Y585920D01*
X1448585Y584988D01*
X1451000Y584670D01*
X1453415Y584988D01*
X1455665Y585920D01*
X1457597Y587403D01*
X1459080Y589335D01*
X1460012Y591585D01*
X1460330Y594000D01*
X1460012Y596415D01*
X1459080Y598665D01*
X1457597Y600597D01*
X1455665Y602080D01*
X1453415Y603012D01*
X1451000Y603330D01*
X1448585Y603012D01*
X1446335Y602080D01*
X1444403Y600597D01*
X1442920Y598665D01*
X1441988Y596415D01*
X1441939Y596039D01*
X1338000D01*
X1338000Y596039D01*
X1337220Y595884D01*
X1336558Y595442D01*
X1307155Y566039D01*
X1082167D01*
X1077169Y571037D01*
X1077655Y572211D01*
X1301250D01*
X1302030Y572366D01*
X1302692Y572808D01*
X1353845Y623961D01*
X1467155D01*
X1548558Y542558D01*
X1548558Y542558D01*
X1549220Y542116D01*
X1550000Y541961D01*
X1550000Y541961D01*
X1586939D01*
X1586988Y541585D01*
X1587920Y539335D01*
X1589403Y537403D01*
X1591335Y535920D01*
X1593585Y534988D01*
X1596000Y534670D01*
X1598415Y534988D01*
X1600665Y535920D01*
X1602597Y537403D01*
X1604080Y539335D01*
X1605012Y541585D01*
X1605330Y544000D01*
X1605012Y546415D01*
X1604080Y548665D01*
X1602597Y550597D01*
X1600665Y552080D01*
X1598415Y553012D01*
X1596000Y553330D01*
X1593585Y553012D01*
X1591335Y552080D01*
X1589403Y550597D01*
X1587920Y548665D01*
X1586988Y546415D01*
X1586939Y546039D01*
X1550845D01*
X1469442Y627442D01*
X1468780Y627884D01*
X1468000Y628039D01*
X1353000D01*
X1352220Y627884D01*
X1351558Y627442D01*
X1351558Y627442D01*
X1300405Y576289D01*
X1076160D01*
X845198Y807251D01*
X845791Y808454D01*
X846000Y808427D01*
X848219Y808719D01*
X850287Y809575D01*
X852062Y810938D01*
X853425Y812713D01*
X854281Y814781D01*
X854573Y817000D01*
X854281Y819219D01*
X854195Y819427D01*
X916689Y881922D01*
X1012460D01*
Y873270D01*
X1021250D01*
X1030040D01*
Y877533D01*
X1031213Y878019D01*
X1073116Y836116D01*
X1074439Y835232D01*
X1076000Y834922D01*
X1076000Y834922D01*
X1081000D01*
Y831000D01*
X1092593D01*
X1093119Y829730D01*
X1087517Y824128D01*
X1073750D01*
X1072770Y823933D01*
X1064613D01*
X1063944Y823801D01*
X1063378Y823422D01*
X1062999Y822856D01*
X1062867Y822188D01*
Y817913D01*
X1062999Y817244D01*
X1063378Y816678D01*
X1063944Y816299D01*
X1064613Y816167D01*
X1072770D01*
X1073750Y815972D01*
X1089207D01*
X1089207Y815972D01*
X1090768Y816282D01*
X1092091Y817166D01*
X1101461Y826537D01*
X1101654Y826575D01*
X1102977Y827459D01*
X1106518Y831000D01*
X1109000D01*
Y831323D01*
X1110173Y831809D01*
X1123500Y818482D01*
Y808500D01*
X1138000D01*
Y825500D01*
X1128018D01*
X1111634Y841884D01*
X1110311Y842768D01*
X1109000Y843029D01*
Y847000D01*
X1096000D01*
Y832810D01*
X1095160Y832140D01*
X1094000Y832646D01*
Y847000D01*
X1081000D01*
Y843078D01*
X1077689D01*
X1031884Y888884D01*
X1030561Y889768D01*
X1029000Y890078D01*
X1029000Y890078D01*
X915000D01*
X915000Y890078D01*
X913439Y889768D01*
X912116Y888884D01*
X848427Y825195D01*
X848219Y825281D01*
X846000Y825573D01*
X843781Y825281D01*
X841713Y824425D01*
X839938Y823062D01*
X839809Y822895D01*
X838539Y823326D01*
Y824500D01*
X838539Y824500D01*
X838384Y825280D01*
X837942Y825942D01*
X837942Y825942D01*
X753039Y910845D01*
Y915763D01*
X754309Y916149D01*
X754645Y915645D01*
X756643Y914310D01*
X759000Y913842D01*
X761357Y914310D01*
X763355Y915645D01*
X763539Y915922D01*
X815132D01*
X816838Y914781D01*
X819000Y914352D01*
X821162Y914781D01*
X822994Y916006D01*
X824219Y917838D01*
X824649Y920000D01*
X824219Y922162D01*
X822994Y923994D01*
X821162Y925219D01*
X819000Y925648D01*
X816838Y925219D01*
X815132Y924078D01*
X763539D01*
X763355Y924355D01*
X761357Y925689D01*
X759000Y926158D01*
X756643Y925689D01*
X754645Y924355D01*
X754309Y923851D01*
X753039Y924237D01*
Y937000D01*
X753039Y937000D01*
X752884Y937780D01*
X752442Y938442D01*
X752442Y938442D01*
X707442Y983442D01*
X706780Y983884D01*
X706000Y984039D01*
X702572D01*
X702255Y985309D01*
X703393Y987013D01*
X703418Y987136D01*
X705980D01*
X730560Y962556D01*
X730560Y962556D01*
X731222Y962114D01*
X732002Y961959D01*
X732002Y961959D01*
X836901D01*
X837725Y960725D01*
X839227Y959722D01*
X840998Y959369D01*
X842770Y959722D01*
X844271Y960725D01*
X845275Y962227D01*
X845627Y963998D01*
X845275Y965770D01*
X845350Y965950D01*
X846576Y966194D01*
X847913Y967087D01*
X848806Y968424D01*
X849119Y970000D01*
X848806Y971576D01*
X847913Y972913D01*
X846576Y973806D01*
X845000Y974119D01*
X843424Y973806D01*
X842087Y972913D01*
X841844Y972549D01*
X734056D01*
X716329Y990275D01*
X716906Y991405D01*
X716950Y991451D01*
X819000D01*
X819976Y991645D01*
X820802Y992198D01*
X834056Y1005451D01*
X856642D01*
X857366Y1004366D01*
X859034Y1003252D01*
X861000Y1002861D01*
X862967Y1003252D01*
X864634Y1004366D01*
X865748Y1006033D01*
X866139Y1008000D01*
X865748Y1009967D01*
X864634Y1011634D01*
X864198Y1011925D01*
X864693Y1013121D01*
X866000Y1012861D01*
X867967Y1013252D01*
X869634Y1014366D01*
X870748Y1016033D01*
X871139Y1018000D01*
X870748Y1019967D01*
X870671Y1020080D01*
X871391Y1021289D01*
X872967Y1021602D01*
X874634Y1022716D01*
X875181Y1023536D01*
X876451Y1023150D01*
Y974000D01*
X876645Y973025D01*
X877198Y972198D01*
X887198Y962198D01*
X888025Y961645D01*
X889000Y961451D01*
X901544D01*
X901787Y961087D01*
X903124Y960194D01*
X904700Y959881D01*
X904750Y959851D01*
X905623Y958770D01*
X908730D01*
Y963072D01*
X908651Y963156D01*
X908819Y964000D01*
X908506Y965576D01*
X907613Y966913D01*
X906276Y967806D01*
X904700Y968119D01*
X903124Y967806D01*
X901787Y966913D01*
X901544Y966549D01*
X890056D01*
X881549Y975056D01*
Y1038000D01*
X881355Y1038975D01*
X880802Y1039802D01*
X872802Y1047802D01*
X871975Y1048355D01*
X871000Y1048549D01*
X685783D01*
X685105Y1049819D01*
X685569Y1050513D01*
X685999Y1052675D01*
X685569Y1054837D01*
X684344Y1056669D01*
X682512Y1057894D01*
X680350Y1058324D01*
D02*
G37*
G36*
X580042Y1021555D02*
X577445D01*
Y1018959D01*
X577751Y1019019D01*
X579088Y1019912D01*
X579981Y1021249D01*
X580042Y1021555D01*
D02*
G37*
G36*
X372110Y1023496D02*
X371151Y1023370D01*
X369073Y1022510D01*
X367289Y1021141D01*
X365920Y1019357D01*
X365060Y1017279D01*
X364934Y1016320D01*
X372110D01*
Y1023496D01*
D02*
G37*
G36*
X374650D02*
Y1016320D01*
X381827D01*
X381700Y1017279D01*
X380840Y1019357D01*
X379471Y1021141D01*
X377687Y1022510D01*
X375609Y1023370D01*
X374650Y1023496D01*
D02*
G37*
G36*
X574905Y1021555D02*
X572309D01*
X572369Y1021249D01*
X573262Y1019912D01*
X574599Y1019019D01*
X574905Y1018959D01*
Y1021555D01*
D02*
G37*
%LPD*%
G36*
X1616412Y831099D02*
Y815900D01*
X1613900Y813388D01*
X1606132D01*
X1605750Y814500D01*
X1605750Y814500D01*
X1605750D01*
X1605750Y814500D01*
Y823230D01*
X1605750Y823500D01*
X1605750D01*
Y824500D01*
X1605750D01*
Y833500D01*
X1605750Y833500D01*
X1606132Y834612D01*
X1612899D01*
X1616412Y831099D01*
D02*
G37*
G36*
X695695Y994181D02*
X694181Y993169D01*
X692956Y991337D01*
X692526Y989175D01*
X692956Y987013D01*
X694095Y985309D01*
X693778Y984039D01*
X663845D01*
X656359Y991525D01*
X656835Y992711D01*
X656913Y992766D01*
X659000Y992352D01*
X661162Y992782D01*
X662994Y994006D01*
X663960Y995451D01*
X695315D01*
X695695Y994181D01*
D02*
G37*
G36*
X748961Y936155D02*
Y910000D01*
X749116Y909220D01*
X749558Y908558D01*
X834461Y823655D01*
Y815405D01*
X833288Y814919D01*
X739039Y909167D01*
Y912757D01*
X739162Y912781D01*
X740994Y914006D01*
X742218Y915838D01*
X742648Y918000D01*
X742218Y920162D01*
X740994Y921994D01*
X739162Y923219D01*
X737000Y923649D01*
X734838Y923219D01*
X733309Y922197D01*
X732039Y922659D01*
Y926757D01*
X732162Y926781D01*
X733994Y928006D01*
X735219Y929838D01*
X735648Y932000D01*
X735219Y934162D01*
X733994Y935994D01*
X732162Y937218D01*
X730000Y937648D01*
X728859Y937421D01*
X727710Y938323D01*
X727730Y939162D01*
X728994Y940006D01*
X730219Y941838D01*
X730648Y944000D01*
X730219Y946162D01*
X728994Y947994D01*
X727162Y949219D01*
X725000Y949649D01*
X723309Y949312D01*
X722039Y950096D01*
Y952000D01*
X722039Y952000D01*
X721884Y952780D01*
X721442Y953442D01*
X721442Y953442D01*
X696967Y977917D01*
X696305Y978359D01*
X695525Y978514D01*
X686698D01*
X686592Y978691D01*
X687311Y979961D01*
X705155D01*
X748961Y936155D01*
D02*
G37*
G36*
X705688Y1001707D02*
X705063Y1000536D01*
X705000Y1000549D01*
X663960D01*
X662994Y1001994D01*
X661162Y1003219D01*
X659000Y1003649D01*
X656838Y1003219D01*
X655006Y1001994D01*
X653781Y1000162D01*
X653352Y998000D01*
X653766Y995913D01*
X653711Y995835D01*
X652525Y995359D01*
X645442Y1002442D01*
X644780Y1002884D01*
X644000Y1003039D01*
X550243D01*
X550219Y1003162D01*
X549203Y1004681D01*
X549674Y1005951D01*
X701444D01*
X705688Y1001707D01*
D02*
G37*
G36*
X876451Y1036944D02*
Y1029550D01*
X875181Y1029164D01*
X874634Y1029984D01*
X872967Y1031098D01*
X871000Y1031489D01*
X869034Y1031098D01*
X867366Y1029984D01*
X866812Y1029154D01*
X827518D01*
X827032Y1030327D01*
X833156Y1036451D01*
X861642D01*
X862366Y1035366D01*
X864034Y1034252D01*
X866000Y1033861D01*
X867967Y1034252D01*
X869634Y1035366D01*
X870748Y1037033D01*
X871139Y1039000D01*
X871012Y1039640D01*
X872020Y1041073D01*
X872282Y1041113D01*
X876451Y1036944D01*
D02*
G37*
G36*
X862366Y1014366D02*
X862802Y1014075D01*
X862307Y1012879D01*
X861000Y1013139D01*
X859034Y1012748D01*
X857366Y1011634D01*
X856642Y1010549D01*
X833000D01*
X832025Y1010355D01*
X831198Y1009802D01*
X817944Y996549D01*
X717985D01*
X716513Y998020D01*
X716842Y999103D01*
X717033Y999297D01*
X718634Y1000366D01*
X719389Y1001497D01*
X810148Y1002451D01*
X810621Y1002550D01*
X811096Y1002645D01*
X811108Y1002653D01*
X811121Y1002655D01*
X811520Y1002928D01*
X811923Y1003198D01*
X824177Y1015451D01*
X861642D01*
X862366Y1014366D01*
D02*
G37*
G36*
X813364Y1011848D02*
X809054Y1007538D01*
X719328Y1006595D01*
X718634Y1007634D01*
X716966Y1008748D01*
X715000Y1009139D01*
X713034Y1008748D01*
X711366Y1007634D01*
X710325Y1006076D01*
X710125Y1005941D01*
X708905Y1005700D01*
X704754Y1009851D01*
X704782Y1010378D01*
X704995Y1011242D01*
X705043Y1011306D01*
X705733Y1011767D01*
X706161Y1012196D01*
X723000D01*
X724073Y1012410D01*
X724983Y1013017D01*
X724986Y1013021D01*
X812878D01*
X813364Y1011848D01*
D02*
G37*
D11*
X1041400Y1071000D02*
D03*
X934400Y1123000D02*
D03*
X871400Y817000D02*
D03*
D12*
X1486000Y900000D02*
D03*
X1451500D02*
D03*
X1020250Y844000D02*
D03*
X985750D02*
D03*
X1165250Y817000D02*
D03*
X1130750D02*
D03*
X1165250Y792000D02*
D03*
X1130750D02*
D03*
X1021250Y872000D02*
D03*
X986750D02*
D03*
X957250Y787000D02*
D03*
X922750D02*
D03*
X958250Y814000D02*
D03*
X923750D02*
D03*
X1283750Y1076000D02*
D03*
X1318250D02*
D03*
X1282750Y1107000D02*
D03*
X1317250D02*
D03*
D13*
X1527000Y783400D02*
D03*
X1289000Y937600D02*
D03*
D16*
X1514000Y817750D02*
D03*
Y852250D02*
D03*
X1536000Y817750D02*
D03*
Y852250D02*
D03*
D23*
X935500Y843000D02*
D03*
X950500D02*
D03*
X1156500Y749000D02*
D03*
X1141500D02*
D03*
X1087500Y839000D02*
D03*
X1102500D02*
D03*
X934500Y748000D02*
D03*
X949500D02*
D03*
D41*
X958250Y820000D02*
X986700D01*
X1100093Y830343D02*
X1108750Y839000D01*
X985000Y844000D02*
X1000300D01*
X604000Y809000D02*
X621000Y826000D01*
X604000Y623850D02*
Y809000D01*
Y623850D02*
X627000Y600850D01*
X621000Y826000D02*
X645000D01*
X759000Y920000D02*
X819000D01*
X949500Y730500D02*
Y748000D01*
X986750Y872000D02*
X1014750Y844000D01*
X1020250D01*
X1050500Y790500D02*
X1054650Y794650D01*
X1041950Y781950D02*
X1050500Y790500D01*
X1020250Y844000D02*
X1030000D01*
X1050500Y823500D01*
Y790500D02*
Y823500D01*
X1029000Y886000D02*
X1076000Y839000D01*
X915000Y886000D02*
X1029000D01*
X1076000Y839000D02*
X1087500D01*
X846000Y817000D02*
X915000Y886000D01*
X1099500Y830343D02*
X1100093D01*
X1089207Y820050D02*
X1099500Y830343D01*
X1073750Y820050D02*
X1089207D01*
X918000Y843000D02*
X935500D01*
X892000Y817000D02*
X918000Y843000D01*
X871400Y817000D02*
X892000D01*
X958250Y820000D02*
Y835250D01*
Y814000D02*
Y820000D01*
X950500Y843000D02*
X958250Y835250D01*
X1054650Y794650D02*
X1073750D01*
X1024250Y781950D02*
X1041950D01*
X1005650Y794650D02*
X1024250D01*
X998000Y787000D02*
X1005650Y794650D01*
X957250Y787000D02*
X998000D01*
X930250Y814000D02*
X957250Y787000D01*
X923750Y814000D02*
X930250D01*
X922750Y787000D02*
X934500Y775250D01*
Y748000D02*
Y775250D01*
X986700Y820000D02*
X999350Y807350D01*
X1024250D01*
X1051000Y629000D02*
X1055000D01*
X949500Y730500D02*
X1051000Y629000D01*
X1108750Y839000D02*
X1130750Y817000D01*
X1111000Y792000D02*
X1130750D01*
X1095650Y807350D02*
X1111000Y792000D01*
X1073750Y807350D02*
X1095650D01*
X1140250Y792000D02*
X1164250Y816000D01*
X1130750Y792000D02*
X1140250D01*
X1156500Y783250D02*
X1165250Y792000D01*
X1156500Y749000D02*
Y783250D01*
X1062000Y730000D02*
X1081000Y749000D01*
X1141500D01*
X737000Y1086000D02*
X821200D01*
X858200Y1123000D01*
X680350Y1078075D02*
X838675D01*
X492000Y1080000D02*
X667000D01*
X710000Y1123000D01*
X807400D01*
X1000300Y844000D02*
X1024250Y820050D01*
X838675Y1078075D02*
X883600Y1123000D01*
X451000Y1039000D02*
X492000Y1080000D01*
X449550Y1040450D02*
X451000Y1039000D01*
X373380Y1040450D02*
X449550D01*
X1016000Y1071000D02*
Y1082000D01*
X1028000Y1094000D01*
X1067000D01*
X1126000Y1035000D01*
X1161000D01*
D42*
X476000Y895000D02*
X551000Y820000D01*
Y757071D02*
Y820000D01*
Y757071D02*
X597000Y711071D01*
X592000Y701929D02*
X597000Y706929D01*
Y711071D01*
X592000Y483000D02*
Y701929D01*
X572500Y463500D02*
X592000Y483000D01*
X476000Y895000D02*
Y941000D01*
X698175Y989175D02*
X706825D01*
X916625Y473375D02*
X921090D01*
X763000Y627000D02*
X916625Y473375D01*
X763000Y627000D02*
Y852243D01*
X1287000Y1173000D02*
X1329000Y1131000D01*
Y1062000D02*
Y1131000D01*
X1203000Y936000D02*
X1329000Y1062000D01*
X751000Y910000D02*
X836500Y824500D01*
Y813065D02*
Y824500D01*
Y813065D02*
X1075315Y574250D01*
X1200590Y518375D02*
X1204965Y514000D01*
X926875Y467125D02*
X930500Y463500D01*
X926875Y467125D02*
Y467590D01*
X921090Y473375D02*
X926875Y467590D01*
X930500Y463500D02*
X1131500D01*
X680350Y976475D02*
X695525D01*
X720000Y952000D01*
Y891000D02*
Y952000D01*
Y891000D02*
X760000Y851000D01*
Y555500D02*
Y851000D01*
Y555500D02*
X852000Y463500D01*
X664000Y805000D02*
X674000Y815000D01*
X691000D01*
X664000Y765000D02*
Y805000D01*
Y765000D02*
X673000Y756000D01*
X685000D01*
X674329Y808000D02*
X691000D01*
X669000Y768000D02*
X675000Y762000D01*
X669000Y768000D02*
Y802671D01*
X674329Y808000D01*
X725000Y890243D02*
X763000Y852243D01*
X737000Y908322D02*
X1081322Y564000D01*
X730000Y907222D02*
X1118847Y518375D01*
X730000Y907222D02*
Y932000D01*
X625000Y915000D02*
X703000D01*
X706000Y918000D01*
X1118847Y518375D02*
X1200590D01*
X737000Y908322D02*
Y918000D01*
X600000Y933000D02*
X685000D01*
X510350Y976475D02*
X556525D01*
X600000Y933000D01*
X725000Y890243D02*
Y944000D01*
X751000Y910000D02*
Y937000D01*
X706000Y982000D02*
X751000Y937000D01*
X732002Y963998D02*
X840998D01*
X706825Y989175D02*
X732002Y963998D01*
X476000Y941000D02*
X498775Y963775D01*
X510350D01*
X1062000Y936000D02*
X1203000D01*
X1205000Y1173000D02*
X1287000D01*
X1207000Y1076000D02*
X1283750D01*
X1282750Y1107000D02*
Y1142250D01*
X1277000Y1148000D02*
X1282750Y1142250D01*
X545000Y1001000D02*
X644000D01*
X663000Y982000D01*
X706000D01*
X1385000Y1036000D02*
X1461000Y1112000D01*
X1473000D01*
X1475000Y1114000D01*
X1550000Y544000D02*
X1596000D01*
X1468000Y626000D02*
X1550000Y544000D01*
X1075315Y574250D02*
X1301250D01*
X1353000Y626000D01*
X1468000D01*
X1081322Y564000D02*
X1308000D01*
X1338000Y594000D01*
X1451000D01*
X1204965Y514000D02*
X1273000D01*
X1303000Y544000D01*
X1451000D01*
D43*
X624000Y1019000D02*
X625075Y1020075D01*
X1041400Y1068600D02*
Y1071000D01*
X348000Y861000D02*
Y962000D01*
X330697Y843697D02*
X348000Y861000D01*
X889000Y964000D02*
X904700D01*
X879000Y974000D02*
X889000Y964000D01*
X879000Y974000D02*
Y1038000D01*
X647025Y981975D02*
X678000Y951000D01*
X377726Y981975D02*
X647025D01*
X648000Y1046000D02*
X871000D01*
X640000Y1038000D02*
X648000Y1046000D01*
X640000Y1033000D02*
Y1038000D01*
X871000Y1046000D02*
X879000Y1038000D01*
X376901Y981150D02*
X377726Y981975D01*
X369859Y981150D02*
X376901D01*
X369034Y981975D02*
X369859Y981150D01*
X367975Y981975D02*
X369034D01*
X348000Y962000D02*
X367975Y981975D01*
X1334000Y1016000D02*
Y1106000D01*
X1319000Y1001000D02*
X1334000Y1016000D01*
X1354000Y1029000D02*
Y1077000D01*
X1423000Y1146000D02*
X1428000Y1151000D01*
X1374000Y1146000D02*
X1423000D01*
X1334000Y1106000D02*
X1374000Y1146000D01*
X1464650Y841750D02*
X1465500Y842600D01*
Y886000D01*
X1451500Y900000D02*
X1465500Y886000D01*
X733000Y970000D02*
X845000D01*
X1575000Y829000D02*
X1599000D01*
X1541000Y795000D02*
X1575000Y829000D01*
X1520000Y795000D02*
X1541000D01*
X1514000Y801000D02*
X1520000Y795000D01*
X1514000Y801000D02*
Y817750D01*
X715000Y1004000D02*
X810121Y1005000D01*
X819000Y994000D02*
X833000Y1008000D01*
X832100Y1039000D02*
X866000D01*
X823121Y1018000D02*
X866000D01*
X810121Y1005000D02*
X823121Y1018000D01*
X833000Y1008000D02*
X861000D01*
X390775Y1090775D02*
X510350D01*
X1319000Y907000D02*
Y952000D01*
X308000Y1008000D02*
X390775Y1090775D01*
X308000Y982000D02*
Y1008000D01*
Y982000D02*
X325500Y964500D01*
X625075Y1020075D02*
X813175D01*
X832100Y1039000D01*
X708000Y1002929D02*
Y1003000D01*
Y1002929D02*
X716929Y994000D01*
X819000D01*
X1061000Y963000D02*
X1205250D01*
X1318250Y1076000D01*
X1317250Y1077000D02*
Y1107000D01*
Y1077000D02*
X1318250Y1076000D01*
X1342000Y1000000D02*
Y1017000D01*
X1354000Y1029000D01*
X492000Y999000D02*
Y1023000D01*
Y999000D02*
X501000Y990000D01*
X501825Y989175D02*
X502650Y990000D01*
X501000D02*
X502650D01*
X504000D01*
X492000Y1023000D02*
X508000Y1039000D01*
X527000D01*
X516975Y1008500D02*
X702500D01*
X510350Y1001875D02*
X516975Y1008500D01*
X702500D02*
X708000Y1003000D01*
X659000Y998000D02*
X705000D01*
X733000Y970000D01*
X1092000Y984000D02*
Y1018000D01*
X1041400Y1068600D02*
X1092000Y1018000D01*
X990600Y1000400D02*
Y1071000D01*
Y1000400D02*
X1012000Y979000D01*
X1456000Y1089000D02*
X1475000D01*
X1319000Y952000D02*
X1456000Y1089000D01*
D44*
X372000Y862000D02*
X453000Y781000D01*
X520000D01*
X1507000Y761000D02*
X1525000Y743000D01*
X1472000Y761000D02*
X1507000D01*
X1451950Y781050D02*
X1472000Y761000D01*
X1575800Y808800D02*
X1599000D01*
X1575000D02*
X1575800D01*
X1576000Y809000D01*
X1567000Y800000D02*
X1575800Y808800D01*
X1567000Y756000D02*
Y800000D01*
X1554000Y743000D02*
X1567000Y756000D01*
X1525000Y743000D02*
X1554000D01*
X1451950Y781050D02*
Y792250D01*
X520000Y781000D02*
X592000Y709000D01*
X373380Y964250D02*
X432250D01*
X373380D02*
X520630Y817000D01*
X545000D01*
X438998Y970998D02*
X439999D01*
X432250Y964250D02*
X438998Y970998D01*
D45*
X723825Y1015825D02*
X814935D01*
X723000Y1015000D02*
X723825Y1015825D01*
X705000Y1015000D02*
X723000D01*
X703750Y1013750D02*
X705000Y1015000D01*
X535000Y1013750D02*
X703750D01*
X825460Y1026350D02*
X871000D01*
X814935Y1015825D02*
X825460Y1026350D01*
D46*
X1076000Y860000D02*
X1316000D01*
X510350Y1103475D02*
X670475D01*
X712000Y1145000D01*
X960000D01*
X976000Y951000D02*
Y1129000D01*
X960000Y1145000D02*
X976000Y1129000D01*
X917000Y951000D02*
X976000D01*
X985000D01*
X1076000Y860000D01*
D49*
X261000Y442000D02*
X261000Y1193000D01*
X1661000Y1193000D01*
X1661000Y442000D02*
X1661000Y1193000D01*
X261000Y442000D02*
X1661000Y442000D01*
D50*
X1016000Y1071000D02*
D03*
X990600D02*
D03*
X1527000Y758000D02*
D03*
X1289000Y963000D02*
D03*
X807400Y1123000D02*
D03*
X832800D02*
D03*
X858200D02*
D03*
X883600D02*
D03*
X909000D02*
D03*
X846000Y817000D02*
D03*
D51*
X1545000Y1045000D02*
D03*
Y1133000D02*
D03*
D52*
X1475000Y1064000D02*
D03*
Y1089000D02*
D03*
D53*
Y1114000D02*
D03*
D54*
X1599050Y867200D02*
D03*
Y780800D02*
D03*
X1637050Y867200D02*
D03*
Y780800D02*
D03*
D55*
X1510000Y968000D02*
D03*
D56*
X1570000D02*
D03*
D57*
X1541000Y919000D02*
D03*
D58*
X1196500Y508500D02*
D03*
Y463500D02*
D03*
X1131500Y508500D02*
D03*
Y463500D02*
D03*
X917000Y508500D02*
D03*
Y463500D02*
D03*
X852000Y508500D02*
D03*
Y463500D02*
D03*
X637500Y508500D02*
D03*
Y463500D02*
D03*
X572500Y508500D02*
D03*
Y463500D02*
D03*
X280500Y840500D02*
D03*
X325500D02*
D03*
X280500Y775500D02*
D03*
X325500D02*
D03*
X280500Y964500D02*
D03*
X325500D02*
D03*
X280500Y899500D02*
D03*
X325500D02*
D03*
D59*
X576175Y1059525D02*
D03*
X594525D02*
D03*
X567000Y1050350D02*
D03*
X585350D02*
D03*
X603700D02*
D03*
X576175Y1041175D02*
D03*
X594525D02*
D03*
X567000Y1032000D02*
D03*
X585350D02*
D03*
X603700D02*
D03*
X576175Y1022825D02*
D03*
X594525D02*
D03*
X691000Y815000D02*
D03*
X1491000Y840000D02*
D03*
X845000Y970000D02*
D03*
X685000Y756000D02*
D03*
X904700Y964000D02*
D03*
X675000Y762000D02*
D03*
X691000Y808000D02*
D03*
D60*
X1378000Y873000D02*
D03*
D61*
X1526000Y512000D02*
D03*
Y626000D02*
D03*
D62*
X1451000Y544000D02*
D03*
Y569000D02*
D03*
Y594000D02*
D03*
X1596000Y544000D02*
D03*
D63*
Y594000D02*
D03*
D64*
X1059000Y1165000D02*
D03*
X1089000D02*
D03*
D65*
X1119000D02*
D03*
D66*
X1026500D02*
D03*
X1151500D02*
D03*
D67*
X1241000Y1089000D02*
D03*
Y1159000D02*
D03*
X1391000Y1090000D02*
D03*
Y1160000D02*
D03*
D68*
X1640000Y1120000D02*
D03*
Y1040000D02*
D03*
Y960000D02*
D03*
Y880000D02*
D03*
Y800000D02*
D03*
Y720000D02*
D03*
Y640000D02*
D03*
Y560000D02*
D03*
X1600000Y1120000D02*
D03*
X1620000Y1080000D02*
D03*
X1600000Y1040000D02*
D03*
X1620000Y1000000D02*
D03*
Y920000D02*
D03*
X1600000Y880000D02*
D03*
X1620000Y760000D02*
D03*
X1600000Y720000D02*
D03*
X1620000Y680000D02*
D03*
X1600000Y640000D02*
D03*
X1620000Y600000D02*
D03*
X1600000Y560000D02*
D03*
X1620000Y520000D02*
D03*
X1580000Y1160000D02*
D03*
Y1080000D02*
D03*
Y1000000D02*
D03*
Y920000D02*
D03*
Y760000D02*
D03*
X1560000Y720000D02*
D03*
X1580000Y680000D02*
D03*
X1560000Y640000D02*
D03*
X1580000Y600000D02*
D03*
X1560000Y560000D02*
D03*
X1580000Y520000D02*
D03*
X1560000Y480000D02*
D03*
X1540000Y1160000D02*
D03*
X1520000Y1120000D02*
D03*
X1540000Y1080000D02*
D03*
Y1000000D02*
D03*
X1520000Y880000D02*
D03*
Y720000D02*
D03*
X1540000Y680000D02*
D03*
Y600000D02*
D03*
X1520000Y560000D02*
D03*
Y480000D02*
D03*
X1500000Y1160000D02*
D03*
Y1080000D02*
D03*
X1480000Y1040000D02*
D03*
X1500000Y1000000D02*
D03*
Y920000D02*
D03*
X1480000Y880000D02*
D03*
X1500000Y680000D02*
D03*
X1480000Y640000D02*
D03*
Y560000D02*
D03*
Y480000D02*
D03*
X1460000Y1160000D02*
D03*
X1440000Y1120000D02*
D03*
X1460000Y1080000D02*
D03*
X1440000Y1040000D02*
D03*
Y880000D02*
D03*
Y720000D02*
D03*
X1460000Y680000D02*
D03*
X1440000Y640000D02*
D03*
X1460000Y520000D02*
D03*
X1440000Y480000D02*
D03*
X1400000Y1120000D02*
D03*
X1420000Y920000D02*
D03*
X1400000Y880000D02*
D03*
X1420000Y840000D02*
D03*
Y760000D02*
D03*
X1400000Y720000D02*
D03*
X1420000Y520000D02*
D03*
X1360000Y1120000D02*
D03*
X1380000Y1080000D02*
D03*
Y760000D02*
D03*
X1360000Y720000D02*
D03*
X1380000Y680000D02*
D03*
X1360000Y640000D02*
D03*
X1380000Y520000D02*
D03*
X1340000Y920000D02*
D03*
X1320000Y880000D02*
D03*
X1340000Y840000D02*
D03*
Y760000D02*
D03*
X1320000Y720000D02*
D03*
X1340000Y680000D02*
D03*
X1320000Y640000D02*
D03*
Y560000D02*
D03*
X1340000Y520000D02*
D03*
X1320000Y480000D02*
D03*
X1300000Y1080000D02*
D03*
Y840000D02*
D03*
X1280000Y800000D02*
D03*
X1300000Y760000D02*
D03*
X1280000Y720000D02*
D03*
X1300000Y680000D02*
D03*
X1280000Y640000D02*
D03*
X1300000Y600000D02*
D03*
Y520000D02*
D03*
X1280000Y480000D02*
D03*
X1240000Y1120000D02*
D03*
X1260000Y840000D02*
D03*
X1240000Y800000D02*
D03*
X1260000Y760000D02*
D03*
X1240000Y720000D02*
D03*
X1260000Y680000D02*
D03*
Y600000D02*
D03*
X1240000Y480000D02*
D03*
X1200000Y1120000D02*
D03*
X1220000Y920000D02*
D03*
Y840000D02*
D03*
X1200000Y800000D02*
D03*
Y720000D02*
D03*
X1220000Y680000D02*
D03*
X1200000Y640000D02*
D03*
Y480000D02*
D03*
X1180000Y1160000D02*
D03*
X1160000Y1120000D02*
D03*
X1180000Y1080000D02*
D03*
Y840000D02*
D03*
Y680000D02*
D03*
Y600000D02*
D03*
X1160000Y480000D02*
D03*
X1120000Y1120000D02*
D03*
X1140000Y1080000D02*
D03*
Y840000D02*
D03*
Y680000D02*
D03*
X1120000Y480000D02*
D03*
X1080000Y1120000D02*
D03*
X1100000Y1080000D02*
D03*
X1080000Y720000D02*
D03*
X1100000Y680000D02*
D03*
Y600000D02*
D03*
Y520000D02*
D03*
X1080000Y480000D02*
D03*
X1060000Y1080000D02*
D03*
Y920000D02*
D03*
Y840000D02*
D03*
X1040000Y800000D02*
D03*
X1060000Y680000D02*
D03*
X1040000Y560000D02*
D03*
X1060000Y520000D02*
D03*
X1040000Y480000D02*
D03*
X1000000Y1120000D02*
D03*
X1020000Y1000000D02*
D03*
X1000000Y720000D02*
D03*
X1020000Y680000D02*
D03*
Y600000D02*
D03*
X1000000Y560000D02*
D03*
X1020000Y520000D02*
D03*
X1000000Y480000D02*
D03*
X980000Y1160000D02*
D03*
X960000Y1120000D02*
D03*
X980000Y680000D02*
D03*
X960000Y560000D02*
D03*
X980000Y520000D02*
D03*
X960000Y480000D02*
D03*
X940000Y1160000D02*
D03*
Y1080000D02*
D03*
Y1000000D02*
D03*
Y920000D02*
D03*
Y680000D02*
D03*
Y600000D02*
D03*
X920000Y560000D02*
D03*
X940000Y520000D02*
D03*
X900000Y1160000D02*
D03*
Y1080000D02*
D03*
Y1000000D02*
D03*
X880000Y720000D02*
D03*
Y640000D02*
D03*
X900000Y600000D02*
D03*
X880000Y560000D02*
D03*
X900000Y520000D02*
D03*
X880000Y480000D02*
D03*
X860000Y1160000D02*
D03*
Y920000D02*
D03*
X840000Y720000D02*
D03*
X860000Y600000D02*
D03*
X820000Y1160000D02*
D03*
X800000Y720000D02*
D03*
X820000Y680000D02*
D03*
X800000Y640000D02*
D03*
X820000Y600000D02*
D03*
X800000Y560000D02*
D03*
X820000Y520000D02*
D03*
X800000Y480000D02*
D03*
X780000Y1160000D02*
D03*
Y680000D02*
D03*
Y520000D02*
D03*
X760000Y480000D02*
D03*
X740000Y1160000D02*
D03*
Y840000D02*
D03*
X720000Y800000D02*
D03*
Y720000D02*
D03*
X740000Y680000D02*
D03*
X720000Y640000D02*
D03*
X740000Y600000D02*
D03*
X720000Y560000D02*
D03*
X740000Y520000D02*
D03*
X720000Y480000D02*
D03*
X700000Y1160000D02*
D03*
X680000Y880000D02*
D03*
Y800000D02*
D03*
Y720000D02*
D03*
X700000Y680000D02*
D03*
X680000Y560000D02*
D03*
X700000Y520000D02*
D03*
X680000Y480000D02*
D03*
X640000Y800000D02*
D03*
Y720000D02*
D03*
X660000Y680000D02*
D03*
X640000Y640000D02*
D03*
X660000Y520000D02*
D03*
X640000Y480000D02*
D03*
X600000Y1120000D02*
D03*
X620000Y680000D02*
D03*
Y520000D02*
D03*
X600000Y480000D02*
D03*
X560000Y1120000D02*
D03*
Y800000D02*
D03*
X580000Y760000D02*
D03*
X560000Y720000D02*
D03*
X580000Y680000D02*
D03*
X560000Y480000D02*
D03*
X520000Y800000D02*
D03*
Y720000D02*
D03*
X540000Y680000D02*
D03*
X520000Y640000D02*
D03*
X540000Y520000D02*
D03*
X520000Y480000D02*
D03*
X480000Y1040000D02*
D03*
Y960000D02*
D03*
Y800000D02*
D03*
X500000Y760000D02*
D03*
X480000Y720000D02*
D03*
X500000Y680000D02*
D03*
Y600000D02*
D03*
X480000Y560000D02*
D03*
X500000Y520000D02*
D03*
X480000Y480000D02*
D03*
X460000Y1160000D02*
D03*
Y1000000D02*
D03*
X440000Y960000D02*
D03*
X460000Y760000D02*
D03*
X440000Y720000D02*
D03*
X460000Y680000D02*
D03*
X440000Y560000D02*
D03*
X460000Y520000D02*
D03*
X440000Y480000D02*
D03*
X420000Y1160000D02*
D03*
Y1080000D02*
D03*
Y1000000D02*
D03*
Y760000D02*
D03*
Y680000D02*
D03*
X400000Y560000D02*
D03*
X420000Y520000D02*
D03*
X400000Y480000D02*
D03*
X380000Y1160000D02*
D03*
X360000Y1120000D02*
D03*
X380000Y680000D02*
D03*
X360000Y560000D02*
D03*
X380000Y520000D02*
D03*
X360000Y480000D02*
D03*
X340000Y1160000D02*
D03*
X320000Y1120000D02*
D03*
X340000Y1080000D02*
D03*
X320000Y1040000D02*
D03*
Y880000D02*
D03*
X340000Y840000D02*
D03*
Y760000D02*
D03*
X320000Y720000D02*
D03*
X340000Y680000D02*
D03*
Y600000D02*
D03*
X320000Y560000D02*
D03*
X340000Y520000D02*
D03*
X280000Y1120000D02*
D03*
X300000Y1080000D02*
D03*
X280000Y1040000D02*
D03*
X300000Y1000000D02*
D03*
Y920000D02*
D03*
X280000Y880000D02*
D03*
X300000Y840000D02*
D03*
X280000Y800000D02*
D03*
X300000Y760000D02*
D03*
X280000Y720000D02*
D03*
Y560000D02*
D03*
X300000Y520000D02*
D03*
D69*
X645000Y826000D02*
D03*
X627000Y600850D02*
D03*
X910000Y957500D02*
D03*
X840998Y963998D02*
D03*
X1092000Y984000D02*
D03*
X1161000Y1035000D02*
D03*
X1012000Y979000D02*
D03*
D70*
X759000Y920000D02*
D03*
D71*
X698175Y989175D02*
D03*
X640000Y1033000D02*
D03*
X819000Y920000D02*
D03*
X737000Y1086000D02*
D03*
X680350Y1078075D02*
D03*
X1461000Y811000D02*
D03*
X1470500D02*
D03*
X1480000D02*
D03*
Y824000D02*
D03*
X1470500D02*
D03*
X1461000D02*
D03*
X1489000Y792000D02*
D03*
X1477000D02*
D03*
X1464000Y793000D02*
D03*
X1451950Y792250D02*
D03*
X1536000Y817750D02*
D03*
X1599000Y819000D02*
D03*
X510350Y1103475D02*
D03*
Y1090775D02*
D03*
Y1014575D02*
D03*
Y1001875D02*
D03*
Y963775D02*
D03*
X680350Y976475D02*
D03*
X374000Y936000D02*
D03*
X375000Y890000D02*
D03*
X680350Y1052675D02*
D03*
Y1027275D02*
D03*
X534000Y1014000D02*
D03*
X1319000Y907000D02*
D03*
X592000Y709000D02*
D03*
X545000Y1001000D02*
D03*
X510350Y976475D02*
D03*
X685000Y933000D02*
D03*
X730000Y932000D02*
D03*
X625000Y915000D02*
D03*
X706000Y918000D02*
D03*
X737000D02*
D03*
X725000Y944000D02*
D03*
X917000Y951000D02*
D03*
X1385000Y1036000D02*
D03*
X1061000Y963000D02*
D03*
X1062000Y936000D02*
D03*
X1205000Y1173000D02*
D03*
X1207000Y1076000D02*
D03*
X1277000Y1148000D02*
D03*
X1319000Y1001000D02*
D03*
X1342000Y1000000D02*
D03*
X504000Y990000D02*
D03*
X527000Y1039000D02*
D03*
X659000Y998000D02*
D03*
X439999Y970998D02*
D03*
D72*
X678000Y951000D02*
D03*
X1354000Y1077000D02*
D03*
X1428000Y1151000D02*
D03*
X1055000Y629000D02*
D03*
X1062000Y730000D02*
D03*
X715000Y1004000D02*
D03*
X1328000Y858000D02*
D03*
X1316000D02*
D03*
X1339000Y865000D02*
D03*
Y858000D02*
D03*
X1316000Y865000D02*
D03*
X985000Y844000D02*
D03*
X866000Y1039000D02*
D03*
X871000Y1026350D02*
D03*
X866000Y1018000D02*
D03*
X861000Y1008000D02*
D03*
X545000Y817000D02*
D03*
X624000Y1020000D02*
D03*
D73*
X373380Y1040450D02*
D03*
D74*
Y1015050D02*
D03*
Y964250D02*
D03*
Y989650D02*
D03*
Y938850D02*
D03*
Y913450D02*
D03*
Y888050D02*
D03*
Y862650D02*
D03*
Y837250D02*
D03*
Y811850D02*
D03*
Y786450D02*
D03*
Y761050D02*
D03*
Y735650D02*
D03*
Y710250D02*
D03*
D75*
X295000Y1159000D02*
D03*
X1624000Y1158000D02*
D03*
Y475000D02*
D03*
X295000D02*
D03*
D76*
X1471000Y817000D02*
D03*
D77*
X1451950Y792250D02*
D03*
X1464650D02*
D03*
X1477350D02*
D03*
X1490050D02*
D03*
Y841750D02*
D03*
X1477350D02*
D03*
X1464650D02*
D03*
X1451950D02*
D03*
D78*
X1599000Y819000D02*
D03*
Y829000D02*
D03*
D79*
Y839200D02*
D03*
Y808800D02*
D03*
D80*
Y851500D02*
D03*
Y796500D02*
D03*
D81*
X1073750Y820050D02*
D03*
Y807350D02*
D03*
Y794650D02*
D03*
Y781950D02*
D03*
X1024250D02*
D03*
Y794650D02*
D03*
Y807350D02*
D03*
Y820050D02*
D03*
D82*
X288000Y637000D02*
D03*
D83*
X1490050Y841750D02*
X1492600Y839200D01*
X1614800D02*
X1621000Y833000D01*
Y814000D02*
Y833000D01*
X1615800Y808800D02*
X1621000Y814000D01*
X1492600Y839200D02*
X1597000D01*
X1599000D02*
X1614800D01*
X1599000Y808800D02*
X1615800D01*
M02*
