G04 Layer_Color=16711935*
%FSLAX44Y44*%
%MOMM*%
G71*
G01*
G75*
%ADD49C,1.2000*%
%ADD89R,1.7032X1.7032*%
%ADD90R,1.4532X1.7032*%
%ADD91R,1.7032X1.7032*%
%ADD94R,1.7032X1.4532*%
%ADD101R,1.3032X1.6032*%
%ADD119C,1.7032*%
%ADD120O,4.8032X2.5032*%
%ADD121C,1.7112*%
%ADD122R,1.7112X1.7112*%
%ADD123O,2.2032X1.2032*%
%ADD124O,2.2032X4.2032*%
%ADD125O,2.0032X3.8032*%
%ADD126O,3.8032X2.0032*%
%ADD127C,1.7782*%
%ADD128C,0.5032*%
%ADD129R,2.6032X11.2032*%
%ADD130O,6.2032X3.2032*%
%ADD131C,1.8532*%
%ADD132R,1.8532X1.8532*%
%ADD133C,1.6112*%
%ADD134R,1.6112X1.6112*%
%ADD135O,1.8032X3.4032*%
%ADD136C,1.9032*%
%ADD137C,0.6032*%
%ADD138C,0.9032*%
%ADD139C,0.8032*%
%ADD140C,0.7032*%
%ADD141C,1.6032*%
%ADD142C,1.4032*%
%ADD143C,4.2032*%
%ADD144R,3.5052X2.6162*%
G04:AMPARAMS|DCode=145|XSize=2.1732mm|YSize=0.8032mm|CornerRadius=0.1766mm|HoleSize=0mm|Usage=FLASHONLY|Rotation=270.000|XOffset=0mm|YOffset=0mm|HoleType=Round|Shape=RoundedRectangle|*
%AMROUNDEDRECTD145*
21,1,2.1732,0.4500,0,0,270.0*
21,1,1.8200,0.8032,0,0,270.0*
1,1,0.3532,-0.2250,-0.9100*
1,1,0.3532,-0.2250,0.9100*
1,1,0.3532,0.2250,0.9100*
1,1,0.3532,0.2250,-0.9100*
%
%ADD145ROUNDEDRECTD145*%
%ADD146R,1.3532X0.9032*%
%ADD147R,1.3532X1.0032*%
%ADD148R,1.3532X1.1032*%
G04:AMPARAMS|DCode=149|XSize=2.1732mm|YSize=0.7732mm|CornerRadius=0.1729mm|HoleSize=0mm|Usage=FLASHONLY|Rotation=180.000|XOffset=0mm|YOffset=0mm|HoleType=Round|Shape=RoundedRectangle|*
%AMROUNDEDRECTD149*
21,1,2.1732,0.4275,0,0,180.0*
21,1,1.8275,0.7732,0,0,180.0*
1,1,0.3457,-0.9137,0.2137*
1,1,0.3457,0.9137,0.2137*
1,1,0.3457,0.9137,-0.2137*
1,1,0.3457,-0.9137,-0.2137*
%
%ADD149ROUNDEDRECTD149*%
%ADD150R,5.2032X8.2032*%
D49*
X261000Y442000D02*
X261000Y1193000D01*
X1661000Y1193000D01*
X1661000Y442000D02*
X1661000Y1193000D01*
X261000Y442000D02*
X1661000Y442000D01*
D89*
X1041400Y1071000D02*
D03*
X934400Y1123000D02*
D03*
X871400Y817000D02*
D03*
D90*
X1486000Y900000D02*
D03*
X1451500D02*
D03*
X1020250Y844000D02*
D03*
X985750D02*
D03*
X1165250Y817000D02*
D03*
X1130750D02*
D03*
X1165250Y792000D02*
D03*
X1130750D02*
D03*
X1021250Y872000D02*
D03*
X986750D02*
D03*
X957250Y787000D02*
D03*
X922750D02*
D03*
X958250Y814000D02*
D03*
X923750D02*
D03*
X1283750Y1076000D02*
D03*
X1318250D02*
D03*
X1282750Y1107000D02*
D03*
X1317250D02*
D03*
D91*
X1527000Y783400D02*
D03*
X1289000Y937600D02*
D03*
D94*
X1514000Y817750D02*
D03*
Y852250D02*
D03*
X1536000Y817750D02*
D03*
Y852250D02*
D03*
D101*
X935500Y843000D02*
D03*
X950500D02*
D03*
X1156500Y749000D02*
D03*
X1141500D02*
D03*
X1087500Y839000D02*
D03*
X1102500D02*
D03*
X934500Y748000D02*
D03*
X949500D02*
D03*
D119*
X1016000Y1071000D02*
D03*
X990600D02*
D03*
X1527000Y758000D02*
D03*
X1289000Y963000D02*
D03*
X807400Y1123000D02*
D03*
X832800D02*
D03*
X858200D02*
D03*
X883600D02*
D03*
X909000D02*
D03*
X846000Y817000D02*
D03*
D120*
X1545000Y1045000D02*
D03*
Y1133000D02*
D03*
D121*
X1475000Y1064000D02*
D03*
Y1089000D02*
D03*
D122*
Y1114000D02*
D03*
D123*
X1599050Y867200D02*
D03*
Y780800D02*
D03*
X1637050Y867200D02*
D03*
Y780800D02*
D03*
D124*
X1510000Y968000D02*
D03*
D125*
X1570000D02*
D03*
D126*
X1541000Y919000D02*
D03*
D127*
X1196500Y508500D02*
D03*
Y463500D02*
D03*
X1131500Y508500D02*
D03*
Y463500D02*
D03*
X917000Y508500D02*
D03*
Y463500D02*
D03*
X852000Y508500D02*
D03*
Y463500D02*
D03*
X637500Y508500D02*
D03*
Y463500D02*
D03*
X572500Y508500D02*
D03*
Y463500D02*
D03*
X280500Y840500D02*
D03*
X325500D02*
D03*
X280500Y775500D02*
D03*
X325500D02*
D03*
X280500Y964500D02*
D03*
X325500D02*
D03*
X280500Y899500D02*
D03*
X325500D02*
D03*
D128*
X576175Y1059525D02*
D03*
X594525D02*
D03*
X567000Y1050350D02*
D03*
X585350D02*
D03*
X603700D02*
D03*
X576175Y1041175D02*
D03*
X594525D02*
D03*
X567000Y1032000D02*
D03*
X585350D02*
D03*
X603700D02*
D03*
X576175Y1022825D02*
D03*
X594525D02*
D03*
X691000Y815000D02*
D03*
X1491000Y840000D02*
D03*
X845000Y970000D02*
D03*
X685000Y756000D02*
D03*
X904700Y964000D02*
D03*
X675000Y762000D02*
D03*
X691000Y808000D02*
D03*
D129*
X1378000Y873000D02*
D03*
D130*
X1526000Y512000D02*
D03*
Y626000D02*
D03*
D131*
X1451000Y544000D02*
D03*
Y569000D02*
D03*
Y594000D02*
D03*
X1596000Y544000D02*
D03*
D132*
Y594000D02*
D03*
D133*
X1059000Y1165000D02*
D03*
X1089000D02*
D03*
D134*
X1119000D02*
D03*
D135*
X1026500D02*
D03*
X1151500D02*
D03*
D136*
X1241000Y1089000D02*
D03*
Y1159000D02*
D03*
X1391000Y1090000D02*
D03*
Y1160000D02*
D03*
D137*
X645000Y826000D02*
D03*
X627000Y600850D02*
D03*
X910000Y957500D02*
D03*
X840998Y963998D02*
D03*
X1092000Y984000D02*
D03*
X1161000Y1035000D02*
D03*
X1012000Y979000D02*
D03*
D138*
X759000Y920000D02*
D03*
D139*
X698175Y989175D02*
D03*
X640000Y1033000D02*
D03*
X819000Y920000D02*
D03*
X737000Y1086000D02*
D03*
X680350Y1078075D02*
D03*
X1461000Y811000D02*
D03*
X1470500D02*
D03*
X1480000D02*
D03*
Y824000D02*
D03*
X1470500D02*
D03*
X1461000D02*
D03*
X1489000Y792000D02*
D03*
X1477000D02*
D03*
X1464000Y793000D02*
D03*
X1451950Y792250D02*
D03*
X1536000Y817750D02*
D03*
X1599000Y819000D02*
D03*
X510350Y1103475D02*
D03*
Y1090775D02*
D03*
Y1014575D02*
D03*
Y1001875D02*
D03*
Y963775D02*
D03*
X680350Y976475D02*
D03*
X374000Y936000D02*
D03*
X375000Y890000D02*
D03*
X680350Y1052675D02*
D03*
Y1027275D02*
D03*
X534000Y1014000D02*
D03*
X1319000Y907000D02*
D03*
X592000Y709000D02*
D03*
X545000Y1001000D02*
D03*
X510350Y976475D02*
D03*
X685000Y933000D02*
D03*
X730000Y932000D02*
D03*
X625000Y915000D02*
D03*
X706000Y918000D02*
D03*
X737000D02*
D03*
X725000Y944000D02*
D03*
X917000Y951000D02*
D03*
X1385000Y1036000D02*
D03*
X1061000Y963000D02*
D03*
X1062000Y936000D02*
D03*
X1205000Y1173000D02*
D03*
X1207000Y1076000D02*
D03*
X1277000Y1148000D02*
D03*
X1319000Y1001000D02*
D03*
X1342000Y1000000D02*
D03*
X504000Y990000D02*
D03*
X527000Y1039000D02*
D03*
X659000Y998000D02*
D03*
X439999Y970998D02*
D03*
D140*
X678000Y951000D02*
D03*
X1354000Y1077000D02*
D03*
X1428000Y1151000D02*
D03*
X1055000Y629000D02*
D03*
X1062000Y730000D02*
D03*
X715000Y1004000D02*
D03*
X1328000Y858000D02*
D03*
X1316000D02*
D03*
X1339000Y865000D02*
D03*
Y858000D02*
D03*
X1316000Y865000D02*
D03*
X985000Y844000D02*
D03*
X866000Y1039000D02*
D03*
X871000Y1026350D02*
D03*
X866000Y1018000D02*
D03*
X861000Y1008000D02*
D03*
X545000Y817000D02*
D03*
X624000Y1020000D02*
D03*
D141*
X373380Y1040450D02*
D03*
D142*
Y1015050D02*
D03*
Y964250D02*
D03*
Y989650D02*
D03*
Y938850D02*
D03*
Y913450D02*
D03*
Y888050D02*
D03*
Y862650D02*
D03*
Y837250D02*
D03*
Y811850D02*
D03*
Y786450D02*
D03*
Y761050D02*
D03*
Y735650D02*
D03*
Y710250D02*
D03*
D143*
X295000Y1159000D02*
D03*
X1624000Y1158000D02*
D03*
Y475000D02*
D03*
X295000D02*
D03*
D144*
X1471000Y817000D02*
D03*
D145*
X1451950Y792250D02*
D03*
X1464650D02*
D03*
X1477350D02*
D03*
X1490050D02*
D03*
Y841750D02*
D03*
X1477350D02*
D03*
X1464650D02*
D03*
X1451950D02*
D03*
D146*
X1599000Y819000D02*
D03*
Y829000D02*
D03*
D147*
Y839200D02*
D03*
Y808800D02*
D03*
D148*
Y851500D02*
D03*
Y796500D02*
D03*
D149*
X1073750Y820050D02*
D03*
Y807350D02*
D03*
Y794650D02*
D03*
Y781950D02*
D03*
X1024250D02*
D03*
Y794650D02*
D03*
Y807350D02*
D03*
Y820050D02*
D03*
D150*
X288000Y637000D02*
D03*
M02*
