G04 Layer_Physical_Order=1*
G04 Layer_Color=255*
%FSLAX44Y44*%
%MOMM*%
G71*
G01*
G75*
%ADD10R,1.4200X1.1000*%
%ADD11R,1.5000X1.5000*%
%ADD12R,1.2500X1.5000*%
%ADD13R,1.5000X1.5000*%
G04:AMPARAMS|DCode=14|XSize=1.57mm|YSize=0.41mm|CornerRadius=0.0512mm|HoleSize=0mm|Usage=FLASHONLY|Rotation=180.000|XOffset=0mm|YOffset=0mm|HoleType=Round|Shape=RoundedRectangle|*
%AMROUNDEDRECTD14*
21,1,1.5700,0.3075,0,0,180.0*
21,1,1.4675,0.4100,0,0,180.0*
1,1,0.1025,-0.7338,0.1537*
1,1,0.1025,0.7338,0.1537*
1,1,0.1025,0.7338,-0.1537*
1,1,0.1025,-0.7338,-0.1537*
%
%ADD14ROUNDEDRECTD14*%
%ADD15R,1.4986X0.3302*%
%ADD16R,1.5000X1.2500*%
%ADD17R,1.4000X1.1000*%
%ADD18R,6.2000X5.8000*%
%ADD19R,3.0000X1.6000*%
%ADD20R,2.0000X0.9000*%
%ADD21R,0.9000X2.0000*%
%ADD22R,1.3300X1.3300*%
%ADD23R,1.1000X1.4000*%
G04:AMPARAMS|DCode=24|XSize=1mm|YSize=0.65mm|CornerRadius=0.0813mm|HoleSize=0mm|Usage=FLASHONLY|Rotation=90.000|XOffset=0mm|YOffset=0mm|HoleType=Round|Shape=RoundedRectangle|*
%AMROUNDEDRECTD24*
21,1,1.0000,0.4875,0,0,90.0*
21,1,0.8375,0.6500,0,0,90.0*
1,1,0.1625,0.2437,0.4188*
1,1,0.1625,0.2437,-0.4188*
1,1,0.1625,-0.2437,-0.4188*
1,1,0.1625,-0.2437,0.4188*
%
%ADD24ROUNDEDRECTD24*%
%ADD25R,0.9000X0.8000*%
%ADD26R,0.9000X1.2000*%
%ADD27R,3.0000X1.5000*%
%ADD28R,1.6000X0.6000*%
%ADD29R,1.7000X1.1000*%
%ADD30R,1.1000X1.7000*%
%ADD31R,1.1000X1.4200*%
%ADD32R,1.2700X0.5000*%
%ADD33R,4.0000X1.6000*%
%ADD34R,3.1900X1.9100*%
%ADD35R,0.9000X1.9100*%
%ADD36R,1.0500X1.3000*%
%ADD37R,5.0000X2.0000*%
%ADD38R,5.0000X2.0000*%
%ADD39R,2.8000X2.8000*%
%ADD40R,2.8000X2.2000*%
%ADD41C,0.6000*%
%ADD42C,0.2000*%
%ADD43C,0.3000*%
%ADD44C,0.4000*%
%ADD45C,0.3500*%
%ADD46C,0.8000*%
%ADD47C,1.0000*%
%ADD48C,0.4500*%
%ADD49C,1.2000*%
%ADD50C,1.5000*%
%ADD51O,4.6000X2.3000*%
%ADD52C,1.5080*%
%ADD53R,1.5080X1.5080*%
%ADD54O,2.0000X1.0000*%
%ADD55O,2.0000X4.0000*%
%ADD56O,1.8000X3.6000*%
%ADD57O,3.6000X1.8000*%
%ADD58C,1.5750*%
%ADD59C,0.3000*%
%ADD60R,2.4000X11.0000*%
%ADD61O,6.0000X3.0000*%
%ADD62C,1.6500*%
%ADD63R,1.6500X1.6500*%
%ADD64C,1.4080*%
%ADD65R,1.4080X1.4080*%
%ADD66O,1.6000X3.2000*%
%ADD67C,1.7000*%
%ADD68C,1.0000*%
%ADD69C,0.4000*%
%ADD70C,0.7000*%
%ADD71C,0.6000*%
%ADD72C,0.5000*%
%ADD73C,1.4000*%
%ADD74C,1.2000*%
%ADD75C,4.0000*%
G36*
X1661000Y442000D02*
X261000Y442000D01*
X261000Y593730D01*
X261000Y595000D01*
X262270Y595000D01*
X313000D01*
Y617000D01*
X262270D01*
X261000Y618270D01*
Y623730D01*
X261000Y625000D01*
X262270Y625000D01*
X313000D01*
Y631922D01*
X355995D01*
Y628000D01*
X368995D01*
Y644000D01*
X355995D01*
Y640078D01*
X313000D01*
Y647000D01*
X262270D01*
X261000Y648270D01*
X261000Y654730D01*
X261000Y656000D01*
X262270Y656000D01*
X313000D01*
Y678000D01*
X262270D01*
X261000Y679270D01*
X261000Y1193000D01*
X502054Y1193000D01*
X502335Y1192709D01*
X502891Y1191730D01*
X502760Y1191075D01*
Y1128075D01*
X502957Y1127084D01*
X503519Y1126244D01*
X504359Y1125682D01*
X505350Y1125485D01*
X611221D01*
X611707Y1124312D01*
X580719Y1093324D01*
X521350D01*
Y1096275D01*
X511097D01*
X510350Y1096423D01*
X509603Y1096275D01*
X499350D01*
Y1093324D01*
X492775D01*
X491800Y1093130D01*
X490973Y1092577D01*
X469694Y1071299D01*
X465500D01*
Y1076000D01*
X448500D01*
Y1061500D01*
X465500D01*
Y1066201D01*
X470750D01*
X471726Y1066395D01*
X472552Y1066948D01*
X493831Y1088226D01*
X499350D01*
Y1085275D01*
X509603D01*
X510350Y1085126D01*
X511097Y1085275D01*
X521350D01*
Y1088226D01*
X581775D01*
X582750Y1088420D01*
X583577Y1088973D01*
X616056Y1121451D01*
X667810D01*
Y1117445D01*
X692890D01*
Y1121451D01*
X748000D01*
X748976Y1121645D01*
X749802Y1122198D01*
X764056Y1136451D01*
X891944D01*
X901439Y1126957D01*
X900719Y1125219D01*
X900427Y1123000D01*
X900719Y1120781D01*
X901575Y1118713D01*
X902938Y1116938D01*
X904713Y1115575D01*
X906781Y1114719D01*
X909000Y1114427D01*
X911219Y1114719D01*
X913287Y1115575D01*
X915062Y1116938D01*
X916425Y1118713D01*
X917281Y1120781D01*
X917573Y1123000D01*
X917281Y1125219D01*
X916425Y1127287D01*
X915062Y1129062D01*
X913287Y1130425D01*
X911219Y1131281D01*
X909000Y1131573D01*
X906781Y1131281D01*
X905043Y1130561D01*
X894802Y1140802D01*
X893976Y1141355D01*
X893000Y1141549D01*
X763000D01*
X762025Y1141355D01*
X761198Y1140802D01*
X746944Y1126549D01*
X688796D01*
X687889Y1127819D01*
X687940Y1128075D01*
Y1191075D01*
X687810Y1191730D01*
X688365Y1192709D01*
X688646Y1193000D01*
X1661000Y1193000D01*
X1661000Y442000D01*
D02*
G37*
%LPC*%
G36*
X697230Y697730D02*
X690460D01*
Y689460D01*
X697230D01*
Y697730D01*
D02*
G37*
G36*
X920540Y688040D02*
X904270D01*
Y679270D01*
X920540D01*
Y688040D01*
D02*
G37*
G36*
X977730Y703730D02*
X961460D01*
Y694960D01*
X977730D01*
Y703730D01*
D02*
G37*
G36*
X840540Y701730D02*
X824270D01*
Y692960D01*
X840540D01*
Y701730D01*
D02*
G37*
G36*
X821730D02*
X805460D01*
Y692960D01*
X821730D01*
Y701730D01*
D02*
G37*
G36*
X901730Y676730D02*
X885460D01*
Y667960D01*
X901730D01*
Y676730D01*
D02*
G37*
G36*
X693000Y668500D02*
X678500D01*
Y664078D01*
X660500D01*
Y664500D01*
X643500D01*
Y650000D01*
X660500D01*
Y655922D01*
X678500D01*
Y651500D01*
X681672D01*
Y637250D01*
X681672Y637250D01*
X681982Y635689D01*
X682866Y634366D01*
X684715Y632518D01*
Y629813D01*
X684855Y629105D01*
X685256Y628506D01*
X685855Y628105D01*
X686562Y627965D01*
X689268D01*
X698116Y619116D01*
X698116Y619116D01*
X699439Y618232D01*
X701000Y617922D01*
X733500D01*
Y614000D01*
X746500D01*
Y630000D01*
X733500D01*
Y626078D01*
X702689D01*
X693286Y635482D01*
Y638187D01*
X693145Y638895D01*
X692744Y639494D01*
X692145Y639895D01*
X691438Y640035D01*
X689828D01*
Y651500D01*
X693000D01*
Y668500D01*
D02*
G37*
G36*
X839000Y661500D02*
X807000D01*
Y657078D01*
X786000D01*
X786000Y657078D01*
X784439Y656768D01*
X783116Y655884D01*
X757232Y630000D01*
X748500D01*
Y614000D01*
X761500D01*
Y622732D01*
X787689Y648922D01*
X807000D01*
Y644500D01*
X839000D01*
Y661500D01*
D02*
G37*
G36*
X901730Y688040D02*
X885460D01*
Y679270D01*
X901730D01*
Y688040D01*
D02*
G37*
G36*
X567000Y674500D02*
X552500D01*
Y670078D01*
X534750D01*
X534750Y670078D01*
X533189Y669768D01*
X531866Y668884D01*
X531866Y668884D01*
X527482Y664500D01*
X517500D01*
Y650000D01*
X534500D01*
Y659982D01*
X536439Y661922D01*
X552500D01*
Y657500D01*
X559422D01*
Y634994D01*
X559355Y634895D01*
X559215Y634188D01*
Y625812D01*
X559355Y625105D01*
X559756Y624506D01*
X560355Y624105D01*
X561063Y623965D01*
X563768D01*
X567616Y620116D01*
X568939Y619232D01*
X570500Y618922D01*
X600000D01*
Y615000D01*
X613000D01*
Y631000D01*
X600000D01*
Y627078D01*
X572189D01*
X567785Y631482D01*
Y634188D01*
X567645Y634895D01*
X567578Y634994D01*
Y662250D01*
X567578Y662250D01*
X567268Y663811D01*
X567000Y664212D01*
Y674500D01*
D02*
G37*
G36*
X920540Y676730D02*
X904270D01*
Y667960D01*
X920540D01*
Y676730D01*
D02*
G37*
G36*
X996540Y703730D02*
X980270D01*
Y694960D01*
X996540D01*
Y703730D01*
D02*
G37*
G36*
Y715040D02*
X980270D01*
Y706270D01*
X996540D01*
Y715040D01*
D02*
G37*
G36*
X977730D02*
X961460D01*
Y706270D01*
X977730D01*
Y715040D01*
D02*
G37*
G36*
X840540Y713040D02*
X824270D01*
Y704270D01*
X840540D01*
Y713040D01*
D02*
G37*
G36*
X372110Y720790D02*
X350840D01*
Y711520D01*
X372110D01*
Y720790D01*
D02*
G37*
G36*
X573230Y717540D02*
X566460D01*
Y709270D01*
X573230D01*
Y717540D01*
D02*
G37*
G36*
X1099500Y725000D02*
X1088500D01*
Y720268D01*
X1077311Y709078D01*
X1075000D01*
Y713500D01*
X1043000D01*
Y696500D01*
X1075000D01*
Y700922D01*
X1079000D01*
X1079000Y700922D01*
X1080561Y701232D01*
X1081884Y702116D01*
X1094768Y715000D01*
X1099500D01*
Y725000D01*
D02*
G37*
G36*
X573230Y706730D02*
X566460D01*
Y698460D01*
X573230D01*
Y706730D01*
D02*
G37*
G36*
X806000Y796500D02*
X793000D01*
Y777500D01*
X803232D01*
X816116Y764616D01*
X816116Y764616D01*
X817439Y763732D01*
X819000Y763422D01*
X963000D01*
Y746500D01*
X963073D01*
X963559Y745327D01*
X930116Y711884D01*
X925311Y707078D01*
X919000D01*
Y711500D01*
X887000D01*
Y694500D01*
X919000D01*
Y698922D01*
X927000D01*
X927000Y698922D01*
X928561Y699232D01*
X929884Y700116D01*
X932125Y702357D01*
X936500Y697982D01*
Y688000D01*
X953500D01*
Y702500D01*
X943518D01*
X937893Y708125D01*
X976268Y746500D01*
X995000D01*
Y763422D01*
X1043000D01*
Y746500D01*
X1075000D01*
Y749436D01*
X1076270Y749962D01*
X1088500Y737732D01*
Y731000D01*
X1099500D01*
Y745000D01*
X1092768D01*
X1079884Y757884D01*
X1078561Y758768D01*
X1077000Y759078D01*
X1077000Y759078D01*
X1075000D01*
Y763422D01*
X1128000D01*
Y758879D01*
X1127439Y758768D01*
X1126116Y757884D01*
X1126116Y757884D01*
X1113232Y745000D01*
X1108500D01*
Y735000D01*
X1119500D01*
Y739732D01*
X1126827Y747059D01*
X1128000Y746573D01*
Y746500D01*
X1160000D01*
Y763422D01*
X1174811D01*
X1219922Y718311D01*
Y713500D01*
X1208000D01*
Y696500D01*
X1240000D01*
Y713500D01*
X1228078D01*
Y720000D01*
X1227768Y721561D01*
X1226884Y722884D01*
X1226884Y722884D01*
X1205807Y743960D01*
X1206604Y744960D01*
X1207671Y744960D01*
X1222730D01*
Y753730D01*
X1206460D01*
Y746221D01*
X1206460Y745104D01*
X1205460Y744307D01*
X1179384Y770384D01*
X1178061Y771268D01*
X1176500Y771578D01*
X1176500Y771578D01*
X820689D01*
X806000Y786268D01*
Y796500D01*
D02*
G37*
G36*
X1119500Y725000D02*
X1108500D01*
Y715000D01*
X1113232D01*
X1126116Y702116D01*
X1126116Y702116D01*
X1127439Y701232D01*
X1128000Y701121D01*
Y696500D01*
X1160000D01*
Y713500D01*
X1128000D01*
Y713427D01*
X1126827Y712941D01*
X1119500Y720268D01*
Y725000D01*
D02*
G37*
G36*
X821730Y713040D02*
X805460D01*
Y704270D01*
X821730D01*
Y713040D01*
D02*
G37*
G36*
X395920Y708980D02*
X374650D01*
Y699710D01*
X395920D01*
Y708980D01*
D02*
G37*
G36*
X372110D02*
X350840D01*
Y699710D01*
X372110D01*
Y708980D01*
D02*
G37*
G36*
X953500Y668000D02*
X936500D01*
Y658018D01*
X933625Y655143D01*
X932884Y655884D01*
X931561Y656768D01*
X930000Y657078D01*
X930000Y657078D01*
X919000D01*
Y661500D01*
X887000D01*
Y644500D01*
X919000D01*
Y648922D01*
X928311D01*
X931116Y646116D01*
X931116Y646116D01*
X964559Y612673D01*
X964073Y611500D01*
X964000D01*
Y594500D01*
X996000D01*
Y611500D01*
X977268D01*
X939393Y649375D01*
X943518Y653500D01*
X953500D01*
Y668000D01*
D02*
G37*
G36*
X1541000Y643625D02*
X1527270D01*
Y627270D01*
X1558500D01*
X1558286Y629438D01*
X1557283Y632745D01*
X1555654Y635792D01*
X1553463Y638463D01*
X1550792Y640655D01*
X1547745Y642283D01*
X1544438Y643286D01*
X1541000Y643625D01*
D02*
G37*
G36*
X1524730D02*
X1511000D01*
X1507562Y643286D01*
X1504255Y642283D01*
X1501208Y640655D01*
X1498537Y638463D01*
X1496346Y635792D01*
X1494717Y632745D01*
X1493714Y629438D01*
X1493500Y627270D01*
X1524730D01*
Y643625D01*
D02*
G37*
G36*
X1076000Y636500D02*
X1044000D01*
Y619500D01*
X1076000D01*
Y636500D01*
D02*
G37*
G36*
X1159540Y638040D02*
X1143270D01*
Y629270D01*
X1159540D01*
Y638040D01*
D02*
G37*
G36*
X1140730D02*
X1124460D01*
Y629270D01*
X1140730D01*
Y638040D01*
D02*
G37*
G36*
X1076000Y661500D02*
X1044000D01*
Y644500D01*
X1076000D01*
Y644573D01*
X1077173Y645059D01*
X1087500Y634732D01*
Y628000D01*
X1098500D01*
Y642000D01*
X1091768D01*
X1077884Y655884D01*
X1076561Y656768D01*
X1076000Y656879D01*
Y661500D01*
D02*
G37*
G36*
X1524730Y624730D02*
X1493500D01*
X1493714Y622561D01*
X1494717Y619255D01*
X1496346Y616208D01*
X1498537Y613537D01*
X1501208Y611345D01*
X1504255Y609717D01*
X1507562Y608714D01*
X1511000Y608375D01*
X1524730D01*
Y624730D01*
D02*
G37*
G36*
X1098500Y622000D02*
X1087500D01*
Y617268D01*
X1077311Y607078D01*
X1076000D01*
Y611500D01*
X1044000D01*
Y594500D01*
X1076000D01*
Y598922D01*
X1079000D01*
X1079000Y598922D01*
X1080561Y599232D01*
X1081884Y600116D01*
X1093768Y612000D01*
X1098500D01*
Y622000D01*
D02*
G37*
G36*
X628000Y631000D02*
X615000D01*
Y615000D01*
X628000D01*
Y618672D01*
X643500D01*
Y615500D01*
X647922D01*
Y603500D01*
X643500D01*
Y589000D01*
X660500D01*
Y603500D01*
X656078D01*
Y611245D01*
X657252Y611731D01*
X661866Y607116D01*
X663189Y606232D01*
X664750Y605922D01*
X664750Y605922D01*
X675214D01*
Y605812D01*
X675355Y605105D01*
X675756Y604506D01*
X676355Y604105D01*
X677063Y603965D01*
X681937D01*
X682645Y604105D01*
X683244Y604506D01*
X683645Y605105D01*
X683785Y605812D01*
Y614188D01*
X683645Y614895D01*
X683244Y615494D01*
X682645Y615895D01*
X681937Y616035D01*
X677063D01*
X676355Y615895D01*
X675756Y615494D01*
X675355Y614895D01*
X675214Y614188D01*
Y614078D01*
X666439D01*
X660500Y620018D01*
Y630000D01*
X643500D01*
Y626828D01*
X628000D01*
Y631000D01*
D02*
G37*
G36*
X1159540Y626730D02*
X1143270D01*
Y617960D01*
X1159540D01*
Y626730D01*
D02*
G37*
G36*
X1140730D02*
X1124460D01*
Y617960D01*
X1140730D01*
Y626730D01*
D02*
G37*
G36*
X1558500Y624730D02*
X1527270D01*
Y608375D01*
X1541000D01*
X1544438Y608714D01*
X1547745Y609717D01*
X1550792Y611345D01*
X1553463Y613537D01*
X1555654Y616208D01*
X1557283Y619255D01*
X1558286Y622561D01*
X1558500Y624730D01*
D02*
G37*
G36*
X1158000Y661500D02*
X1126000D01*
Y655768D01*
X1112232Y642000D01*
X1107500D01*
Y632000D01*
X1118500D01*
Y636732D01*
X1126268Y644500D01*
X1158000D01*
Y661500D01*
D02*
G37*
G36*
X978730Y663040D02*
X962460D01*
Y654270D01*
X978730D01*
Y663040D01*
D02*
G37*
G36*
X582540Y717540D02*
X575770D01*
Y708000D01*
Y698460D01*
X582540D01*
Y698921D01*
X583000Y700000D01*
X583810Y700000D01*
X586441D01*
Y670750D01*
X586441Y670750D01*
X586674Y669579D01*
X587000Y669092D01*
Y657500D01*
X601500D01*
Y674500D01*
X592559D01*
Y700000D01*
X596000D01*
Y705015D01*
X596953Y706441D01*
X690460D01*
Y700270D01*
X698500D01*
Y699000D01*
X699770D01*
Y689460D01*
X706540D01*
Y689921D01*
X707000Y691000D01*
X710441D01*
Y666750D01*
X710441Y666750D01*
X710674Y665580D01*
X711337Y664587D01*
X713000Y662924D01*
Y651500D01*
X727500D01*
Y668500D01*
X716559D01*
Y691000D01*
X720000D01*
Y707000D01*
X716559D01*
Y709500D01*
X716326Y710670D01*
X715663Y711663D01*
X714670Y712326D01*
X713500Y712559D01*
X596285D01*
X596000Y712985D01*
Y716000D01*
X583810D01*
X583000Y716000D01*
X582540Y717079D01*
Y717540D01*
D02*
G37*
G36*
X1239540Y651730D02*
X1223270D01*
Y642960D01*
X1239540D01*
Y651730D01*
D02*
G37*
G36*
X997540Y663040D02*
X981270D01*
Y654270D01*
X997540D01*
Y663040D01*
D02*
G37*
G36*
X1239540D02*
X1223270D01*
Y654270D01*
X1239540D01*
Y663040D01*
D02*
G37*
G36*
X1220730D02*
X1204460D01*
Y654270D01*
X1220730D01*
Y663040D01*
D02*
G37*
G36*
X485000Y644000D02*
X472000D01*
Y640078D01*
X461332D01*
Y644000D01*
X448332D01*
Y628000D01*
X461332D01*
Y631922D01*
X466995D01*
X467481Y630748D01*
X464116Y627384D01*
X463232Y626061D01*
X462922Y624500D01*
X462922Y624500D01*
Y619350D01*
X458900D01*
Y606350D01*
X475100D01*
Y619350D01*
X471078D01*
Y622811D01*
X476268Y628000D01*
X485000D01*
Y644000D01*
D02*
G37*
G36*
X446332D02*
X433332D01*
Y640078D01*
X422664D01*
Y644000D01*
X409664D01*
Y628000D01*
X422664D01*
Y631922D01*
X428326D01*
X428812Y630748D01*
X425616Y627552D01*
X424732Y626229D01*
X424422Y624668D01*
X424422Y624668D01*
Y619350D01*
X420400D01*
Y606350D01*
X436600D01*
Y619350D01*
X432578D01*
Y622979D01*
X437599Y628000D01*
X446332D01*
Y644000D01*
D02*
G37*
G36*
X407664D02*
X394664D01*
Y640078D01*
X383995D01*
Y644000D01*
X370995D01*
Y628000D01*
X383995D01*
Y631922D01*
X389658D01*
X390144Y630748D01*
X387116Y627720D01*
X386232Y626397D01*
X385922Y624836D01*
X385922Y624836D01*
Y619350D01*
X381900D01*
Y606350D01*
X398100D01*
Y619350D01*
X394078D01*
Y623147D01*
X398931Y628000D01*
X407664D01*
Y644000D01*
D02*
G37*
G36*
X1220730Y651730D02*
X1204460D01*
Y642960D01*
X1220730D01*
Y651730D01*
D02*
G37*
G36*
X997540D02*
X981270D01*
Y642960D01*
X997540D01*
Y651730D01*
D02*
G37*
G36*
X978730D02*
X962460D01*
Y642960D01*
X978730D01*
Y651730D01*
D02*
G37*
G36*
X1649488Y779530D02*
X1638320D01*
Y773195D01*
X1642050D01*
X1644018Y773454D01*
X1645853Y774214D01*
X1647428Y775422D01*
X1648636Y776998D01*
X1649396Y778832D01*
X1649488Y779530D01*
D02*
G37*
G36*
X1635780D02*
X1624612D01*
X1624704Y778832D01*
X1625464Y776998D01*
X1626672Y775422D01*
X1628248Y774214D01*
X1630082Y773454D01*
X1632050Y773195D01*
X1635780D01*
Y779530D01*
D02*
G37*
G36*
X1611488D02*
X1600320D01*
Y773195D01*
X1604050D01*
X1606018Y773454D01*
X1607853Y774214D01*
X1609428Y775422D01*
X1610636Y776998D01*
X1611396Y778832D01*
X1611488Y779530D01*
D02*
G37*
G36*
X279230Y785838D02*
X277781Y785647D01*
X275248Y784597D01*
X273072Y782928D01*
X271402Y780752D01*
X270353Y778219D01*
X270162Y776770D01*
X279230D01*
Y785838D01*
D02*
G37*
G36*
X395920Y785180D02*
X374650D01*
Y775910D01*
X395920D01*
Y785180D01*
D02*
G37*
G36*
X372110D02*
X350840D01*
Y775910D01*
X372110D01*
Y785180D01*
D02*
G37*
G36*
X290838Y774230D02*
X281770D01*
Y765162D01*
X283219Y765353D01*
X285752Y766403D01*
X287928Y768072D01*
X289597Y770248D01*
X290647Y772781D01*
X290838Y774230D01*
D02*
G37*
G36*
X279230D02*
X270162D01*
X270353Y772781D01*
X271402Y770248D01*
X273072Y768072D01*
X275248Y766403D01*
X277781Y765353D01*
X279230Y765162D01*
Y774230D01*
D02*
G37*
G36*
X395920Y771590D02*
X374650D01*
Y762320D01*
X395920D01*
Y771590D01*
D02*
G37*
G36*
X1597780Y779530D02*
X1586612D01*
X1586704Y778832D01*
X1587464Y776998D01*
X1588672Y775422D01*
X1590247Y774214D01*
X1592082Y773454D01*
X1594050Y773195D01*
X1597780D01*
Y779530D01*
D02*
G37*
G36*
X545000Y822139D02*
X543033Y821748D01*
X541366Y820634D01*
X540252Y818967D01*
X539861Y817000D01*
X540252Y815033D01*
X541366Y813366D01*
X543033Y812252D01*
X545000Y811861D01*
X546967Y812252D01*
X548634Y813366D01*
X549018Y813941D01*
X633733D01*
X672775Y774899D01*
X672249Y773629D01*
X660080D01*
X659105Y773435D01*
X658278Y772882D01*
X656944Y771549D01*
X655290D01*
Y777730D01*
X639710D01*
Y773554D01*
X638537Y773068D01*
X636250Y775355D01*
Y786500D01*
X623750D01*
Y771500D01*
X632895D01*
X637198Y767198D01*
X638025Y766645D01*
X639000Y766451D01*
X658000D01*
X658063Y766463D01*
X658688Y765293D01*
X654923Y761528D01*
X653750Y762014D01*
Y763500D01*
X641250D01*
Y748500D01*
X653750D01*
Y753163D01*
X653802Y753198D01*
X664056Y763451D01*
X670169D01*
X670974Y762469D01*
X670881Y762000D01*
X671194Y760424D01*
X672087Y759087D01*
X673424Y758194D01*
X675000Y757881D01*
X676576Y758194D01*
X677604Y758881D01*
X680539D01*
X681217Y757611D01*
X681194Y757576D01*
X680881Y756000D01*
X681194Y754424D01*
X681663Y753722D01*
Y753443D01*
X681850D01*
X682087Y753087D01*
X683424Y752194D01*
X685000Y751881D01*
X686576Y752194D01*
X687913Y753087D01*
X688150Y753443D01*
X698649D01*
Y763349D01*
Y773867D01*
X701249D01*
X715638Y759478D01*
X716300Y759036D01*
X717080Y758881D01*
X725351D01*
Y753443D01*
X742337D01*
Y761809D01*
X743877D01*
Y764730D01*
X723811D01*
Y762959D01*
X717925D01*
X703536Y777348D01*
X702874Y777790D01*
X702094Y777945D01*
X698649D01*
Y778557D01*
X691588D01*
X691327Y778732D01*
X690156Y778965D01*
X677361D01*
X637163Y819163D01*
X636171Y819826D01*
X635000Y820059D01*
X635000Y820059D01*
X549018D01*
X548634Y820634D01*
X546967Y821748D01*
X545000Y822139D01*
D02*
G37*
G36*
X325500Y849452D02*
X323183Y849147D01*
X321024Y848252D01*
X319170Y846830D01*
X317748Y844976D01*
X316854Y842817D01*
X316548Y840500D01*
X316854Y838183D01*
X317748Y836024D01*
X319170Y834170D01*
X321024Y832748D01*
X323183Y831853D01*
X324951Y831621D01*
Y784379D01*
X323183Y784146D01*
X321024Y783252D01*
X319170Y781830D01*
X317748Y779976D01*
X316854Y777817D01*
X316548Y775500D01*
X316854Y773183D01*
X317748Y771024D01*
X319170Y769170D01*
X321024Y767748D01*
X323183Y766853D01*
X325500Y766548D01*
X327817Y766853D01*
X329976Y767748D01*
X331830Y769170D01*
X333252Y771024D01*
X334147Y773183D01*
X334452Y775500D01*
X334147Y777817D01*
X333252Y779976D01*
X331830Y781830D01*
X330049Y783196D01*
Y832804D01*
X331830Y834170D01*
X333252Y836024D01*
X334147Y838183D01*
X334452Y840500D01*
X334147Y842817D01*
X333252Y844976D01*
X331830Y846830D01*
X329976Y848252D01*
X327817Y849147D01*
X325500Y849452D01*
D02*
G37*
G36*
X281770Y785838D02*
Y776770D01*
X290838D01*
X290647Y778219D01*
X289597Y780752D01*
X287928Y782928D01*
X285752Y784597D01*
X283219Y785647D01*
X281770Y785838D01*
D02*
G37*
G36*
X1311040Y797230D02*
X1305270D01*
Y786410D01*
X1311040D01*
Y797230D01*
D02*
G37*
G36*
X1302730D02*
X1296960D01*
Y786410D01*
X1302730D01*
Y797230D01*
D02*
G37*
G36*
X1642050Y788405D02*
X1638320D01*
Y782070D01*
X1649488D01*
X1649396Y782768D01*
X1648636Y784603D01*
X1647428Y786178D01*
X1645853Y787386D01*
X1644018Y788146D01*
X1642050Y788405D01*
D02*
G37*
G36*
X1284540Y870230D02*
X1275000D01*
X1265460D01*
Y863460D01*
X1265920D01*
X1267000Y863000D01*
X1267000Y862190D01*
Y850000D01*
X1283000D01*
Y851402D01*
X1310050D01*
Y848950D01*
X1323941D01*
Y809050D01*
X1321500D01*
Y787950D01*
X1332500D01*
Y809050D01*
X1330059D01*
Y848950D01*
X1343950D01*
Y857051D01*
X1344139Y858000D01*
X1343950Y858949D01*
Y864051D01*
X1344139Y865000D01*
X1343950Y865949D01*
Y870050D01*
X1339446D01*
X1339000Y870139D01*
X1338554Y870050D01*
X1316446D01*
X1316000Y870139D01*
X1315554Y870050D01*
X1310050D01*
Y861598D01*
X1283898D01*
X1283615Y861881D01*
X1283906Y863386D01*
X1284079Y863460D01*
X1284540D01*
Y870230D01*
D02*
G37*
G36*
X395920Y796990D02*
X374650D01*
Y787720D01*
X395920D01*
Y796990D01*
D02*
G37*
G36*
X372110D02*
X350840D01*
Y787720D01*
X372110D01*
Y796990D01*
D02*
G37*
G36*
X655290Y788040D02*
X648770D01*
Y780270D01*
X655290D01*
Y788040D01*
D02*
G37*
G36*
X646230D02*
X639710D01*
Y780270D01*
X646230D01*
Y788040D01*
D02*
G37*
G36*
X779000Y796500D02*
X766000D01*
Y788549D01*
X756000D01*
X755025Y788355D01*
X754198Y787802D01*
X744850Y778455D01*
X742337D01*
Y778557D01*
X725351D01*
Y770191D01*
X723811D01*
Y767270D01*
X743877D01*
Y767848D01*
X745147Y768248D01*
X753198Y760198D01*
X754025Y759645D01*
X755000Y759451D01*
X766000D01*
Y752500D01*
X779000D01*
Y761754D01*
X779049Y762000D01*
X779000Y762246D01*
Y771500D01*
X766000D01*
Y764549D01*
X756056D01*
X747900Y772704D01*
X747795Y773470D01*
X747898Y774293D01*
X757056Y783451D01*
X766000D01*
Y777500D01*
X779000D01*
Y796500D01*
D02*
G37*
G36*
X1604050Y788405D02*
X1600320D01*
Y782070D01*
X1611488D01*
X1611396Y782768D01*
X1610636Y784603D01*
X1609428Y786178D01*
X1607853Y787386D01*
X1606018Y788146D01*
X1604050Y788405D01*
D02*
G37*
G36*
X1635780D02*
X1632050D01*
X1630082Y788146D01*
X1628248Y787386D01*
X1626672Y786178D01*
X1625464Y784603D01*
X1624704Y782768D01*
X1624612Y782070D01*
X1635780D01*
Y788405D01*
D02*
G37*
G36*
X1597780D02*
X1594050D01*
X1592082Y788146D01*
X1590247Y787386D01*
X1588672Y786178D01*
X1587464Y784603D01*
X1586704Y782768D01*
X1586612Y782070D01*
X1597780D01*
Y788405D01*
D02*
G37*
G36*
X372110Y746190D02*
X350840D01*
Y736920D01*
X372110D01*
Y746190D01*
D02*
G37*
G36*
X1161540Y740040D02*
X1145270D01*
Y731270D01*
X1161540D01*
Y740040D01*
D02*
G37*
G36*
X1142730D02*
X1126460D01*
Y731270D01*
X1142730D01*
Y740040D01*
D02*
G37*
G36*
X628730Y754730D02*
X622210D01*
Y746960D01*
X628730D01*
Y754730D01*
D02*
G37*
G36*
X1241540Y753730D02*
X1225270D01*
Y744960D01*
X1241540D01*
Y753730D01*
D02*
G37*
G36*
X395920Y746190D02*
X374650D01*
Y736920D01*
X395920D01*
Y746190D01*
D02*
G37*
G36*
X1161540Y728730D02*
X1145270D01*
Y719960D01*
X1161540D01*
Y728730D01*
D02*
G37*
G36*
X1142730D02*
X1126460D01*
Y719960D01*
X1142730D01*
Y728730D01*
D02*
G37*
G36*
X395920Y720790D02*
X374650D01*
Y711520D01*
X395920D01*
Y720790D01*
D02*
G37*
G36*
Y734380D02*
X374650D01*
Y725110D01*
X395920D01*
Y734380D01*
D02*
G37*
G36*
X372110D02*
X350840D01*
Y725110D01*
X372110D01*
Y734380D01*
D02*
G37*
G36*
X1075000Y738500D02*
X1043000D01*
Y721500D01*
X1075000D01*
Y738500D01*
D02*
G37*
G36*
X637790Y754730D02*
X631270D01*
Y746960D01*
X637790D01*
Y754730D01*
D02*
G37*
G36*
Y765040D02*
X631270D01*
Y757270D01*
X637790D01*
Y765040D01*
D02*
G37*
G36*
X628730D02*
X622210D01*
Y757270D01*
X628730D01*
Y765040D01*
D02*
G37*
G36*
X1241540Y765040D02*
X1225270D01*
Y756270D01*
X1241540D01*
Y765040D01*
D02*
G37*
G36*
X372110Y771590D02*
X350840D01*
Y762320D01*
X372110D01*
Y771590D01*
D02*
G37*
G36*
X1528270Y767959D02*
Y759270D01*
X1536959D01*
X1536782Y760621D01*
X1535770Y763063D01*
X1534161Y765161D01*
X1532063Y766770D01*
X1529621Y767782D01*
X1528270Y767959D01*
D02*
G37*
G36*
X1525730D02*
X1524379Y767782D01*
X1521937Y766770D01*
X1519839Y765161D01*
X1518230Y763063D01*
X1517218Y760621D01*
X1517041Y759270D01*
X1525730D01*
Y767959D01*
D02*
G37*
G36*
X372110Y759780D02*
X350840D01*
Y750510D01*
X372110D01*
Y759780D01*
D02*
G37*
G36*
X1536959Y756730D02*
X1528270D01*
Y748041D01*
X1529621Y748218D01*
X1532063Y749230D01*
X1534161Y750839D01*
X1535770Y752937D01*
X1536782Y755379D01*
X1536959Y756730D01*
D02*
G37*
G36*
X1525730D02*
X1517041D01*
X1517218Y755379D01*
X1518230Y752937D01*
X1519839Y750839D01*
X1521937Y749230D01*
X1524379Y748218D01*
X1525730Y748041D01*
Y756730D01*
D02*
G37*
G36*
X1222730Y765040D02*
X1206460D01*
Y756270D01*
X1222730D01*
Y765040D01*
D02*
G37*
G36*
X1355500Y809050D02*
X1344500D01*
Y787950D01*
X1355500D01*
Y795441D01*
X1389233D01*
X1394587Y790087D01*
X1394587Y790087D01*
X1395580Y789424D01*
X1396750Y789191D01*
X1396750Y789191D01*
X1447331D01*
X1447956Y788256D01*
X1449788Y787031D01*
X1451950Y786601D01*
X1454112Y787031D01*
X1455944Y788256D01*
X1457169Y790088D01*
X1457402Y791263D01*
X1458697D01*
X1458781Y790838D01*
X1460006Y789006D01*
X1461451Y788040D01*
Y767500D01*
X1453500D01*
Y753000D01*
X1470500D01*
Y767500D01*
X1466549D01*
Y788040D01*
X1467994Y789006D01*
X1469219Y790838D01*
X1469648Y793000D01*
X1469219Y795162D01*
X1467994Y796994D01*
X1466162Y798219D01*
X1464000Y798649D01*
X1461838Y798219D01*
X1460006Y796994D01*
X1458781Y795162D01*
X1458548Y793987D01*
X1457253D01*
X1457169Y794412D01*
X1455944Y796244D01*
X1454112Y797469D01*
X1451950Y797898D01*
X1449788Y797469D01*
X1447956Y796244D01*
X1447331Y795309D01*
X1398017D01*
X1392663Y800663D01*
X1391671Y801326D01*
X1390500Y801559D01*
X1390500Y801559D01*
X1355500D01*
Y809050D01*
D02*
G37*
G36*
X395920Y759780D02*
X374650D01*
Y750510D01*
X395920D01*
Y759780D01*
D02*
G37*
G36*
X1498500Y733000D02*
X1481500D01*
Y723018D01*
X1397116Y638634D01*
X1396232Y637311D01*
X1395921Y635750D01*
X1395921Y635750D01*
Y523500D01*
X1391500D01*
Y506500D01*
X1408500D01*
Y523500D01*
X1404078D01*
Y634061D01*
X1488518Y718500D01*
X1498500D01*
Y733000D01*
D02*
G37*
G36*
X927338Y507230D02*
X918270D01*
Y498162D01*
X919719Y498353D01*
X922253Y499403D01*
X924428Y501072D01*
X926097Y503247D01*
X927147Y505781D01*
X927338Y507230D01*
D02*
G37*
G36*
X862338D02*
X853270D01*
Y498162D01*
X854719Y498353D01*
X857252Y499403D01*
X859428Y501072D01*
X861097Y503247D01*
X862147Y505781D01*
X862338Y507230D01*
D02*
G37*
G36*
X915730Y518838D02*
X914281Y518647D01*
X911748Y517597D01*
X909572Y515928D01*
X907903Y513752D01*
X906853Y511219D01*
X906662Y509770D01*
X915730D01*
Y518838D01*
D02*
G37*
G36*
X850730D02*
X849281Y518647D01*
X846748Y517597D01*
X844572Y515928D01*
X842903Y513752D01*
X841853Y511219D01*
X841662Y509770D01*
X850730D01*
Y518838D01*
D02*
G37*
G36*
X1470500Y733000D02*
X1453500D01*
Y722018D01*
X1357116Y625634D01*
X1356232Y624311D01*
X1355922Y622750D01*
X1355922Y622750D01*
Y524000D01*
X1351500D01*
Y507000D01*
X1368500D01*
Y524000D01*
X1364078D01*
Y621061D01*
X1461518Y718500D01*
X1470500D01*
Y733000D01*
D02*
G37*
G36*
X582838Y507230D02*
X573770D01*
Y498162D01*
X575219Y498353D01*
X577752Y499403D01*
X579928Y501072D01*
X581598Y503247D01*
X582647Y505781D01*
X582838Y507230D01*
D02*
G37*
G36*
X1195230D02*
X1186162D01*
X1186353Y505781D01*
X1187403Y503247D01*
X1189072Y501072D01*
X1191248Y499403D01*
X1193781Y498353D01*
X1195230Y498162D01*
Y507230D01*
D02*
G37*
G36*
X1130230D02*
X1121162D01*
X1121353Y505781D01*
X1122402Y503247D01*
X1124072Y501072D01*
X1126248Y499403D01*
X1128781Y498353D01*
X1130230Y498162D01*
Y507230D01*
D02*
G37*
G36*
X1206838D02*
X1197770D01*
Y498162D01*
X1199219Y498353D01*
X1201752Y499403D01*
X1203928Y501072D01*
X1205598Y503247D01*
X1206647Y505781D01*
X1206838Y507230D01*
D02*
G37*
G36*
X1141838D02*
X1132770D01*
Y498162D01*
X1134219Y498353D01*
X1136752Y499403D01*
X1138928Y501072D01*
X1140598Y503247D01*
X1141647Y505781D01*
X1141838Y507230D01*
D02*
G37*
G36*
X647838D02*
X638770D01*
Y498162D01*
X640219Y498353D01*
X642753Y499403D01*
X644928Y501072D01*
X646598Y503247D01*
X647647Y505781D01*
X647838Y507230D01*
D02*
G37*
G36*
X853270Y518838D02*
Y509770D01*
X862338D01*
X862147Y511219D01*
X861097Y513752D01*
X859428Y515928D01*
X857252Y517597D01*
X854719Y518647D01*
X853270Y518838D01*
D02*
G37*
G36*
X1197770D02*
Y509770D01*
X1206838D01*
X1206647Y511219D01*
X1205598Y513752D01*
X1203928Y515928D01*
X1201752Y517597D01*
X1199219Y518647D01*
X1197770Y518838D01*
D02*
G37*
G36*
X1132770D02*
Y509770D01*
X1141838D01*
X1141647Y511219D01*
X1140598Y513752D01*
X1138928Y515928D01*
X1136752Y517597D01*
X1134219Y518647D01*
X1132770Y518838D01*
D02*
G37*
G36*
X638770D02*
Y509770D01*
X647838D01*
X647647Y511219D01*
X646598Y513752D01*
X644928Y515928D01*
X642753Y517597D01*
X640219Y518647D01*
X638770Y518838D01*
D02*
G37*
G36*
X641230Y535730D02*
X632460D01*
Y526960D01*
X641230D01*
Y535730D01*
D02*
G37*
G36*
X1541000Y529625D02*
X1527270D01*
Y513270D01*
X1558500D01*
X1558286Y515438D01*
X1557283Y518745D01*
X1555654Y521792D01*
X1553463Y524463D01*
X1550792Y526655D01*
X1547745Y528283D01*
X1544438Y529286D01*
X1541000Y529625D01*
D02*
G37*
G36*
X1524730D02*
X1511000D01*
X1507562Y529286D01*
X1504255Y528283D01*
X1501208Y526655D01*
X1498537Y524463D01*
X1496346Y521792D01*
X1494717Y518745D01*
X1493714Y515438D01*
X1493500Y513270D01*
X1524730D01*
Y529625D01*
D02*
G37*
G36*
X636230Y518838D02*
X634781Y518647D01*
X632248Y517597D01*
X630072Y515928D01*
X628403Y513752D01*
X627353Y511219D01*
X627162Y509770D01*
X636230D01*
Y518838D01*
D02*
G37*
G36*
X571230D02*
X569781Y518647D01*
X567248Y517597D01*
X565072Y515928D01*
X563402Y513752D01*
X562353Y511219D01*
X562162Y509770D01*
X571230D01*
Y518838D01*
D02*
G37*
G36*
X918270Y518838D02*
Y509770D01*
X927338D01*
X927147Y511219D01*
X926097Y513752D01*
X924428Y515928D01*
X922253Y517597D01*
X919719Y518647D01*
X918270Y518838D01*
D02*
G37*
G36*
X573770D02*
Y509770D01*
X582838D01*
X582647Y511219D01*
X581598Y513752D01*
X579928Y515928D01*
X577752Y517597D01*
X575219Y518647D01*
X573770Y518838D01*
D02*
G37*
G36*
X1195230Y518838D02*
X1193781Y518647D01*
X1191248Y517597D01*
X1189072Y515928D01*
X1187403Y513752D01*
X1186353Y511219D01*
X1186162Y509770D01*
X1195230D01*
Y518838D01*
D02*
G37*
G36*
X1130230D02*
X1128781Y518647D01*
X1126248Y517597D01*
X1124072Y515928D01*
X1122402Y513752D01*
X1121353Y511219D01*
X1121162Y509770D01*
X1130230D01*
Y518838D01*
D02*
G37*
G36*
X1410040Y478730D02*
X1401270D01*
Y469960D01*
X1410040D01*
Y478730D01*
D02*
G37*
G36*
X1398730D02*
X1389960D01*
Y469960D01*
X1398730D01*
Y478730D01*
D02*
G37*
G36*
X1196500Y472452D02*
X1194183Y472146D01*
X1192024Y471252D01*
X1190170Y469830D01*
X1188748Y467976D01*
X1187853Y465817D01*
X1187817Y465539D01*
X1140183D01*
X1140146Y465817D01*
X1139252Y467976D01*
X1137830Y469830D01*
X1135976Y471252D01*
X1133817Y472146D01*
X1131500Y472452D01*
X1129183Y472146D01*
X1127024Y471252D01*
X1125170Y469830D01*
X1123748Y467976D01*
X1122853Y465817D01*
X1122548Y463500D01*
X1122853Y461183D01*
X1123748Y459024D01*
X1125170Y457170D01*
X1127024Y455748D01*
X1129183Y454853D01*
X1131500Y454548D01*
X1133817Y454853D01*
X1135976Y455748D01*
X1137830Y457170D01*
X1139252Y459024D01*
X1140146Y461183D01*
X1140183Y461461D01*
X1187817D01*
X1187853Y461183D01*
X1188748Y459024D01*
X1190170Y457170D01*
X1192024Y455748D01*
X1194183Y454853D01*
X1196500Y454548D01*
X1198817Y454853D01*
X1200976Y455748D01*
X1202830Y457170D01*
X1204252Y459024D01*
X1205147Y461183D01*
X1205452Y463500D01*
X1205147Y465817D01*
X1204252Y467976D01*
X1202830Y469830D01*
X1200976Y471252D01*
X1198817Y472146D01*
X1196500Y472452D01*
D02*
G37*
G36*
X293730Y497524D02*
X290581Y497214D01*
X286333Y495925D01*
X282417Y493832D01*
X278985Y491015D01*
X276168Y487583D01*
X274075Y483667D01*
X272786Y479419D01*
X272476Y476270D01*
X293730D01*
Y497524D01*
D02*
G37*
G36*
X1370040Y479230D02*
X1361270D01*
Y470460D01*
X1370040D01*
Y479230D01*
D02*
G37*
G36*
X1358730D02*
X1349960D01*
Y470460D01*
X1358730D01*
Y479230D01*
D02*
G37*
G36*
X1622730Y473730D02*
X1601476D01*
X1601786Y470581D01*
X1603075Y466333D01*
X1605168Y462417D01*
X1607985Y458985D01*
X1611417Y456168D01*
X1615333Y454075D01*
X1619581Y452786D01*
X1622730Y452476D01*
Y473730D01*
D02*
G37*
G36*
X317524D02*
X296270D01*
Y452476D01*
X299419Y452786D01*
X303667Y454075D01*
X307583Y456168D01*
X311015Y458985D01*
X313832Y462417D01*
X315925Y466333D01*
X317214Y470581D01*
X317524Y473730D01*
D02*
G37*
G36*
X293730D02*
X272476D01*
X272786Y470581D01*
X274075Y466333D01*
X276168Y462417D01*
X278985Y458985D01*
X282417Y456168D01*
X286333Y454075D01*
X290581Y452786D01*
X293730Y452476D01*
Y473730D01*
D02*
G37*
G36*
X917000Y472452D02*
X914683Y472146D01*
X912524Y471252D01*
X910670Y469830D01*
X909248Y467976D01*
X908354Y465817D01*
X908317Y465539D01*
X860683D01*
X860647Y465817D01*
X859752Y467976D01*
X858330Y469830D01*
X856476Y471252D01*
X854317Y472146D01*
X852000Y472452D01*
X849683Y472146D01*
X847524Y471252D01*
X845670Y469830D01*
X844248Y467976D01*
X843354Y465817D01*
X843048Y463500D01*
X843354Y461183D01*
X844248Y459024D01*
X845670Y457170D01*
X847524Y455748D01*
X849683Y454853D01*
X852000Y454548D01*
X854317Y454853D01*
X856476Y455748D01*
X858330Y457170D01*
X859752Y459024D01*
X860647Y461183D01*
X860683Y461461D01*
X908317D01*
X908354Y461183D01*
X909248Y459024D01*
X910670Y457170D01*
X912524Y455748D01*
X914683Y454853D01*
X917000Y454548D01*
X919317Y454853D01*
X921476Y455748D01*
X923330Y457170D01*
X924752Y459024D01*
X925647Y461183D01*
X925952Y463500D01*
X925647Y465817D01*
X924752Y467976D01*
X923330Y469830D01*
X921476Y471252D01*
X919317Y472146D01*
X917000Y472452D01*
D02*
G37*
G36*
X637500D02*
X635183Y472146D01*
X633024Y471252D01*
X631170Y469830D01*
X629748Y467976D01*
X628853Y465817D01*
X628817Y465539D01*
X581183D01*
X581147Y465817D01*
X580252Y467976D01*
X578830Y469830D01*
X576976Y471252D01*
X574817Y472146D01*
X572500Y472452D01*
X570183Y472146D01*
X568024Y471252D01*
X566170Y469830D01*
X564748Y467976D01*
X563853Y465817D01*
X563548Y463500D01*
X563853Y461183D01*
X564748Y459024D01*
X566170Y457170D01*
X568024Y455748D01*
X570183Y454853D01*
X572500Y454548D01*
X574817Y454853D01*
X576976Y455748D01*
X578830Y457170D01*
X580252Y459024D01*
X581147Y461183D01*
X581183Y461461D01*
X628817D01*
X628853Y461183D01*
X629748Y459024D01*
X631170Y457170D01*
X633024Y455748D01*
X635183Y454853D01*
X637500Y454548D01*
X639817Y454853D01*
X641976Y455748D01*
X643830Y457170D01*
X645252Y459024D01*
X646147Y461183D01*
X646452Y463500D01*
X646147Y465817D01*
X645252Y467976D01*
X643830Y469830D01*
X641976Y471252D01*
X639817Y472146D01*
X637500Y472452D01*
D02*
G37*
G36*
X1646524Y473730D02*
X1625270D01*
Y452476D01*
X1628419Y452786D01*
X1632667Y454075D01*
X1636583Y456168D01*
X1640015Y458985D01*
X1642832Y462417D01*
X1644925Y466333D01*
X1646214Y470581D01*
X1646524Y473730D01*
D02*
G37*
G36*
X296270Y497524D02*
Y476270D01*
X317524D01*
X317214Y479419D01*
X315925Y483667D01*
X313832Y487583D01*
X311015Y491015D01*
X307583Y493832D01*
X303667Y495925D01*
X299419Y497214D01*
X296270Y497524D01*
D02*
G37*
G36*
X850730Y507230D02*
X841662D01*
X841853Y505781D01*
X842903Y503247D01*
X844572Y501072D01*
X846748Y499403D01*
X849281Y498353D01*
X850730Y498162D01*
Y507230D01*
D02*
G37*
G36*
X1558500Y510730D02*
X1527270D01*
Y494375D01*
X1541000D01*
X1544438Y494714D01*
X1547745Y495717D01*
X1550792Y497345D01*
X1553463Y499537D01*
X1555654Y502208D01*
X1557283Y505255D01*
X1558286Y508562D01*
X1558500Y510730D01*
D02*
G37*
G36*
X1524730D02*
X1493500D01*
X1493714Y508562D01*
X1494717Y505255D01*
X1496346Y502208D01*
X1498537Y499537D01*
X1501208Y497345D01*
X1504255Y495717D01*
X1507562Y494714D01*
X1511000Y494375D01*
X1524730D01*
Y510730D01*
D02*
G37*
G36*
X636230Y507230D02*
X627162D01*
X627353Y505781D01*
X628403Y503247D01*
X630072Y501072D01*
X632248Y499403D01*
X634781Y498353D01*
X636230Y498162D01*
Y507230D01*
D02*
G37*
G36*
X571230D02*
X562162D01*
X562353Y505781D01*
X563402Y503247D01*
X565072Y501072D01*
X567248Y499403D01*
X569781Y498353D01*
X571230Y498162D01*
Y507230D01*
D02*
G37*
G36*
X915730Y507230D02*
X906662D01*
X906853Y505781D01*
X907903Y503247D01*
X909572Y501072D01*
X911748Y499403D01*
X914281Y498353D01*
X915730Y498162D01*
Y507230D01*
D02*
G37*
G36*
X1398730Y490040D02*
X1389960D01*
Y481270D01*
X1398730D01*
Y490040D01*
D02*
G37*
G36*
X1625270Y497524D02*
Y476270D01*
X1646524D01*
X1646214Y479419D01*
X1644925Y483667D01*
X1642832Y487583D01*
X1640015Y491015D01*
X1636583Y493832D01*
X1632667Y495925D01*
X1628419Y497214D01*
X1625270Y497524D01*
D02*
G37*
G36*
X1622730D02*
X1619581Y497214D01*
X1615333Y495925D01*
X1611417Y493832D01*
X1607985Y491015D01*
X1605168Y487583D01*
X1603075Y483667D01*
X1601786Y479419D01*
X1601476Y476270D01*
X1622730D01*
Y497524D01*
D02*
G37*
G36*
X1370040Y490540D02*
X1361270D01*
Y481770D01*
X1370040D01*
Y490540D01*
D02*
G37*
G36*
X1358730D02*
X1349960D01*
Y481770D01*
X1358730D01*
Y490540D01*
D02*
G37*
G36*
X1410040Y490040D02*
X1401270D01*
Y481270D01*
X1410040D01*
Y490040D01*
D02*
G37*
G36*
X388730Y593880D02*
X380360D01*
Y587110D01*
X388730D01*
Y593880D01*
D02*
G37*
G36*
X1451000Y603330D02*
X1448585Y603012D01*
X1446335Y602080D01*
X1444403Y600597D01*
X1442920Y598665D01*
X1441988Y596415D01*
X1441670Y594000D01*
X1441988Y591585D01*
X1442920Y589335D01*
X1444403Y587403D01*
X1446335Y585920D01*
X1448585Y584988D01*
X1451000Y584670D01*
X1453415Y584988D01*
X1455665Y585920D01*
X1457597Y587403D01*
X1459080Y589335D01*
X1460012Y591585D01*
X1460330Y594000D01*
X1460012Y596415D01*
X1459080Y598665D01*
X1457597Y600597D01*
X1455665Y602080D01*
X1453415Y603012D01*
X1451000Y603330D01*
D02*
G37*
G36*
X1606790Y592730D02*
X1597270D01*
Y583210D01*
X1606790D01*
Y592730D01*
D02*
G37*
G36*
X438140Y593880D02*
X429770D01*
Y587110D01*
X438140D01*
Y593880D01*
D02*
G37*
G36*
X427230D02*
X418860D01*
Y587110D01*
X427230D01*
Y593880D01*
D02*
G37*
G36*
X399640Y593880D02*
X391270D01*
Y587110D01*
X399640D01*
Y593880D01*
D02*
G37*
G36*
X1449730Y579716D02*
X1448183Y579512D01*
X1445558Y578425D01*
X1443304Y576696D01*
X1441575Y574441D01*
X1440488Y571817D01*
X1440284Y570270D01*
X1449730D01*
Y579716D01*
D02*
G37*
G36*
X662040Y570540D02*
X653270D01*
Y563020D01*
X662040D01*
Y570540D01*
D02*
G37*
G36*
X650730D02*
X641960D01*
Y563020D01*
X650730D01*
Y570540D01*
D02*
G37*
G36*
X1594730Y592730D02*
X1585210D01*
Y583210D01*
X1594730D01*
Y592730D01*
D02*
G37*
G36*
X806000Y771500D02*
X793000D01*
Y752500D01*
X803232D01*
X820616Y735116D01*
X821939Y734232D01*
X823500Y733922D01*
X823500Y733922D01*
X841311D01*
X858922Y716311D01*
Y622000D01*
X858922Y622000D01*
X859232Y620439D01*
X860116Y619116D01*
X902116Y577116D01*
X903439Y576232D01*
X905000Y575922D01*
X905000Y575922D01*
X1199000D01*
X1199000Y575922D01*
X1200561Y576232D01*
X1201884Y577116D01*
X1219268Y594500D01*
X1238000D01*
Y611500D01*
X1206000D01*
Y594500D01*
X1206073D01*
X1206559Y593327D01*
X1197311Y584078D01*
X906689D01*
X867078Y623689D01*
Y718000D01*
X867078Y718000D01*
X866768Y719561D01*
X865884Y720884D01*
X865884Y720884D01*
X845884Y740884D01*
X844561Y741768D01*
X843000Y742078D01*
X843000Y742078D01*
X825189D01*
X806000Y761268D01*
Y771500D01*
D02*
G37*
G36*
X1452270Y579716D02*
Y570270D01*
X1461716D01*
X1461512Y571817D01*
X1460425Y574441D01*
X1458696Y576696D01*
X1456442Y578425D01*
X1453817Y579512D01*
X1452270Y579716D01*
D02*
G37*
G36*
X465730Y593880D02*
X457360D01*
Y587110D01*
X465730D01*
Y593880D01*
D02*
G37*
G36*
X476640Y603190D02*
X468270D01*
Y596420D01*
X476640D01*
Y603190D01*
D02*
G37*
G36*
X438140D02*
X429770D01*
Y596420D01*
X438140D01*
Y603190D01*
D02*
G37*
G36*
X465730D02*
X457360D01*
Y596420D01*
X465730D01*
Y603190D01*
D02*
G37*
G36*
X500000Y644000D02*
X487000D01*
Y628000D01*
X500000D01*
X500000Y628000D01*
Y628000D01*
X500941Y627291D01*
X508366Y619866D01*
X508366Y619866D01*
X509689Y618982D01*
X511250Y618672D01*
X517500D01*
Y615500D01*
X521922D01*
Y592500D01*
X517500D01*
Y578000D01*
X534500D01*
Y592500D01*
X530078D01*
Y611245D01*
X531252Y611731D01*
X539866Y603116D01*
X539866Y603116D01*
X541189Y602232D01*
X542750Y601922D01*
X549715D01*
Y601813D01*
X549855Y601105D01*
X550256Y600506D01*
X550855Y600105D01*
X551562Y599964D01*
X556437D01*
X557145Y600105D01*
X557744Y600506D01*
X558145Y601105D01*
X558285Y601813D01*
Y610187D01*
X558145Y610895D01*
X557744Y611494D01*
X557145Y611895D01*
X556437Y612035D01*
X551562D01*
X550855Y611895D01*
X550256Y611494D01*
X549855Y610895D01*
X549715Y610187D01*
Y610078D01*
X544439D01*
X534500Y620018D01*
Y630000D01*
X517500D01*
Y626828D01*
X512939D01*
X500884Y638884D01*
X500000Y639474D01*
Y644000D01*
D02*
G37*
G36*
X399640Y603190D02*
X391270D01*
Y596420D01*
X399640D01*
Y603190D01*
D02*
G37*
G36*
X388730D02*
X380360D01*
Y596420D01*
X388730D01*
Y603190D01*
D02*
G37*
G36*
X1118500Y622000D02*
X1107500D01*
Y612000D01*
X1112232D01*
X1124116Y600116D01*
X1125439Y599232D01*
X1126000Y599120D01*
Y594500D01*
X1158000D01*
Y611500D01*
X1126000D01*
Y611427D01*
X1124827Y610941D01*
X1118500Y617268D01*
Y622000D01*
D02*
G37*
G36*
X635100Y607350D02*
X618900D01*
Y594350D01*
X635100D01*
Y607350D01*
D02*
G37*
G36*
X476640Y593880D02*
X468270D01*
Y587110D01*
X476640D01*
Y593880D01*
D02*
G37*
G36*
X427230Y603190D02*
X418860D01*
Y596420D01*
X427230D01*
Y603190D01*
D02*
G37*
G36*
X1606790Y604790D02*
X1597270D01*
Y595270D01*
X1606790D01*
Y604790D01*
D02*
G37*
G36*
X1594730D02*
X1585210D01*
Y595270D01*
X1594730D01*
Y604790D01*
D02*
G37*
G36*
X567730Y551480D02*
X558960D01*
Y543960D01*
X567730D01*
Y551480D01*
D02*
G37*
G36*
X536040Y549480D02*
X527270D01*
Y541960D01*
X536040D01*
Y549480D01*
D02*
G37*
G36*
X524730D02*
X515960D01*
Y541960D01*
X524730D01*
Y549480D01*
D02*
G37*
G36*
X709040Y551480D02*
X700270D01*
Y543960D01*
X709040D01*
Y551480D01*
D02*
G37*
G36*
X697730D02*
X688960D01*
Y543960D01*
X697730D01*
Y551480D01*
D02*
G37*
G36*
X579040Y551480D02*
X570270D01*
Y543960D01*
X579040D01*
Y551480D01*
D02*
G37*
G36*
X1451000Y553330D02*
X1448585Y553012D01*
X1446335Y552080D01*
X1444403Y550597D01*
X1442920Y548665D01*
X1441988Y546415D01*
X1441670Y544000D01*
X1441988Y541585D01*
X1442920Y539335D01*
X1444403Y537403D01*
X1446335Y535920D01*
X1448585Y534988D01*
X1451000Y534670D01*
X1453415Y534988D01*
X1455665Y535920D01*
X1457597Y537403D01*
X1459080Y539335D01*
X1460012Y541585D01*
X1460330Y544000D01*
X1460012Y546415D01*
X1459080Y548665D01*
X1457597Y550597D01*
X1455665Y552080D01*
X1453415Y553012D01*
X1451000Y553330D01*
D02*
G37*
G36*
X575438Y612035D02*
X570563D01*
X569855Y611895D01*
X569256Y611494D01*
X568855Y610895D01*
X568714Y610187D01*
Y601813D01*
X568855Y601105D01*
X568922Y601006D01*
Y594500D01*
X560500D01*
Y580000D01*
X576482D01*
X579366Y577116D01*
X580689Y576232D01*
X582250Y575922D01*
X582250Y575922D01*
X598000D01*
Y569000D01*
X610487D01*
X610961Y567891D01*
X610226Y567000D01*
X598000D01*
Y554000D01*
X602922D01*
Y545500D01*
X599000D01*
Y528500D01*
X616000D01*
Y545500D01*
X611078D01*
Y554000D01*
X614000D01*
Y559232D01*
X629884Y575116D01*
X629884Y575116D01*
X630768Y576439D01*
X630810Y576650D01*
X635100D01*
Y589650D01*
X618900D01*
Y576650D01*
X618900D01*
X619188Y575955D01*
X615173Y571941D01*
X614000Y572427D01*
Y582000D01*
X610974D01*
X610384Y582884D01*
X609061Y583768D01*
X607500Y584078D01*
X583939D01*
X577500Y590518D01*
Y594500D01*
X577078D01*
Y601006D01*
X577145Y601105D01*
X577285Y601813D01*
Y610187D01*
X577145Y610895D01*
X576744Y611494D01*
X576145Y611895D01*
X575438Y612035D01*
D02*
G37*
G36*
X652540Y535730D02*
X643770D01*
Y526960D01*
X652540D01*
Y535730D01*
D02*
G37*
G36*
Y547040D02*
X643770D01*
Y538270D01*
X652540D01*
Y547040D01*
D02*
G37*
G36*
X641230D02*
X632460D01*
Y538270D01*
X641230D01*
Y547040D01*
D02*
G37*
G36*
X1596000Y553330D02*
X1593585Y553012D01*
X1591335Y552080D01*
X1589403Y550597D01*
X1587920Y548665D01*
X1586988Y546415D01*
X1586670Y544000D01*
X1586988Y541585D01*
X1587920Y539335D01*
X1589403Y537403D01*
X1591335Y535920D01*
X1593585Y534988D01*
X1596000Y534670D01*
X1598415Y534988D01*
X1600665Y535920D01*
X1602597Y537403D01*
X1604080Y539335D01*
X1605012Y541585D01*
X1605330Y544000D01*
X1605012Y546415D01*
X1604080Y548665D01*
X1602597Y550597D01*
X1600665Y552080D01*
X1598415Y553012D01*
X1596000Y553330D01*
D02*
G37*
G36*
X524730Y559540D02*
X515960D01*
Y552020D01*
X524730D01*
Y559540D01*
D02*
G37*
G36*
X709040Y561540D02*
X700270D01*
Y554020D01*
X709040D01*
Y561540D01*
D02*
G37*
G36*
X697730D02*
X688960D01*
Y554020D01*
X697730D01*
Y561540D01*
D02*
G37*
G36*
X579040D02*
X570270D01*
Y554020D01*
X579040D01*
Y561540D01*
D02*
G37*
G36*
X700938Y616035D02*
X696062D01*
X695355Y615895D01*
X694756Y615494D01*
X694355Y614895D01*
X694214Y614188D01*
Y605812D01*
X694355Y605105D01*
X694756Y604506D01*
X694922Y604395D01*
Y594500D01*
X690500D01*
Y580000D01*
X700482D01*
X707866Y572616D01*
X707866Y572616D01*
X709189Y571732D01*
X710750Y571422D01*
X710750Y571422D01*
X729102D01*
X730000Y570524D01*
X730000Y569000D01*
X728921Y568540D01*
X728460D01*
Y561770D01*
X747540D01*
Y568540D01*
X747079D01*
X746000Y569000D01*
X746000Y569810D01*
Y582000D01*
X730000D01*
Y579578D01*
X712439D01*
X707500Y584518D01*
Y594500D01*
X703078D01*
Y609500D01*
X703078Y609500D01*
X702785Y610972D01*
Y614188D01*
X702645Y614895D01*
X702244Y615494D01*
X701645Y615895D01*
X700938Y616035D01*
D02*
G37*
G36*
X1461716Y567730D02*
X1452270D01*
Y558284D01*
X1453817Y558488D01*
X1456442Y559575D01*
X1458696Y561304D01*
X1460425Y563558D01*
X1461512Y566183D01*
X1461716Y567730D01*
D02*
G37*
G36*
X1449730D02*
X1440284D01*
X1440488Y566183D01*
X1441575Y563558D01*
X1443304Y561304D01*
X1445558Y559575D01*
X1448183Y558488D01*
X1449730Y558284D01*
Y567730D01*
D02*
G37*
G36*
X747540Y559230D02*
X739270D01*
Y552460D01*
X747540D01*
Y559230D01*
D02*
G37*
G36*
X736730D02*
X728460D01*
Y552460D01*
X736730D01*
Y559230D01*
D02*
G37*
G36*
X536040Y559540D02*
X527270D01*
Y552020D01*
X536040D01*
Y559540D01*
D02*
G37*
G36*
X567730Y561540D02*
X558960D01*
Y554020D01*
X567730D01*
Y561540D01*
D02*
G37*
G36*
X662040Y560480D02*
X653270D01*
Y552960D01*
X662040D01*
Y560480D01*
D02*
G37*
G36*
X650730D02*
X641960D01*
Y552960D01*
X650730D01*
Y560480D01*
D02*
G37*
G36*
X1302730Y810590D02*
X1296960D01*
Y799770D01*
X1302730D01*
Y810590D01*
D02*
G37*
G36*
X1191730Y1026540D02*
X1181960D01*
Y1019770D01*
X1191730D01*
Y1026540D01*
D02*
G37*
G36*
X624000Y1025139D02*
X622034Y1024748D01*
X620366Y1023634D01*
X619587Y1022467D01*
X619025Y1022355D01*
X618198Y1021802D01*
X614063Y1017668D01*
X612890Y1018154D01*
Y1021555D01*
X604970D01*
Y1013635D01*
X608371D01*
X608857Y1012462D01*
X549098Y952702D01*
X548678Y952075D01*
X545400Y952075D01*
X545240Y953279D01*
Y953615D01*
X539470D01*
Y941075D01*
Y928535D01*
X545240D01*
Y928871D01*
X545400Y930075D01*
X546510Y930075D01*
X556400D01*
Y952075D01*
X556400Y952075D01*
X556400D01*
X556807Y953202D01*
X620007Y1016402D01*
X620366Y1016366D01*
X622034Y1015252D01*
X624000Y1014861D01*
X625966Y1015252D01*
X627634Y1016366D01*
X628748Y1018034D01*
X629139Y1020000D01*
X628748Y1021966D01*
X627634Y1023634D01*
X625966Y1024748D01*
X624000Y1025139D01*
D02*
G37*
G36*
X1204040Y1026540D02*
X1194270D01*
Y1019770D01*
X1204040D01*
Y1026540D01*
D02*
G37*
G36*
X1171890Y1027390D02*
X1164270D01*
Y1023620D01*
X1171890D01*
Y1027390D01*
D02*
G37*
G36*
X1161730D02*
X1154110D01*
Y1023620D01*
X1161730D01*
Y1027390D01*
D02*
G37*
G36*
X1171890Y1021080D02*
X1164270D01*
Y1017310D01*
X1171890D01*
Y1021080D01*
D02*
G37*
G36*
X565730Y1021555D02*
X557810D01*
Y1013635D01*
X565730D01*
Y1021555D01*
D02*
G37*
G36*
X1204040Y1017230D02*
X1194270D01*
Y1010460D01*
X1204040D01*
Y1017230D01*
D02*
G37*
G36*
X372110Y1025590D02*
X350840D01*
Y1016320D01*
X372110D01*
Y1025590D01*
D02*
G37*
G36*
X1161730Y1021080D02*
X1154110D01*
Y1017310D01*
X1161730D01*
Y1021080D01*
D02*
G37*
G36*
X395920Y1025590D02*
X374650D01*
Y1016320D01*
X395920D01*
Y1025590D01*
D02*
G37*
G36*
X866000Y1044139D02*
X864034Y1043748D01*
X862366Y1042634D01*
X861252Y1040966D01*
X860861Y1039000D01*
X861252Y1037033D01*
X862366Y1035366D01*
X864034Y1034252D01*
X866000Y1033861D01*
X867967Y1034252D01*
X869634Y1035366D01*
X870188Y1036196D01*
X1097889D01*
X1099650Y1034435D01*
Y1031550D01*
X1114350D01*
Y1038550D01*
X1103465D01*
X1101033Y1040983D01*
X1100123Y1041590D01*
X1099050Y1041804D01*
X870188D01*
X869634Y1042634D01*
X867967Y1043748D01*
X866000Y1044139D01*
D02*
G37*
G36*
X1219000Y1091000D02*
X1189000D01*
Y1061000D01*
X1219000D01*
Y1091000D01*
D02*
G37*
G36*
X612890Y1068715D02*
X604970D01*
Y1060795D01*
X612890D01*
Y1068715D01*
D02*
G37*
G36*
X1369000Y1092000D02*
X1339000D01*
Y1062000D01*
X1369000D01*
Y1092000D01*
D02*
G37*
G36*
X1016000Y1079573D02*
X1013781Y1079281D01*
X1011713Y1078425D01*
X1009938Y1077062D01*
X1008575Y1075287D01*
X1007719Y1073219D01*
X1007427Y1071000D01*
X1007719Y1068781D01*
X1008575Y1066713D01*
X1009938Y1064938D01*
X1011713Y1063575D01*
X1013781Y1062719D01*
X1016000Y1062427D01*
X1018219Y1062719D01*
X1020287Y1063575D01*
X1022062Y1064938D01*
X1023425Y1066713D01*
X1024281Y1068781D01*
X1024573Y1071000D01*
X1024281Y1073219D01*
X1023425Y1075287D01*
X1022062Y1077062D01*
X1020287Y1078425D01*
X1018219Y1079281D01*
X1016000Y1079573D01*
D02*
G37*
G36*
X990600D02*
X988381Y1079281D01*
X986313Y1078425D01*
X984538Y1077062D01*
X983175Y1075287D01*
X982319Y1073219D01*
X982027Y1071000D01*
X982319Y1068781D01*
X983175Y1066713D01*
X984538Y1064938D01*
X986313Y1063575D01*
X988381Y1062719D01*
X990600Y1062427D01*
X992819Y1062719D01*
X994887Y1063575D01*
X996662Y1064938D01*
X998025Y1066713D01*
X998881Y1068781D01*
X999173Y1071000D01*
X998881Y1073219D01*
X998025Y1075287D01*
X996662Y1077062D01*
X994887Y1078425D01*
X992819Y1079281D01*
X990600Y1079573D01*
D02*
G37*
G36*
X521350Y1070875D02*
X499350D01*
Y1059875D01*
X521350D01*
Y1070875D01*
D02*
G37*
G36*
Y1058175D02*
X499350D01*
Y1047175D01*
X521350D01*
Y1058175D01*
D02*
G37*
G36*
X1556500Y1057608D02*
X1533500D01*
X1530237Y1057178D01*
X1527196Y1055919D01*
X1524585Y1053915D01*
X1522581Y1051304D01*
X1521322Y1048263D01*
X1520892Y1045000D01*
X1521322Y1041737D01*
X1522581Y1038696D01*
X1524585Y1036085D01*
X1527196Y1034081D01*
X1530237Y1032822D01*
X1533500Y1032392D01*
X1556500D01*
X1559763Y1032822D01*
X1562804Y1034081D01*
X1565415Y1036085D01*
X1567419Y1038696D01*
X1568678Y1041737D01*
X1569108Y1045000D01*
X1568678Y1048263D01*
X1567419Y1051304D01*
X1565415Y1053915D01*
X1562804Y1055919D01*
X1559763Y1057178D01*
X1556500Y1057608D01*
D02*
G37*
G36*
X1485000Y1062730D02*
X1476270D01*
Y1054000D01*
X1477631Y1054180D01*
X1480083Y1055195D01*
X1482189Y1056811D01*
X1483805Y1058916D01*
X1484821Y1061369D01*
X1485000Y1062730D01*
D02*
G37*
G36*
X602430Y1068715D02*
X586620D01*
Y1059525D01*
X584080D01*
Y1068715D01*
X568270D01*
Y1059525D01*
X567000D01*
Y1058255D01*
X557810D01*
Y1050335D01*
Y1042445D01*
X567000D01*
Y1039905D01*
X557810D01*
Y1031985D01*
Y1024095D01*
X567000D01*
Y1022825D01*
X568270D01*
Y1013635D01*
X584080D01*
Y1022825D01*
X586620D01*
Y1013635D01*
X602430D01*
Y1022825D01*
X603700D01*
Y1024095D01*
X612890D01*
Y1031985D01*
Y1039905D01*
X603700D01*
Y1042445D01*
X612890D01*
Y1050335D01*
Y1058255D01*
X603700D01*
Y1059525D01*
X602430D01*
Y1068715D01*
D02*
G37*
G36*
X1473730Y1062730D02*
X1465000D01*
X1465179Y1061369D01*
X1466195Y1058916D01*
X1467811Y1056811D01*
X1469917Y1055195D01*
X1472369Y1054180D01*
X1473730Y1054000D01*
Y1062730D01*
D02*
G37*
G36*
X1191730Y1017230D02*
X1181960D01*
Y1010460D01*
X1191730D01*
Y1017230D01*
D02*
G37*
G36*
X845000Y974119D02*
X843424Y973806D01*
X843228Y973675D01*
X839962D01*
X838805Y973195D01*
X838325Y972038D01*
Y968962D01*
X838744Y967952D01*
X837725Y967271D01*
X836722Y965770D01*
X836369Y963998D01*
X836722Y962227D01*
X837572Y960954D01*
X837087Y960229D01*
X836850Y959037D01*
Y958770D01*
X847300D01*
X857750D01*
Y959037D01*
X857513Y960229D01*
X856838Y961238D01*
X856000Y961799D01*
X856275Y962462D01*
Y965537D01*
X855795Y966695D01*
X855795Y967805D01*
X856275Y968962D01*
Y972038D01*
X855795Y973195D01*
X854638Y973675D01*
X846772D01*
X846576Y973806D01*
X845000Y974119D01*
D02*
G37*
G36*
X510350Y969424D02*
X509603Y969275D01*
X499350D01*
Y958275D01*
X509603D01*
X510350Y958127D01*
X511097Y958275D01*
X521350D01*
Y969275D01*
X511097D01*
X510350Y969424D01*
D02*
G37*
G36*
X279230Y974838D02*
X277781Y974647D01*
X275248Y973597D01*
X273072Y971928D01*
X271403Y969752D01*
X270353Y967219D01*
X270162Y965770D01*
X279230D01*
Y974838D01*
D02*
G37*
G36*
X510350Y982123D02*
X509603Y981975D01*
X499350D01*
Y970975D01*
X509603D01*
X510350Y970826D01*
X511097Y970975D01*
X521350D01*
Y981975D01*
X511097D01*
X510350Y982123D01*
D02*
G37*
G36*
X281770Y974838D02*
Y965770D01*
X290838D01*
X290647Y967219D01*
X289597Y969752D01*
X287928Y971928D01*
X285752Y973597D01*
X283219Y974647D01*
X281770Y974838D01*
D02*
G37*
G36*
X534000Y1019649D02*
X531838Y1019219D01*
X530006Y1017994D01*
X528781Y1016162D01*
X528352Y1014000D01*
X528781Y1011838D01*
X530006Y1010006D01*
X531196Y1009211D01*
Y965161D01*
X522241Y956206D01*
X521350Y956575D01*
Y956575D01*
X499350D01*
Y945575D01*
X521350D01*
Y948326D01*
X522148Y948485D01*
X523058Y949092D01*
X535983Y962017D01*
X536590Y962927D01*
X536804Y964000D01*
Y1009211D01*
X537994Y1010006D01*
X539219Y1011838D01*
X539649Y1014000D01*
X539219Y1016162D01*
X537994Y1017994D01*
X536162Y1019219D01*
X534000Y1019649D01*
D02*
G37*
G36*
X987230Y962040D02*
X980460D01*
Y952270D01*
X987230D01*
Y962040D01*
D02*
G37*
G36*
X857750Y956230D02*
X847300D01*
X836850D01*
Y955963D01*
X837087Y954771D01*
X837436Y954250D01*
X837087Y953728D01*
X836850Y952538D01*
Y952270D01*
X847300D01*
X857750D01*
Y952538D01*
X857513Y953728D01*
X857165Y954250D01*
X857513Y954771D01*
X857750Y955963D01*
Y956230D01*
D02*
G37*
G36*
X996540Y962040D02*
X989770D01*
Y952270D01*
X996540D01*
Y962040D01*
D02*
G37*
G36*
X290838Y963230D02*
X281770D01*
Y954162D01*
X283219Y954353D01*
X285752Y955403D01*
X287928Y957072D01*
X289597Y959248D01*
X290647Y961781D01*
X290838Y963230D01*
D02*
G37*
G36*
X279230D02*
X270162D01*
X270353Y961781D01*
X271403Y959248D01*
X273072Y957072D01*
X275248Y955403D01*
X277781Y954353D01*
X279230Y954162D01*
Y963230D01*
D02*
G37*
G36*
X680350Y982123D02*
X679603Y981975D01*
X669350D01*
Y970975D01*
X679603D01*
X680350Y970826D01*
X681097Y970975D01*
X691350D01*
Y981975D01*
X681097D01*
X680350Y982123D01*
D02*
G37*
G36*
X1115890Y1001990D02*
X1108270D01*
Y998220D01*
X1115890D01*
Y1001990D01*
D02*
G37*
G36*
X1105730D02*
X1098110D01*
Y998220D01*
X1105730D01*
Y1001990D01*
D02*
G37*
G36*
X372110Y1013780D02*
X350840D01*
Y1004510D01*
X372110D01*
Y1013780D01*
D02*
G37*
G36*
X510350Y1020223D02*
X509603Y1020075D01*
X499350D01*
Y1016614D01*
X493575D01*
X492795Y1016459D01*
X492133Y1016017D01*
X492133Y1016017D01*
X467558Y991442D01*
X467116Y990780D01*
X466961Y990000D01*
Y929000D01*
X467116Y928220D01*
X467558Y927558D01*
X481558Y913558D01*
X481558Y913558D01*
X482220Y913116D01*
X483000Y912961D01*
X483000Y912961D01*
X619757D01*
X619781Y912838D01*
X621006Y911006D01*
X622838Y909781D01*
X625000Y909352D01*
X627162Y909781D01*
X628994Y911006D01*
X630219Y912838D01*
X630648Y915000D01*
X630219Y917162D01*
X628994Y918994D01*
X627162Y920219D01*
X625000Y920648D01*
X622838Y920219D01*
X621006Y918994D01*
X619781Y917162D01*
X619757Y917039D01*
X483845D01*
X471039Y929845D01*
Y989155D01*
X494420Y1012536D01*
X499350D01*
Y1009075D01*
X509603D01*
X510350Y1008926D01*
X511097Y1009075D01*
X521350D01*
Y1020075D01*
X511097D01*
X510350Y1020223D01*
D02*
G37*
G36*
X395920Y1013780D02*
X374650D01*
Y1004510D01*
X395920D01*
Y1013780D01*
D02*
G37*
G36*
X510350Y1007523D02*
X509603Y1007375D01*
X499350D01*
Y996375D01*
X500534D01*
X501035Y995105D01*
X500576Y994675D01*
X499350D01*
Y993012D01*
X498782Y992162D01*
X498352Y990000D01*
X498782Y987838D01*
X499350Y986988D01*
Y983675D01*
X521350D01*
Y994675D01*
X507424D01*
X506965Y995105D01*
X507466Y996375D01*
X509603D01*
X510350Y996227D01*
X511097Y996375D01*
X521350D01*
Y1007375D01*
X511097D01*
X510350Y1007523D01*
D02*
G37*
G36*
X1105730Y995680D02*
X1098110D01*
Y991910D01*
X1105730D01*
Y995680D01*
D02*
G37*
G36*
X698175Y994824D02*
X696013Y994393D01*
X694181Y993169D01*
X692956Y991337D01*
X692932Y991214D01*
X691350D01*
Y994675D01*
X669350D01*
Y983675D01*
X691350D01*
Y987136D01*
X692932D01*
X692956Y987013D01*
X694181Y985181D01*
X696013Y983956D01*
X698175Y983527D01*
X700337Y983956D01*
X702169Y985181D01*
X703393Y987013D01*
X703823Y989175D01*
X703393Y991337D01*
X702169Y993169D01*
X700337Y994393D01*
X698175Y994824D01*
D02*
G37*
G36*
X1115890Y995680D02*
X1108270D01*
Y991910D01*
X1115890D01*
Y995680D01*
D02*
G37*
G36*
X521350Y1032775D02*
X499350D01*
Y1021775D01*
X521350D01*
Y1025236D01*
X532880D01*
X542961Y1015155D01*
Y1006243D01*
X542838Y1006219D01*
X541006Y1004994D01*
X539781Y1003162D01*
X539352Y1001000D01*
X539781Y998838D01*
X541006Y997006D01*
X542838Y995781D01*
X545000Y995351D01*
X547162Y995781D01*
X548994Y997006D01*
X550219Y998838D01*
X550648Y1001000D01*
X550219Y1003162D01*
X548994Y1004994D01*
X547162Y1006219D01*
X547039Y1006243D01*
Y1016000D01*
X546884Y1016780D01*
X546442Y1017442D01*
X535167Y1028717D01*
X534505Y1029159D01*
X533725Y1029314D01*
X521350D01*
Y1032775D01*
D02*
G37*
G36*
X638000Y1075549D02*
X560000D01*
X559025Y1075355D01*
X558198Y1074802D01*
X527871Y1044475D01*
X527000Y1044649D01*
X524838Y1044219D01*
X523006Y1042994D01*
X522620Y1042417D01*
X521350Y1042802D01*
Y1045475D01*
X499350D01*
Y1034475D01*
X521350D01*
Y1035198D01*
X522620Y1035583D01*
X523006Y1035006D01*
X524838Y1033781D01*
X527000Y1033352D01*
X529162Y1033781D01*
X530994Y1035006D01*
X532219Y1036838D01*
X532649Y1039000D01*
X532219Y1041162D01*
X532037Y1041433D01*
X556637Y1066032D01*
X557810Y1065546D01*
Y1060795D01*
X565730D01*
Y1068715D01*
X561868D01*
X561237Y1069985D01*
X561590Y1070451D01*
X636944D01*
X649451Y1057944D01*
Y1004000D01*
X649645Y1003025D01*
X650198Y1002198D01*
X653525Y998871D01*
X653352Y998000D01*
X653781Y995838D01*
X655006Y994006D01*
X656838Y992782D01*
X659000Y992352D01*
X661162Y992782D01*
X662994Y994006D01*
X664219Y995838D01*
X664649Y998000D01*
X664219Y1000162D01*
X662994Y1001994D01*
X661162Y1003219D01*
X659000Y1003649D01*
X656838Y1003219D01*
X656567Y1003037D01*
X654549Y1005056D01*
Y1059000D01*
X654355Y1059976D01*
X653802Y1060802D01*
X639802Y1074802D01*
X638975Y1075355D01*
X638000Y1075549D01*
D02*
G37*
G36*
X1049900Y1079500D02*
X1032900D01*
Y1062500D01*
X1049900D01*
Y1079500D01*
D02*
G37*
G36*
X1443000Y1163000D02*
X1413000D01*
Y1139000D01*
X1443000D01*
Y1163000D01*
D02*
G37*
G36*
X1293000Y1162000D02*
X1263000D01*
Y1138000D01*
X1293000D01*
Y1162000D01*
D02*
G37*
G36*
X1026500Y1182078D02*
X1024150Y1181768D01*
X1021961Y1180862D01*
X1020081Y1179419D01*
X1018639Y1177539D01*
X1017732Y1175350D01*
X1017422Y1173000D01*
Y1157000D01*
X1017732Y1154650D01*
X1018639Y1152461D01*
X1020081Y1150581D01*
X1021961Y1149138D01*
X1024150Y1148232D01*
X1026500Y1147922D01*
X1028849Y1148232D01*
X1031039Y1149138D01*
X1032919Y1150581D01*
X1034361Y1152461D01*
X1035268Y1154650D01*
X1035578Y1157000D01*
Y1173000D01*
X1035268Y1175350D01*
X1034361Y1177539D01*
X1032919Y1179419D01*
X1031039Y1180862D01*
X1028849Y1181768D01*
X1026500Y1182078D01*
D02*
G37*
G36*
X1241000Y1168582D02*
X1238520Y1168255D01*
X1236209Y1167298D01*
X1234225Y1165776D01*
X1232702Y1163791D01*
X1231745Y1161480D01*
X1231418Y1159000D01*
X1231745Y1156520D01*
X1232702Y1154209D01*
X1234225Y1152225D01*
X1236209Y1150702D01*
X1238520Y1149745D01*
X1241000Y1149418D01*
X1243480Y1149745D01*
X1245791Y1150702D01*
X1247775Y1152225D01*
X1249298Y1154209D01*
X1250256Y1156520D01*
X1250582Y1159000D01*
X1250256Y1161480D01*
X1249298Y1163791D01*
X1247775Y1165776D01*
X1245791Y1167298D01*
X1243480Y1168255D01*
X1241000Y1168582D01*
D02*
G37*
G36*
X1151500Y1182078D02*
X1149150Y1181768D01*
X1146961Y1180862D01*
X1145081Y1179419D01*
X1143639Y1177539D01*
X1142732Y1175350D01*
X1142422Y1173000D01*
Y1157000D01*
X1142732Y1154650D01*
X1143639Y1152461D01*
X1145081Y1150581D01*
X1146961Y1149138D01*
X1149150Y1148232D01*
X1151500Y1147922D01*
X1153849Y1148232D01*
X1156039Y1149138D01*
X1157919Y1150581D01*
X1159361Y1152461D01*
X1160268Y1154650D01*
X1160578Y1157000D01*
Y1173000D01*
X1160268Y1175350D01*
X1159361Y1177539D01*
X1157919Y1179419D01*
X1156039Y1180862D01*
X1153849Y1181768D01*
X1151500Y1182078D01*
D02*
G37*
G36*
X478270Y1144540D02*
Y1137770D01*
X486540D01*
Y1144540D01*
X478270D01*
D02*
G37*
G36*
X1646524Y1156730D02*
X1625270D01*
Y1135476D01*
X1628419Y1135786D01*
X1632667Y1137075D01*
X1636583Y1139168D01*
X1640015Y1141985D01*
X1642832Y1145417D01*
X1644925Y1149333D01*
X1646214Y1153581D01*
X1646524Y1156730D01*
D02*
G37*
G36*
X1622730D02*
X1601476D01*
X1601786Y1153581D01*
X1603075Y1149333D01*
X1605168Y1145417D01*
X1607985Y1141985D01*
X1611417Y1139168D01*
X1615333Y1137075D01*
X1619581Y1135786D01*
X1622730Y1135476D01*
Y1156730D01*
D02*
G37*
G36*
X293730Y1157730D02*
X272476D01*
X272786Y1154581D01*
X274075Y1150333D01*
X276168Y1146417D01*
X278985Y1142985D01*
X282417Y1140168D01*
X286333Y1138075D01*
X290581Y1136786D01*
X293730Y1136476D01*
Y1157730D01*
D02*
G37*
G36*
X455730Y1144040D02*
X447460D01*
Y1137270D01*
X455730D01*
Y1144040D01*
D02*
G37*
G36*
X317524Y1157730D02*
X296270D01*
Y1136476D01*
X299419Y1136786D01*
X303667Y1138075D01*
X307583Y1140168D01*
X311015Y1142985D01*
X313832Y1146417D01*
X315925Y1150333D01*
X317214Y1154581D01*
X317524Y1157730D01*
D02*
G37*
G36*
X1391000Y1169582D02*
X1388520Y1169256D01*
X1386209Y1168298D01*
X1384225Y1166776D01*
X1382702Y1164791D01*
X1381745Y1162480D01*
X1381418Y1160000D01*
X1381745Y1157520D01*
X1382702Y1155209D01*
X1384225Y1153225D01*
X1386209Y1151702D01*
X1388520Y1150745D01*
X1391000Y1150418D01*
X1393480Y1150745D01*
X1395791Y1151702D01*
X1397776Y1153225D01*
X1399298Y1155209D01*
X1400255Y1157520D01*
X1400582Y1160000D01*
X1400255Y1162480D01*
X1399298Y1164791D01*
X1397776Y1166776D01*
X1395791Y1168298D01*
X1393480Y1169256D01*
X1391000Y1169582D01*
D02*
G37*
G36*
X293730Y1181524D02*
X290581Y1181214D01*
X286333Y1179925D01*
X282417Y1177832D01*
X278985Y1175015D01*
X276168Y1171583D01*
X274075Y1167667D01*
X272786Y1163419D01*
X272476Y1160270D01*
X293730D01*
Y1181524D01*
D02*
G37*
G36*
X1625270Y1180524D02*
Y1159270D01*
X1646524D01*
X1646214Y1162419D01*
X1644925Y1166667D01*
X1642832Y1170583D01*
X1640015Y1174015D01*
X1636583Y1176832D01*
X1632667Y1178925D01*
X1628419Y1180214D01*
X1625270Y1180524D01*
D02*
G37*
G36*
X296270Y1181524D02*
Y1160270D01*
X317524D01*
X317214Y1163419D01*
X315925Y1167667D01*
X313832Y1171583D01*
X311015Y1175015D01*
X307583Y1177832D01*
X303667Y1179925D01*
X299419Y1181214D01*
X296270Y1181524D01*
D02*
G37*
G36*
X1370540Y1184540D02*
X1355270D01*
Y1172270D01*
X1370540D01*
Y1184540D01*
D02*
G37*
G36*
X1352730D02*
X1337460D01*
Y1172270D01*
X1352730D01*
Y1184540D01*
D02*
G37*
G36*
X1622730Y1180524D02*
X1619581Y1180214D01*
X1615333Y1178925D01*
X1611417Y1176832D01*
X1607985Y1174015D01*
X1605168Y1170583D01*
X1603075Y1166667D01*
X1601786Y1162419D01*
X1601476Y1159270D01*
X1622730D01*
Y1180524D01*
D02*
G37*
G36*
X1127040Y1173040D02*
X1110960D01*
Y1156960D01*
X1127040D01*
Y1173040D01*
D02*
G37*
G36*
X1068000Y1190078D02*
X1068000Y1190078D01*
X1050000D01*
X1048439Y1189768D01*
X1047116Y1188884D01*
X1040116Y1181884D01*
X1039232Y1180561D01*
X1038922Y1179000D01*
X1038922Y1179000D01*
Y1118000D01*
X1038922Y1118000D01*
X1039232Y1116439D01*
X1040116Y1115116D01*
X1097981Y1057252D01*
X1097495Y1056078D01*
X880089D01*
X843884Y1092284D01*
X843884Y1092284D01*
X815595Y1120573D01*
X815681Y1120781D01*
X815973Y1123000D01*
X815681Y1125219D01*
X814825Y1127287D01*
X813462Y1129062D01*
X811687Y1130425D01*
X809619Y1131281D01*
X807400Y1131573D01*
X805181Y1131281D01*
X803113Y1130425D01*
X801338Y1129062D01*
X799975Y1127287D01*
X799119Y1125219D01*
X798827Y1123000D01*
X799119Y1120781D01*
X799975Y1118713D01*
X801338Y1116938D01*
X803113Y1115575D01*
X805181Y1114719D01*
X807400Y1114427D01*
X809619Y1114719D01*
X809827Y1114805D01*
X837941Y1086691D01*
Y1009000D01*
X837941Y1009000D01*
X838174Y1007830D01*
X838837Y1006837D01*
X862941Y982733D01*
Y965000D01*
X862941Y965000D01*
X863174Y963829D01*
X863837Y962837D01*
X884337Y942337D01*
X884337Y942337D01*
X885329Y941674D01*
X886500Y941441D01*
X893552D01*
X894376Y940171D01*
X894250Y939538D01*
Y939270D01*
X904700D01*
X915150D01*
Y939538D01*
X915024Y940171D01*
X915848Y941441D01*
X936233D01*
X952837Y924837D01*
X952837Y924837D01*
X953829Y924174D01*
X955000Y923941D01*
Y917500D01*
X968000D01*
Y936500D01*
X955000D01*
Y932985D01*
X953827Y932499D01*
X939663Y946663D01*
X938887Y947181D01*
X939000Y948191D01*
X939099Y948451D01*
X955000D01*
Y941500D01*
X968000D01*
Y960500D01*
X955000D01*
Y953549D01*
X921960D01*
X920994Y954994D01*
X919162Y956219D01*
X917000Y956648D01*
X916132Y956476D01*
X915150Y957281D01*
Y959037D01*
X914913Y960229D01*
X914238Y961238D01*
X913400Y961799D01*
X913675Y962462D01*
Y965537D01*
X913195Y966695D01*
X913195Y967805D01*
X913675Y968962D01*
Y972038D01*
X913195Y973195D01*
X912038Y973675D01*
X901930D01*
X865802Y1009802D01*
X865777Y1009819D01*
X865748Y1009967D01*
X864634Y1011634D01*
X864198Y1011925D01*
X864693Y1013121D01*
X866000Y1012861D01*
X867967Y1013252D01*
X869634Y1014366D01*
X870088Y1015046D01*
X892378D01*
X899756Y1007667D01*
X900666Y1007060D01*
X901739Y1006846D01*
X1099650D01*
Y1006150D01*
X1114350D01*
Y1013150D01*
X1099650D01*
Y1012454D01*
X902900D01*
X895522Y1019833D01*
X894612Y1020440D01*
X893539Y1020654D01*
X873833D01*
X873448Y1021924D01*
X874634Y1022716D01*
X875188Y1023546D01*
X1099650D01*
Y1018850D01*
X1114350D01*
Y1025850D01*
X1108115D01*
X1105633Y1028333D01*
X1104723Y1028940D01*
X1103650Y1029154D01*
X875188D01*
X874634Y1029984D01*
X872967Y1031098D01*
X871000Y1031489D01*
X869034Y1031098D01*
X867366Y1029984D01*
X866252Y1028316D01*
X865861Y1026350D01*
X866252Y1024383D01*
X866329Y1024270D01*
X865609Y1023061D01*
X864034Y1022748D01*
X862366Y1021634D01*
X861252Y1019967D01*
X860861Y1018000D01*
X861252Y1016033D01*
X862366Y1014366D01*
X862802Y1014075D01*
X862307Y1012879D01*
X861000Y1013139D01*
X859034Y1012748D01*
X857366Y1011634D01*
X856252Y1009967D01*
X855861Y1008000D01*
X856252Y1006033D01*
X857366Y1004366D01*
X859034Y1003252D01*
X861000Y1002861D01*
X862967Y1003252D01*
X864271Y1004124D01*
X895911Y972485D01*
X895725Y972038D01*
Y968962D01*
X896205Y967805D01*
X896205Y966695D01*
X895725Y965537D01*
Y962462D01*
X896000Y961799D01*
X895162Y961238D01*
X894487Y960229D01*
X894250Y959037D01*
Y958770D01*
X904700D01*
Y956230D01*
X894250D01*
Y955963D01*
X894487Y954771D01*
X895162Y953762D01*
X896000Y953201D01*
X895725Y952538D01*
Y949463D01*
X895988Y948829D01*
X895292Y947559D01*
X887767D01*
X869059Y966267D01*
Y984000D01*
X869059Y984000D01*
X868826Y985171D01*
X868163Y986163D01*
X868163Y986163D01*
X844059Y1010267D01*
Y1078914D01*
X845232Y1079400D01*
X875516Y1049116D01*
X876839Y1048232D01*
X878400Y1047922D01*
X878400Y1047922D01*
X1109000D01*
X1109000Y1047922D01*
X1109000Y1047922D01*
X1115311D01*
X1132922Y1030311D01*
Y1012000D01*
X1132922Y1012000D01*
X1133232Y1010439D01*
X1134116Y1009116D01*
X1149166Y994066D01*
X1149166Y994066D01*
X1150489Y993182D01*
X1152050Y992872D01*
X1152050Y992872D01*
X1183500D01*
Y985000D01*
X1198771D01*
X1199257Y983827D01*
X1196980Y981549D01*
X1106056D01*
X1088802Y998802D01*
X1087975Y999355D01*
X1087000Y999549D01*
X1029000D01*
X1028025Y999355D01*
X1027198Y998802D01*
X1012020Y983625D01*
X1012000Y983629D01*
X1010229Y983277D01*
X1008727Y982273D01*
X1007723Y980771D01*
X1007371Y979000D01*
X1007723Y977229D01*
X1008727Y975727D01*
X1009451Y975243D01*
Y934020D01*
X997713Y922283D01*
X996540Y922769D01*
Y925730D01*
X989770D01*
Y915867D01*
X990217Y914787D01*
X986980Y911549D01*
X973000D01*
X972025Y911355D01*
X971198Y910802D01*
X881170Y820775D01*
X879900Y821301D01*
Y825500D01*
X876549D01*
Y868000D01*
X883500D01*
Y881000D01*
X864500D01*
Y868000D01*
X871451D01*
Y825500D01*
X862900D01*
Y808549D01*
X858056D01*
X853561Y813043D01*
X854281Y814781D01*
X854573Y817000D01*
X854281Y819219D01*
X853425Y821287D01*
X852062Y823062D01*
X850287Y824425D01*
X848219Y825281D01*
X846549Y825501D01*
Y868000D01*
X853500D01*
Y881000D01*
X834500D01*
Y868000D01*
X841451D01*
Y824223D01*
X839938Y823062D01*
X838575Y821287D01*
X837719Y819219D01*
X837427Y817000D01*
X837719Y814781D01*
X838575Y812713D01*
X839938Y810938D01*
X841713Y809575D01*
X843781Y808719D01*
X846000Y808427D01*
X848219Y808719D01*
X849957Y809439D01*
X855198Y804198D01*
X856025Y803645D01*
X857000Y803451D01*
X892000D01*
X892975Y803645D01*
X893802Y804198D01*
X979685Y890080D01*
X980922Y889521D01*
Y846968D01*
X980252Y845966D01*
X979861Y844000D01*
X980252Y842033D01*
X981366Y840366D01*
X983034Y839252D01*
X985000Y838861D01*
X986966Y839252D01*
X988634Y840366D01*
X989748Y842033D01*
X990139Y844000D01*
X989748Y845966D01*
X989078Y846968D01*
Y888311D01*
X995989Y895222D01*
X1107000D01*
X1107394Y895300D01*
X1116000D01*
Y896241D01*
X1117300D01*
X1117300Y896241D01*
X1118471Y896474D01*
X1119463Y897137D01*
X1122163Y899837D01*
X1122163Y899837D01*
X1122826Y900829D01*
X1123059Y902000D01*
Y921641D01*
X1152000D01*
Y920700D01*
X1165974D01*
X1169404Y917270D01*
X1168878Y916000D01*
X1152000D01*
Y908000D01*
X1170000D01*
Y914878D01*
X1171270Y915404D01*
X1186837Y899837D01*
X1187830Y899174D01*
X1189000Y898941D01*
X1289000D01*
X1289000Y898941D01*
X1290170Y899174D01*
X1291163Y899837D01*
X1322267Y930941D01*
X1438733D01*
X1487941Y881733D01*
Y842694D01*
X1487194Y841576D01*
X1486881Y840000D01*
X1487194Y838424D01*
X1488087Y837087D01*
X1489424Y836194D01*
X1491000Y835881D01*
X1492576Y836194D01*
X1493913Y837087D01*
X1494806Y838424D01*
X1495119Y840000D01*
X1494806Y841576D01*
X1494059Y842694D01*
Y883000D01*
X1493826Y884171D01*
X1493163Y885163D01*
X1442163Y936163D01*
X1442163Y936163D01*
X1441059Y937267D01*
Y975733D01*
X1453226Y987900D01*
X1474900D01*
Y1005900D01*
X1455668D01*
X1453916Y1007652D01*
X1454442Y1008922D01*
X1550695D01*
X1569732Y989885D01*
X1569277Y988544D01*
X1566987Y988243D01*
X1564180Y987080D01*
X1561770Y985230D01*
X1559920Y982820D01*
X1558757Y980013D01*
X1558360Y977000D01*
Y969270D01*
X1570000D01*
X1581640D01*
Y976181D01*
X1582910Y976708D01*
X1603922Y955695D01*
Y930689D01*
X1524116Y850884D01*
X1523232Y849561D01*
X1522922Y848000D01*
X1522922Y848000D01*
Y791900D01*
X1518500D01*
Y787478D01*
X1499289D01*
X1494619Y792149D01*
X1494219Y794162D01*
X1492994Y795994D01*
X1491162Y797218D01*
X1489000Y797648D01*
X1486838Y797218D01*
X1485006Y795994D01*
X1483781Y794162D01*
X1483647Y793488D01*
X1482353D01*
X1482219Y794162D01*
X1480994Y795994D01*
X1479162Y797218D01*
X1477000Y797648D01*
X1474838Y797218D01*
X1473006Y795994D01*
X1471781Y794162D01*
X1471351Y792000D01*
X1471781Y789838D01*
X1473006Y788006D01*
X1474451Y787040D01*
Y773250D01*
X1474645Y772275D01*
X1475198Y771448D01*
X1481500Y765145D01*
Y753000D01*
X1498500D01*
Y767500D01*
X1486355D01*
X1479549Y774306D01*
Y787040D01*
X1480994Y788006D01*
X1482219Y789838D01*
X1482353Y790512D01*
X1483647D01*
X1483781Y789838D01*
X1485006Y788006D01*
X1486838Y786781D01*
X1488851Y786381D01*
X1494716Y780516D01*
X1494716Y780516D01*
X1496039Y779632D01*
X1497600Y779322D01*
X1518500D01*
Y774900D01*
X1535500D01*
Y791900D01*
X1531078D01*
Y813032D01*
X1532348Y813527D01*
X1533838Y812531D01*
X1536000Y812102D01*
X1538162Y812531D01*
X1539994Y813756D01*
X1540619Y814691D01*
X1595477D01*
X1596838Y813782D01*
X1599000Y813352D01*
X1601162Y813782D01*
X1602994Y815006D01*
X1604219Y816838D01*
X1604649Y819000D01*
X1604219Y821162D01*
X1602994Y822994D01*
X1601162Y824219D01*
X1599000Y824649D01*
X1596838Y824219D01*
X1595006Y822994D01*
X1593781Y821162D01*
X1593711Y820809D01*
X1540619D01*
X1539994Y821744D01*
X1538162Y822969D01*
X1536000Y823399D01*
X1533838Y822969D01*
X1532348Y821973D01*
X1531078Y822468D01*
Y846311D01*
X1610884Y926116D01*
X1611768Y927439D01*
X1612078Y929000D01*
Y957385D01*
X1612078Y957385D01*
X1611768Y958945D01*
X1610884Y960269D01*
X1555269Y1015884D01*
X1553945Y1016768D01*
X1552385Y1017078D01*
X1552385Y1017078D01*
X1454389D01*
X1442583Y1028884D01*
X1441260Y1029768D01*
X1439700Y1030078D01*
X1439699Y1030078D01*
X1406589D01*
X1390783Y1045884D01*
X1389460Y1046768D01*
X1387899Y1047078D01*
X1387899Y1047078D01*
X1172189D01*
X1158500Y1060768D01*
Y1072000D01*
X1141500D01*
Y1055000D01*
X1152732D01*
X1167616Y1040116D01*
X1167616Y1040116D01*
X1168059Y1039820D01*
X1167674Y1038550D01*
X1163859D01*
X1162771Y1039277D01*
X1161000Y1039629D01*
X1159229Y1039277D01*
X1158141Y1038550D01*
X1155650D01*
Y1038039D01*
X1152000D01*
X1152000Y1038039D01*
X1151220Y1037884D01*
X1150558Y1037442D01*
X1150558Y1037442D01*
X1145558Y1032442D01*
X1145116Y1031780D01*
X1144961Y1031000D01*
Y1016000D01*
X1145116Y1015220D01*
X1145558Y1014558D01*
X1151908Y1008208D01*
X1151908Y1008208D01*
X1152570Y1007766D01*
X1153350Y1007611D01*
X1155650D01*
Y1006150D01*
X1170350D01*
Y1013150D01*
X1155650D01*
Y1011689D01*
X1154195D01*
X1149039Y1016845D01*
Y1030155D01*
X1152845Y1033961D01*
X1155650D01*
Y1031550D01*
X1157991D01*
X1159229Y1030723D01*
X1161000Y1030371D01*
X1162771Y1030723D01*
X1164008Y1031550D01*
X1170350D01*
Y1033961D01*
X1379757D01*
X1379781Y1033838D01*
X1381006Y1032006D01*
X1382838Y1030781D01*
X1385000Y1030351D01*
X1387162Y1030781D01*
X1388994Y1032006D01*
X1389930Y1033406D01*
X1391395Y1033737D01*
X1400784Y1024348D01*
X1400257Y1023078D01*
X1245000D01*
X1245000Y1023078D01*
X1243439Y1022768D01*
X1242116Y1021884D01*
X1221261Y1001028D01*
X1153739D01*
X1141078Y1013689D01*
Y1032000D01*
X1141078Y1032000D01*
X1140768Y1033561D01*
X1139884Y1034884D01*
X1139884Y1034884D01*
X1119884Y1054884D01*
X1118561Y1055768D01*
X1117000Y1056078D01*
X1117000Y1056078D01*
X1110689D01*
X1047078Y1119689D01*
Y1177311D01*
X1051689Y1181922D01*
X1066311D01*
X1081163Y1167069D01*
X1080891Y1165000D01*
X1081167Y1162901D01*
X1081977Y1160945D01*
X1083266Y1159266D01*
X1084945Y1157977D01*
X1086901Y1157167D01*
X1089000Y1156891D01*
X1091099Y1157167D01*
X1093055Y1157977D01*
X1094734Y1159266D01*
X1096023Y1160945D01*
X1096833Y1162901D01*
X1097109Y1165000D01*
X1096833Y1167099D01*
X1096023Y1169055D01*
X1094734Y1170734D01*
X1093055Y1172023D01*
X1091099Y1172833D01*
X1089000Y1173109D01*
X1086931Y1172837D01*
X1070884Y1188884D01*
X1069561Y1189768D01*
X1069302Y1189819D01*
X1068000Y1190078D01*
D02*
G37*
G36*
X1352730Y1169730D02*
X1337460D01*
Y1157460D01*
X1352730D01*
Y1169730D01*
D02*
G37*
G36*
X1219000Y1182000D02*
X1189000D01*
Y1158000D01*
X1219000D01*
Y1182000D01*
D02*
G37*
G36*
X1370540Y1169730D02*
X1355270D01*
Y1157460D01*
X1370540D01*
Y1169730D01*
D02*
G37*
G36*
X834070Y1132959D02*
Y1124270D01*
X842759D01*
X842582Y1125621D01*
X841570Y1128063D01*
X839961Y1130161D01*
X837863Y1131770D01*
X835421Y1132782D01*
X834070Y1132959D01*
D02*
G37*
G36*
X1059000Y1173109D02*
X1056901Y1172833D01*
X1054945Y1172023D01*
X1053266Y1170734D01*
X1051977Y1169055D01*
X1051167Y1167099D01*
X1050891Y1165000D01*
X1051167Y1162901D01*
X1051977Y1160945D01*
X1053266Y1159266D01*
X1054945Y1157977D01*
X1056901Y1157167D01*
X1059000Y1156891D01*
X1061069Y1157163D01*
X1122616Y1095616D01*
X1122616Y1095616D01*
X1123939Y1094732D01*
X1125500Y1094422D01*
X1125500Y1094422D01*
X1141500D01*
Y1090000D01*
X1158500D01*
Y1107000D01*
X1141500D01*
Y1102578D01*
X1127189D01*
X1066837Y1162931D01*
X1067109Y1165000D01*
X1066833Y1167099D01*
X1066023Y1169055D01*
X1064734Y1170734D01*
X1063055Y1172023D01*
X1061099Y1172833D01*
X1059000Y1173109D01*
D02*
G37*
G36*
X1391000Y1099582D02*
X1388520Y1099256D01*
X1386209Y1098298D01*
X1384225Y1096776D01*
X1382702Y1094791D01*
X1381745Y1092480D01*
X1381418Y1090000D01*
X1381745Y1087520D01*
X1382702Y1085209D01*
X1384225Y1083225D01*
X1386209Y1081702D01*
X1388520Y1080744D01*
X1391000Y1080418D01*
X1393480Y1080744D01*
X1395791Y1081702D01*
X1397776Y1083225D01*
X1399298Y1085209D01*
X1400255Y1087520D01*
X1400582Y1090000D01*
X1400255Y1092480D01*
X1399298Y1094791D01*
X1397776Y1096776D01*
X1395791Y1098298D01*
X1393480Y1099256D01*
X1391000Y1099582D01*
D02*
G37*
G36*
X1483540Y1122540D02*
X1466460D01*
Y1105460D01*
X1483540D01*
Y1122540D01*
D02*
G37*
G36*
X418540Y1121730D02*
X411770D01*
Y1111960D01*
X418540D01*
Y1121730D01*
D02*
G37*
G36*
X409230D02*
X402460D01*
Y1111960D01*
X409230D01*
Y1121730D01*
D02*
G37*
G36*
X1475000Y1097614D02*
X1472771Y1097320D01*
X1470693Y1096460D01*
X1468909Y1095091D01*
X1467540Y1093307D01*
X1466680Y1091229D01*
X1466386Y1089000D01*
X1466680Y1086771D01*
X1467540Y1084693D01*
X1468909Y1082909D01*
X1470693Y1081540D01*
X1472771Y1080680D01*
X1475000Y1080386D01*
X1477229Y1080680D01*
X1479307Y1081540D01*
X1481091Y1082909D01*
X1482460Y1084693D01*
X1483320Y1086771D01*
X1483614Y1089000D01*
X1483320Y1091229D01*
X1482460Y1093307D01*
X1481091Y1095091D01*
X1479307Y1096460D01*
X1477229Y1097320D01*
X1475000Y1097614D01*
D02*
G37*
G36*
X1476270Y1074000D02*
Y1065270D01*
X1485000D01*
X1484821Y1066631D01*
X1483805Y1069083D01*
X1482189Y1071189D01*
X1480083Y1072805D01*
X1477631Y1073820D01*
X1476270Y1074000D01*
D02*
G37*
G36*
X1473730Y1074000D02*
X1472369Y1073820D01*
X1469917Y1072805D01*
X1467811Y1071189D01*
X1466195Y1069083D01*
X1465179Y1066631D01*
X1465000Y1065270D01*
X1473730D01*
Y1074000D01*
D02*
G37*
G36*
X680350Y1083724D02*
X679603Y1083575D01*
X669350D01*
Y1072575D01*
X679603D01*
X680350Y1072427D01*
X681097Y1072575D01*
X691350D01*
Y1083575D01*
X681097D01*
X680350Y1083724D01*
D02*
G37*
G36*
X1241000Y1098582D02*
X1238520Y1098255D01*
X1236209Y1097298D01*
X1234225Y1095776D01*
X1232702Y1093791D01*
X1231745Y1091480D01*
X1231418Y1089000D01*
X1231745Y1086520D01*
X1232702Y1084209D01*
X1234225Y1082225D01*
X1236209Y1080702D01*
X1238520Y1079745D01*
X1241000Y1079418D01*
X1243480Y1079745D01*
X1245791Y1080702D01*
X1247775Y1082225D01*
X1249298Y1084209D01*
X1250256Y1086520D01*
X1250582Y1089000D01*
X1250256Y1091480D01*
X1249298Y1093791D01*
X1247775Y1095776D01*
X1245791Y1097298D01*
X1243480Y1098255D01*
X1241000Y1098582D01*
D02*
G37*
G36*
X521350Y1083575D02*
X499350D01*
Y1072575D01*
X521350D01*
Y1083575D01*
D02*
G37*
G36*
X831530Y1121730D02*
X822841D01*
X823018Y1120379D01*
X824030Y1117937D01*
X825639Y1115839D01*
X827737Y1114230D01*
X830179Y1113218D01*
X831530Y1113041D01*
Y1121730D01*
D02*
G37*
G36*
X1556500Y1145608D02*
X1533500D01*
X1530237Y1145178D01*
X1527196Y1143919D01*
X1524585Y1141915D01*
X1522581Y1139304D01*
X1521322Y1136263D01*
X1520892Y1133000D01*
X1521322Y1129737D01*
X1522581Y1126696D01*
X1524585Y1124085D01*
X1527196Y1122081D01*
X1530237Y1120822D01*
X1533500Y1120392D01*
X1556500D01*
X1559763Y1120822D01*
X1562804Y1122081D01*
X1565415Y1124085D01*
X1567419Y1126696D01*
X1568678Y1129737D01*
X1569108Y1133000D01*
X1568678Y1136263D01*
X1567419Y1139304D01*
X1565415Y1141915D01*
X1562804Y1143919D01*
X1559763Y1145178D01*
X1556500Y1145608D01*
D02*
G37*
G36*
X467460Y1144540D02*
X466397Y1144040D01*
X466190Y1144040D01*
X458270D01*
Y1136000D01*
X457000D01*
Y1134730D01*
X447460D01*
Y1127960D01*
X447920D01*
X449000Y1127500D01*
X449000Y1126690D01*
Y1118677D01*
X447827Y1118191D01*
X444000Y1122018D01*
Y1132500D01*
X431000D01*
Y1113500D01*
X440982D01*
X445924Y1108558D01*
X445506Y1107180D01*
X444689Y1107018D01*
X443366Y1106134D01*
X443366Y1106134D01*
X437116Y1099884D01*
X436232Y1098561D01*
X435922Y1097000D01*
X435922Y1097000D01*
Y974867D01*
X434781Y973160D01*
X434351Y970998D01*
X434781Y968837D01*
X436005Y967004D01*
X437837Y965779D01*
X439999Y965350D01*
X442161Y965779D01*
X443993Y967004D01*
X445218Y968837D01*
X445648Y970998D01*
X445218Y973160D01*
X444078Y974865D01*
Y1095311D01*
X447230Y1098462D01*
X448500Y1097936D01*
Y1096000D01*
X465500D01*
Y1099397D01*
X492129D01*
X493074Y1098765D01*
X495025Y1098377D01*
X499350D01*
Y1097975D01*
X509603D01*
X510350Y1097827D01*
X511097Y1097975D01*
X521350D01*
X521350Y1108975D01*
X522554Y1109135D01*
X522890D01*
Y1114905D01*
X497810D01*
Y1109696D01*
X496540Y1109170D01*
X485000Y1120710D01*
X485000Y1128000D01*
X486079Y1128460D01*
X486540D01*
Y1135230D01*
X477000D01*
Y1136500D01*
X475730D01*
Y1144540D01*
X467603D01*
X467460Y1144540D01*
D02*
G37*
G36*
X409230Y1134040D02*
X402460D01*
Y1124270D01*
X409230D01*
Y1134040D01*
D02*
G37*
G36*
X831530Y1132959D02*
X830179Y1132782D01*
X827737Y1131770D01*
X825639Y1130161D01*
X824030Y1128063D01*
X823018Y1125621D01*
X822841Y1124270D01*
X831530D01*
Y1132959D01*
D02*
G37*
G36*
X418540Y1134040D02*
X411770D01*
Y1124270D01*
X418540D01*
Y1134040D01*
D02*
G37*
G36*
X522890Y1123215D02*
X511620D01*
Y1117445D01*
X522890D01*
Y1123215D01*
D02*
G37*
G36*
X858200Y1131573D02*
X855981Y1131281D01*
X853913Y1130425D01*
X852138Y1129062D01*
X850775Y1127287D01*
X849919Y1125219D01*
X849627Y1123000D01*
X849919Y1120781D01*
X850775Y1118713D01*
X852138Y1116938D01*
X853913Y1115575D01*
X855981Y1114719D01*
X858200Y1114427D01*
X860419Y1114719D01*
X862487Y1115575D01*
X864262Y1116938D01*
X865625Y1118713D01*
X866481Y1120781D01*
X866773Y1123000D01*
X866481Y1125219D01*
X865625Y1127287D01*
X864262Y1129062D01*
X862487Y1130425D01*
X860419Y1131281D01*
X858200Y1131573D01*
D02*
G37*
G36*
X842759Y1121730D02*
X834070D01*
Y1113041D01*
X835421Y1113218D01*
X837863Y1114230D01*
X839961Y1115839D01*
X841570Y1117937D01*
X842582Y1120379D01*
X842759Y1121730D01*
D02*
G37*
G36*
X883600Y1131573D02*
X881381Y1131281D01*
X879313Y1130425D01*
X877538Y1129062D01*
X876175Y1127287D01*
X875319Y1125219D01*
X875027Y1123000D01*
X875319Y1120781D01*
X876175Y1118713D01*
X877538Y1116938D01*
X879313Y1115575D01*
X881381Y1114719D01*
X883600Y1114427D01*
X885819Y1114719D01*
X887887Y1115575D01*
X889662Y1116938D01*
X891025Y1118713D01*
X891881Y1120781D01*
X892173Y1123000D01*
X891881Y1125219D01*
X891025Y1127287D01*
X889662Y1129062D01*
X887887Y1130425D01*
X885819Y1131281D01*
X883600Y1131573D01*
D02*
G37*
G36*
X509080Y1123215D02*
X497810D01*
Y1117445D01*
X509080D01*
Y1123215D01*
D02*
G37*
G36*
X942900Y1131500D02*
X925900D01*
Y1114500D01*
X942900D01*
Y1131500D01*
D02*
G37*
G36*
X1075540Y883540D02*
X1068770D01*
Y874000D01*
Y864460D01*
X1075540D01*
Y864921D01*
X1076000Y866000D01*
X1076810Y866000D01*
X1089000D01*
Y871351D01*
X1098000D01*
Y869900D01*
X1116000D01*
Y877900D01*
X1098000D01*
Y876449D01*
X1089000D01*
Y882000D01*
X1076810D01*
X1076000Y882000D01*
X1075540Y883079D01*
Y883540D01*
D02*
G37*
G36*
X1642050Y874805D02*
X1638320D01*
Y868470D01*
X1649488D01*
X1649396Y869168D01*
X1648636Y871003D01*
X1647428Y872578D01*
X1645853Y873786D01*
X1644018Y874546D01*
X1642050Y874805D01*
D02*
G37*
G36*
X1604050D02*
X1600320D01*
Y868470D01*
X1611488D01*
X1611396Y869168D01*
X1610636Y871003D01*
X1609428Y872578D01*
X1607853Y873786D01*
X1606018Y874546D01*
X1604050Y874805D01*
D02*
G37*
G36*
X1284540Y879540D02*
X1276270D01*
Y872770D01*
X1284540D01*
Y879540D01*
D02*
G37*
G36*
X1273730D02*
X1265460D01*
Y872770D01*
X1273730D01*
Y879540D01*
D02*
G37*
G36*
X1170000Y877900D02*
X1152000D01*
Y869900D01*
X1170000D01*
Y877900D01*
D02*
G37*
G36*
X903730Y873230D02*
X893960D01*
Y866460D01*
X903730D01*
Y873230D01*
D02*
G37*
G36*
X1066230Y872730D02*
X1059460D01*
Y864460D01*
X1066230D01*
Y872730D01*
D02*
G37*
G36*
X1649488Y865930D02*
X1638320D01*
Y859595D01*
X1642050D01*
X1644018Y859854D01*
X1645853Y860614D01*
X1647428Y861822D01*
X1648636Y863398D01*
X1649396Y865232D01*
X1649488Y865930D01*
D02*
G37*
G36*
X1635780Y874805D02*
X1632050D01*
X1630082Y874546D01*
X1628248Y873786D01*
X1626672Y872578D01*
X1625464Y871003D01*
X1624704Y869168D01*
X1624612Y868470D01*
X1635780D01*
Y874805D01*
D02*
G37*
G36*
X1597780D02*
X1594050D01*
X1592082Y874546D01*
X1590247Y873786D01*
X1588672Y872578D01*
X1587464Y871003D01*
X1586704Y869168D01*
X1586612Y868470D01*
X1597780D01*
Y874805D01*
D02*
G37*
G36*
X916040Y873230D02*
X906270D01*
Y866460D01*
X916040D01*
Y873230D01*
D02*
G37*
G36*
X1066230Y883540D02*
X1059460D01*
Y875270D01*
X1066230D01*
Y883540D01*
D02*
G37*
G36*
X857750Y943230D02*
X847300D01*
X836850D01*
Y942962D01*
X837087Y941771D01*
X837762Y940762D01*
X838600Y940201D01*
X838325Y939538D01*
Y936462D01*
X838711Y935531D01*
X838805Y935305D01*
X838744Y934049D01*
X836500D01*
X835525Y933855D01*
X834698Y933302D01*
X829198Y927802D01*
X828645Y926975D01*
X828451Y926000D01*
Y914500D01*
X828645Y913524D01*
X829198Y912698D01*
X834500Y907395D01*
Y895000D01*
X853500D01*
Y908000D01*
X841105D01*
X833549Y915556D01*
Y924944D01*
X837556Y928951D01*
X838744D01*
X838805Y928805D01*
X839962Y928325D01*
X854638D01*
X855795Y928805D01*
X856275Y929962D01*
Y933037D01*
X855889Y933969D01*
X855795Y934195D01*
Y935305D01*
X855856Y935451D01*
X861944D01*
X871451Y925944D01*
Y908000D01*
X864500D01*
Y895000D01*
X883500D01*
Y908000D01*
X876549D01*
Y927000D01*
X876355Y927975D01*
X875802Y928802D01*
X864802Y939802D01*
X863976Y940355D01*
X863000Y940549D01*
X858223D01*
X857516Y941766D01*
X857522Y941819D01*
X857750Y942962D01*
Y943230D01*
D02*
G37*
G36*
X1171540Y898030D02*
X1162270D01*
Y893760D01*
X1171540D01*
Y898030D01*
D02*
G37*
G36*
X1159730D02*
X1150460D01*
Y893760D01*
X1159730D01*
Y898030D01*
D02*
G37*
G36*
X1171540Y904840D02*
X1162270D01*
Y900570D01*
X1171540D01*
Y904840D01*
D02*
G37*
G36*
X1159730D02*
X1150460D01*
Y900570D01*
X1159730D01*
Y904840D01*
D02*
G37*
G36*
X915150Y936730D02*
X904700D01*
X894250D01*
Y936462D01*
X894487Y935272D01*
X895162Y934262D01*
X896000Y933701D01*
X895725Y933037D01*
Y929962D01*
X896205Y928805D01*
X897363Y928325D01*
X902151D01*
Y908000D01*
X895500D01*
Y895000D01*
X914500D01*
Y908000D01*
X907249D01*
Y928325D01*
X912038D01*
X913195Y928805D01*
X913675Y929962D01*
Y933037D01*
X913400Y933701D01*
X914238Y934262D01*
X914913Y935272D01*
X915150Y936462D01*
Y936730D01*
D02*
G37*
G36*
X394380Y998650D02*
X352380D01*
Y980650D01*
X386024D01*
X392251Y974423D01*
X391765Y973250D01*
X352380D01*
Y955250D01*
X394380D01*
Y970635D01*
X395553Y971121D01*
X488442Y878232D01*
X487956Y877059D01*
X480267D01*
X416313Y941013D01*
X415321Y941676D01*
X414150Y941909D01*
X414150Y941909D01*
X394380D01*
Y947850D01*
X352380D01*
Y929850D01*
X394380D01*
Y935791D01*
X412883D01*
X476837Y871837D01*
X477829Y871174D01*
X479000Y870941D01*
X479000Y870941D01*
X636000D01*
X636000Y870941D01*
X637170Y871174D01*
X638163Y871837D01*
X654663Y888337D01*
X655326Y889330D01*
X655559Y890500D01*
X655559Y890500D01*
Y930075D01*
X658000D01*
Y952075D01*
X647000D01*
Y930075D01*
X649441D01*
Y891767D01*
X634733Y877059D01*
X633044D01*
X632558Y878232D01*
X641963Y887637D01*
X641963Y887637D01*
X642626Y888630D01*
X642859Y889800D01*
X642859Y889800D01*
Y930075D01*
X645300D01*
Y952075D01*
X634300D01*
Y930075D01*
X636741D01*
Y891067D01*
X627733Y882059D01*
X493267D01*
X394380Y980946D01*
Y998650D01*
D02*
G37*
G36*
X916040Y882540D02*
X906270D01*
Y875770D01*
X916040D01*
Y882540D01*
D02*
G37*
G36*
X903730D02*
X893960D01*
Y875770D01*
X903730D01*
Y882540D01*
D02*
G37*
G36*
X325500Y973452D02*
X323183Y973147D01*
X321024Y972252D01*
X319170Y970830D01*
X317748Y968976D01*
X316854Y966817D01*
X316549Y964500D01*
X316854Y962183D01*
X317748Y960024D01*
X319170Y958170D01*
X321024Y956748D01*
X322951Y955950D01*
Y908050D01*
X321024Y907252D01*
X319170Y905830D01*
X317748Y903976D01*
X316854Y901817D01*
X316549Y899500D01*
X316854Y897183D01*
X317748Y895024D01*
X319170Y893170D01*
X321024Y891748D01*
X323183Y890854D01*
X325500Y890548D01*
X327817Y890854D01*
X329976Y891748D01*
X331830Y893170D01*
X333252Y895024D01*
X334147Y897183D01*
X334452Y899500D01*
X334147Y901817D01*
X333252Y903976D01*
X331830Y905830D01*
X329976Y907252D01*
X328049Y908050D01*
Y955950D01*
X329976Y956748D01*
X331830Y958170D01*
X333252Y960024D01*
X334147Y962183D01*
X334452Y964500D01*
X334147Y966817D01*
X333252Y968976D01*
X331830Y970830D01*
X329976Y972252D01*
X327817Y973147D01*
X325500Y973452D01*
D02*
G37*
G36*
X290838Y898230D02*
X281770D01*
Y889162D01*
X283219Y889353D01*
X285752Y890403D01*
X287928Y892072D01*
X289597Y894248D01*
X290647Y896781D01*
X290838Y898230D01*
D02*
G37*
G36*
X279230D02*
X270162D01*
X270353Y896781D01*
X271403Y894248D01*
X273072Y892072D01*
X275248Y890403D01*
X277781Y889353D01*
X279230Y889162D01*
Y898230D01*
D02*
G37*
G36*
X1635780Y865930D02*
X1624612D01*
X1624704Y865232D01*
X1625464Y863398D01*
X1626672Y861822D01*
X1628248Y860614D01*
X1630082Y859854D01*
X1632050Y859595D01*
X1635780D01*
Y865930D01*
D02*
G37*
G36*
X372110Y822390D02*
X350840D01*
Y813120D01*
X372110D01*
Y822390D01*
D02*
G37*
G36*
X1481270Y816396D02*
Y812270D01*
X1485396D01*
X1485219Y813162D01*
X1483994Y814994D01*
X1482162Y816219D01*
X1481270Y816396D01*
D02*
G37*
G36*
X1459730D02*
X1458838Y816219D01*
X1457006Y814994D01*
X1455781Y813162D01*
X1455604Y812270D01*
X1459730D01*
Y816396D01*
D02*
G37*
G36*
X1478730D02*
X1477838Y816219D01*
X1476006Y814994D01*
X1475885Y814813D01*
X1474615D01*
X1474494Y814994D01*
X1472662Y816219D01*
X1471770Y816396D01*
Y811000D01*
Y805604D01*
X1472662Y805781D01*
X1474494Y807006D01*
X1474615Y807187D01*
X1475885D01*
X1476006Y807006D01*
X1477838Y805781D01*
X1478730Y805604D01*
Y811000D01*
Y816396D01*
D02*
G37*
G36*
X1469230D02*
X1468338Y816219D01*
X1466506Y814994D01*
X1466385Y814813D01*
X1465115D01*
X1464994Y814994D01*
X1463162Y816219D01*
X1462270Y816396D01*
Y811000D01*
Y805604D01*
X1463162Y805781D01*
X1464994Y807006D01*
X1465115Y807187D01*
X1466385D01*
X1466506Y807006D01*
X1468338Y805781D01*
X1469230Y805604D01*
Y811000D01*
Y816396D01*
D02*
G37*
G36*
X395920Y822390D02*
X374650D01*
Y813120D01*
X395920D01*
Y822390D01*
D02*
G37*
G36*
Y810580D02*
X374650D01*
Y801310D01*
X395920D01*
Y810580D01*
D02*
G37*
G36*
X372110D02*
X350840D01*
Y801310D01*
X372110D01*
Y810580D01*
D02*
G37*
G36*
X1311040Y810590D02*
X1305270D01*
Y799770D01*
X1311040D01*
Y810590D01*
D02*
G37*
G36*
X691350Y1096275D02*
X669350D01*
Y1085275D01*
X691350D01*
Y1090961D01*
X732341D01*
X732803Y1089691D01*
X731781Y1088162D01*
X731381Y1086149D01*
X714686Y1069453D01*
X691350D01*
Y1070875D01*
X669350D01*
Y1059875D01*
X691350D01*
Y1061297D01*
X716375D01*
X716375Y1061297D01*
X717936Y1061607D01*
X719259Y1062491D01*
X737149Y1080381D01*
X739162Y1080781D01*
X740994Y1082006D01*
X742219Y1083838D01*
X742648Y1086000D01*
X742219Y1088162D01*
X741197Y1089691D01*
X741659Y1090961D01*
X749155D01*
X805961Y1034155D01*
Y861845D01*
X754155Y810039D01*
X694496D01*
X694076Y810669D01*
X693980Y811500D01*
X694076Y812331D01*
X694496Y812961D01*
X745000D01*
X745780Y813116D01*
X746442Y813558D01*
X802442Y869558D01*
X802442Y869558D01*
X802884Y870220D01*
X803039Y871000D01*
X803039Y871000D01*
Y982000D01*
X803039Y982000D01*
X802884Y982780D01*
X802442Y983442D01*
X731767Y1054117D01*
X731105Y1054559D01*
X730325Y1054714D01*
X691350D01*
Y1058175D01*
X681097D01*
X680350Y1058324D01*
X679603Y1058175D01*
X669350D01*
X669350Y1047175D01*
X668146Y1047015D01*
X667810D01*
Y1041245D01*
X692890D01*
Y1047015D01*
X692554D01*
X691350Y1047175D01*
X691350Y1048285D01*
Y1050636D01*
X729480D01*
X798961Y981155D01*
Y955683D01*
X798750Y954500D01*
X797691Y954500D01*
X784348D01*
X784250Y954500D01*
X783078Y954737D01*
Y967000D01*
X782768Y968561D01*
X781884Y969884D01*
X781884Y969884D01*
X721609Y1030159D01*
X720286Y1031043D01*
X718725Y1031353D01*
X718725Y1031353D01*
X692248D01*
X692019Y1031583D01*
X692473Y1032924D01*
X692554Y1032935D01*
X692890D01*
Y1038705D01*
X667810D01*
Y1032935D01*
X668146D01*
X669350Y1032775D01*
X669350Y1031665D01*
Y1021775D01*
X679603D01*
X680350Y1021627D01*
X681097Y1021775D01*
X691350D01*
Y1023197D01*
X717036D01*
X774518Y965715D01*
X774538Y965025D01*
X774450Y964941D01*
X773116Y964651D01*
X720309Y1017459D01*
X718986Y1018343D01*
X717425Y1018653D01*
X717425Y1018653D01*
X691350D01*
Y1020075D01*
X669350D01*
Y1009075D01*
X691350D01*
Y1010497D01*
X714697D01*
X714766Y1010382D01*
X714133Y1008966D01*
X713034Y1008748D01*
X711366Y1007634D01*
X710252Y1005966D01*
X709946Y1004424D01*
X691350D01*
Y1007375D01*
X669350D01*
Y996375D01*
X691350D01*
Y999326D01*
X712875D01*
X712912Y999333D01*
X713034Y999252D01*
X715000Y998861D01*
X716966Y999252D01*
X718634Y1000366D01*
X719748Y1002033D01*
X720139Y1004000D01*
X720065Y1004371D01*
X721235Y1004997D01*
X766922Y959311D01*
Y906689D01*
X721311Y861078D01*
X697200D01*
X696674Y862348D01*
X751267Y916941D01*
X753780D01*
X754645Y915645D01*
X756643Y914310D01*
X759000Y913842D01*
X761357Y914310D01*
X763355Y915645D01*
X764690Y917643D01*
X765158Y920000D01*
X764690Y922357D01*
X763355Y924355D01*
X761357Y925689D01*
X759000Y926158D01*
X756643Y925689D01*
X754645Y924355D01*
X753780Y923059D01*
X750000D01*
X750000Y923059D01*
X748829Y922826D01*
X747837Y922163D01*
X747837Y922163D01*
X743887Y918213D01*
X742521Y918643D01*
X742218Y920162D01*
X740994Y921994D01*
X739162Y923219D01*
X737000Y923649D01*
X734838Y923219D01*
X733006Y921994D01*
X731781Y920162D01*
X731757Y920039D01*
X711243D01*
X711219Y920162D01*
X709994Y921994D01*
X708162Y923219D01*
X706000Y923649D01*
X703838Y923219D01*
X702006Y921994D01*
X700781Y920162D01*
X700351Y918000D01*
X700781Y915838D01*
X702006Y914006D01*
X703838Y912781D01*
X706000Y912352D01*
X708162Y912781D01*
X709994Y914006D01*
X711219Y915838D01*
X711243Y915961D01*
X731757D01*
X731781Y915838D01*
X733006Y914006D01*
X734838Y912781D01*
X736357Y912479D01*
X736787Y911113D01*
X692733Y867059D01*
X461267D01*
X412713Y915613D01*
X411721Y916276D01*
X410550Y916509D01*
X410550Y916509D01*
X394380D01*
Y922450D01*
X352380D01*
Y904450D01*
X394380D01*
Y910391D01*
X409283D01*
X457326Y862348D01*
X456800Y861078D01*
X441689D01*
X411834Y890934D01*
X410511Y891818D01*
X408950Y892128D01*
X408950Y892128D01*
X394380D01*
Y897050D01*
X352380D01*
Y882793D01*
X351207Y882306D01*
X348059Y885454D01*
Y1026733D01*
X352776Y1031450D01*
X370179D01*
X370890Y1031155D01*
X373380Y1030828D01*
X375870Y1031155D01*
X376581Y1031450D01*
X394380D01*
Y1049450D01*
X376581D01*
X375870Y1049744D01*
X373380Y1050072D01*
X370890Y1049744D01*
X370179Y1049450D01*
X352380D01*
Y1039706D01*
X342837Y1030163D01*
X342174Y1029171D01*
X341941Y1028000D01*
X341941Y1028000D01*
Y884187D01*
X341941Y884187D01*
X342174Y883017D01*
X342837Y882025D01*
X352030Y872832D01*
X352380Y871650D01*
X352380D01*
X352380Y871650D01*
Y853650D01*
X394380D01*
Y871650D01*
X361863D01*
X355636Y877877D01*
X356123Y879050D01*
X394380D01*
Y883972D01*
X407261D01*
X437116Y854116D01*
X437116Y854116D01*
X438439Y853232D01*
X440000Y852922D01*
X440000Y852922D01*
X723000D01*
X723000Y852922D01*
X724561Y853232D01*
X725884Y854116D01*
X773652Y901884D01*
X774558Y901650D01*
X774922Y901398D01*
Y896689D01*
X717311Y839078D01*
X394380D01*
Y846250D01*
X352380D01*
Y828250D01*
X394380D01*
Y830922D01*
X641908D01*
X642293Y829652D01*
X641727Y829273D01*
X640723Y827771D01*
X640371Y826000D01*
X640723Y824229D01*
X641727Y822727D01*
X643229Y821723D01*
X645000Y821371D01*
X646771Y821723D01*
X647068Y821922D01*
X739000D01*
X739000Y821922D01*
X740561Y822232D01*
X741884Y823116D01*
X796884Y878116D01*
X796884Y878116D01*
X797024Y878326D01*
X798750Y878636D01*
X798961Y878485D01*
Y871845D01*
X744155Y817039D01*
X694496D01*
X693913Y817913D01*
X692576Y818806D01*
X691000Y819119D01*
X689424Y818806D01*
X688087Y817913D01*
X687194Y816576D01*
X686881Y815000D01*
X687194Y813424D01*
X687924Y812331D01*
X688020Y811500D01*
X687924Y810669D01*
X687194Y809576D01*
X686881Y808000D01*
X687194Y806424D01*
X688087Y805087D01*
X689424Y804194D01*
X691000Y803881D01*
X692576Y804194D01*
X693913Y805087D01*
X694496Y805961D01*
X755000D01*
X755780Y806116D01*
X756442Y806558D01*
X809442Y859558D01*
X809442Y859558D01*
X809884Y860220D01*
X810039Y861000D01*
Y1035000D01*
X809884Y1035780D01*
X809442Y1036442D01*
X751442Y1094442D01*
X750780Y1094884D01*
X750000Y1095039D01*
X691350D01*
Y1096275D01*
D02*
G37*
G36*
X1485396Y809730D02*
X1481270D01*
Y805604D01*
X1482162Y805781D01*
X1483994Y807006D01*
X1485219Y808838D01*
X1485396Y809730D01*
D02*
G37*
G36*
X1459730D02*
X1455604D01*
X1455781Y808838D01*
X1457006Y807006D01*
X1458838Y805781D01*
X1459730Y805604D01*
Y809730D01*
D02*
G37*
G36*
X1391000Y929000D02*
X1365000D01*
Y817000D01*
X1391000D01*
Y929000D01*
D02*
G37*
G36*
X279230Y850838D02*
X277781Y850647D01*
X275248Y849597D01*
X273072Y847928D01*
X271402Y845752D01*
X270353Y843219D01*
X270162Y841770D01*
X279230D01*
Y850838D01*
D02*
G37*
G36*
X290838Y839230D02*
X281770D01*
Y830162D01*
X283219Y830353D01*
X285752Y831403D01*
X287928Y833072D01*
X289597Y835248D01*
X290647Y837781D01*
X290838Y839230D01*
D02*
G37*
G36*
X279230D02*
X270162D01*
X270353Y837781D01*
X271402Y835248D01*
X273072Y833072D01*
X275248Y831403D01*
X277781Y830353D01*
X279230Y830162D01*
Y839230D01*
D02*
G37*
G36*
X1611488Y865930D02*
X1600320D01*
Y859595D01*
X1604050D01*
X1606018Y859854D01*
X1607853Y860614D01*
X1609428Y861822D01*
X1610636Y863398D01*
X1611396Y865232D01*
X1611488Y865930D01*
D02*
G37*
G36*
X1597780D02*
X1586612D01*
X1586704Y865232D01*
X1587464Y863398D01*
X1588672Y861822D01*
X1590247Y860614D01*
X1592082Y859854D01*
X1594050Y859595D01*
X1597780D01*
Y865930D01*
D02*
G37*
G36*
X281770Y850838D02*
Y841770D01*
X290838D01*
X290647Y843219D01*
X289597Y845752D01*
X287928Y847928D01*
X285752Y849597D01*
X283219Y850647D01*
X281770Y850838D01*
D02*
G37*
G36*
X1459730Y829396D02*
X1458838Y829219D01*
X1457006Y827994D01*
X1455781Y826162D01*
X1455604Y825270D01*
X1459730D01*
Y829396D01*
D02*
G37*
G36*
X1485396Y822730D02*
X1481270D01*
Y818604D01*
X1482162Y818781D01*
X1483994Y820006D01*
X1485219Y821838D01*
X1485396Y822730D01*
D02*
G37*
G36*
X1459730D02*
X1455604D01*
X1455781Y821838D01*
X1457006Y820006D01*
X1458838Y818781D01*
X1459730Y818604D01*
Y822730D01*
D02*
G37*
G36*
X1478730Y829396D02*
X1477838Y829219D01*
X1476006Y827994D01*
X1475885Y827813D01*
X1474615D01*
X1474494Y827994D01*
X1472662Y829219D01*
X1471770Y829396D01*
Y824000D01*
Y818604D01*
X1472662Y818781D01*
X1474494Y820006D01*
X1474615Y820187D01*
X1475885D01*
X1476006Y820006D01*
X1477838Y818781D01*
X1478730Y818604D01*
Y824000D01*
Y829396D01*
D02*
G37*
G36*
X1469230D02*
X1468338Y829219D01*
X1466506Y827994D01*
X1466385Y827813D01*
X1465115D01*
X1464994Y827994D01*
X1463162Y829219D01*
X1462270Y829396D01*
Y824000D01*
Y818604D01*
X1463162Y818781D01*
X1464994Y820006D01*
X1465115Y820187D01*
X1466385D01*
X1466506Y820006D01*
X1468338Y818781D01*
X1469230Y818604D01*
Y824000D01*
Y829396D01*
D02*
G37*
G36*
X1481270D02*
Y825270D01*
X1485396D01*
X1485219Y826162D01*
X1483994Y827994D01*
X1482162Y829219D01*
X1481270Y829396D01*
D02*
G37*
G36*
X279230Y909838D02*
X277781Y909647D01*
X275248Y908597D01*
X273072Y906928D01*
X271403Y904752D01*
X270353Y902219D01*
X270162Y900770D01*
X279230D01*
Y909838D01*
D02*
G37*
G36*
X996540Y938040D02*
X989770D01*
Y928270D01*
X996540D01*
Y938040D01*
D02*
G37*
G36*
X536930Y939805D02*
X531160D01*
Y928535D01*
X536930D01*
Y939805D01*
D02*
G37*
G36*
X640000Y1038649D02*
X637838Y1038219D01*
X636006Y1036994D01*
X634781Y1035162D01*
X634352Y1033000D01*
X634781Y1030838D01*
X636006Y1029006D01*
X637451Y1028040D01*
Y984625D01*
X637645Y983650D01*
X638198Y982823D01*
X661711Y959309D01*
X661185Y958039D01*
X603400D01*
X602620Y957884D01*
X601958Y957442D01*
X601958Y957442D01*
X600258Y955742D01*
X599816Y955080D01*
X599661Y954300D01*
Y952075D01*
X596200D01*
Y930075D01*
X607200D01*
Y952075D01*
X603739D01*
Y953455D01*
X604245Y953961D01*
X661155D01*
X663923Y951193D01*
Y945038D01*
X664079Y944257D01*
X664521Y943596D01*
X666633Y941483D01*
X667295Y941041D01*
X668075Y940886D01*
X720418D01*
X721006Y940006D01*
X722838Y938781D01*
X725000Y938352D01*
X727162Y938781D01*
X728994Y940006D01*
X730219Y941838D01*
X730648Y944000D01*
X730219Y946162D01*
X728994Y947994D01*
X727162Y949219D01*
X725000Y949649D01*
X722838Y949219D01*
X721006Y947994D01*
X719781Y946162D01*
X719543Y944964D01*
X692367D01*
X691350Y945575D01*
X691350Y946234D01*
Y956575D01*
X672261D01*
X671938Y957005D01*
X672574Y958275D01*
X691350D01*
Y959697D01*
X719536D01*
X736116Y943116D01*
X737439Y942232D01*
X739000Y941922D01*
X739000Y941922D01*
X749750D01*
Y937500D01*
X764250D01*
Y954500D01*
X749750D01*
Y950078D01*
X740689D01*
X724109Y966659D01*
X722786Y967543D01*
X721225Y967853D01*
X721225Y967853D01*
X691350D01*
Y969275D01*
X669350D01*
Y960539D01*
X668177Y960053D01*
X642549Y985681D01*
Y1028040D01*
X643994Y1029006D01*
X645219Y1030838D01*
X645648Y1033000D01*
X645219Y1035162D01*
X643994Y1036994D01*
X642162Y1038219D01*
X640000Y1038649D01*
D02*
G37*
G36*
X685000Y938649D02*
X682838Y938219D01*
X681006Y936994D01*
X679781Y935162D01*
X679352Y933000D01*
X679781Y930838D01*
X681006Y929006D01*
X682838Y927781D01*
X685000Y927352D01*
X687162Y927781D01*
X688994Y929006D01*
X690219Y930838D01*
X690243Y930961D01*
X724558D01*
X724781Y929838D01*
X726006Y928006D01*
X727838Y926781D01*
X730000Y926351D01*
X732162Y926781D01*
X733994Y928006D01*
X735219Y929838D01*
X735648Y932000D01*
X735219Y934162D01*
X733994Y935994D01*
X732162Y937218D01*
X730000Y937648D01*
X727838Y937218D01*
X726006Y935994D01*
X725368Y935039D01*
X690243D01*
X690219Y935162D01*
X688994Y936994D01*
X687162Y938219D01*
X685000Y938649D01*
D02*
G37*
G36*
X1581640Y966730D02*
X1571270D01*
Y947528D01*
X1573013Y947757D01*
X1575820Y948920D01*
X1578230Y950770D01*
X1580080Y953180D01*
X1581243Y955987D01*
X1581640Y959000D01*
Y966730D01*
D02*
G37*
G36*
X987230Y938040D02*
X980460D01*
Y928270D01*
X987230D01*
Y938040D01*
D02*
G37*
G36*
X569100Y952075D02*
X558100D01*
Y930075D01*
X569100D01*
Y952075D01*
D02*
G37*
G36*
X632600D02*
X621600D01*
Y930075D01*
X632600D01*
Y952075D01*
D02*
G37*
G36*
X1568730Y966730D02*
X1558360D01*
Y959000D01*
X1558757Y955987D01*
X1559920Y953180D01*
X1561770Y950770D01*
X1564180Y948920D01*
X1566987Y947757D01*
X1568730Y947528D01*
Y966730D01*
D02*
G37*
G36*
X1510000Y989095D02*
X1507128Y988717D01*
X1504453Y987608D01*
X1502155Y985845D01*
X1500392Y983547D01*
X1499283Y980872D01*
X1498905Y978000D01*
Y974118D01*
X1475800D01*
X1473459Y973652D01*
X1471474Y972326D01*
X1459249Y960100D01*
X1442900D01*
Y942100D01*
X1474900D01*
Y958448D01*
X1478334Y961882D01*
X1498905D01*
Y958000D01*
X1499283Y955128D01*
X1500392Y952453D01*
X1502155Y950155D01*
X1504453Y948391D01*
X1507128Y947283D01*
X1510000Y946905D01*
X1512872Y947283D01*
X1515547Y948391D01*
X1517845Y950155D01*
X1519608Y952453D01*
X1520717Y955128D01*
X1521095Y958000D01*
Y978000D01*
X1520717Y980872D01*
X1519608Y983547D01*
X1517845Y985845D01*
X1515547Y987608D01*
X1512872Y988717D01*
X1510000Y989095D01*
D02*
G37*
G36*
X581800Y952075D02*
X570800D01*
Y930075D01*
X581800D01*
Y952075D01*
D02*
G37*
G36*
X594500D02*
X583500D01*
Y930075D01*
X594500D01*
Y952075D01*
D02*
G37*
G36*
X619900D02*
X608900D01*
Y930075D01*
X619900D01*
Y952075D01*
D02*
G37*
G36*
X1561472Y917730D02*
X1542270D01*
Y907360D01*
X1550000D01*
X1553013Y907757D01*
X1555820Y908920D01*
X1558230Y910770D01*
X1560080Y913180D01*
X1561243Y915987D01*
X1561472Y917730D01*
D02*
G37*
G36*
X536930Y953615D02*
X531160D01*
Y942345D01*
X536930D01*
Y953615D01*
D02*
G37*
G36*
X857750Y949730D02*
X847300D01*
X836850D01*
Y949463D01*
X837087Y948271D01*
X837436Y947750D01*
X837087Y947228D01*
X836850Y946038D01*
Y945770D01*
X847300D01*
X857750D01*
Y946038D01*
X857513Y947228D01*
X857165Y947750D01*
X857513Y948271D01*
X857750Y949463D01*
Y949730D01*
D02*
G37*
G36*
X281770Y909838D02*
Y900770D01*
X290838D01*
X290647Y902219D01*
X289597Y904752D01*
X287928Y906928D01*
X285752Y908597D01*
X283219Y909647D01*
X281770Y909838D01*
D02*
G37*
G36*
X1319000Y912648D02*
X1316838Y912218D01*
X1315006Y910994D01*
X1313781Y909162D01*
X1313351Y907000D01*
X1313691Y905295D01*
X1297544Y889149D01*
X1170000D01*
Y890600D01*
X1152000D01*
Y889149D01*
X1116000D01*
Y890600D01*
X1098000D01*
Y882600D01*
X1116000D01*
Y884051D01*
X1152000D01*
Y882600D01*
X1170000D01*
Y884051D01*
X1298600D01*
X1299576Y884245D01*
X1300402Y884798D01*
X1317295Y901691D01*
X1319000Y901351D01*
X1321162Y901781D01*
X1322994Y903006D01*
X1324219Y904838D01*
X1324648Y907000D01*
X1324219Y909162D01*
X1322994Y910994D01*
X1321162Y912218D01*
X1319000Y912648D01*
D02*
G37*
G36*
X1539730Y917730D02*
X1520528D01*
X1520757Y915987D01*
X1521920Y913180D01*
X1523770Y910770D01*
X1526180Y908920D01*
X1528987Y907757D01*
X1532000Y907360D01*
X1539730D01*
Y917730D01*
D02*
G37*
G36*
X987230Y925730D02*
X980460D01*
Y915960D01*
X987230D01*
Y925730D01*
D02*
G37*
G36*
X1539730Y930639D02*
X1532000D01*
X1528987Y930243D01*
X1526180Y929080D01*
X1523770Y927230D01*
X1521920Y924820D01*
X1520757Y922012D01*
X1520528Y920270D01*
X1539730D01*
Y930639D01*
D02*
G37*
G36*
X1550000D02*
X1542270D01*
Y920270D01*
X1561472D01*
X1561243Y922012D01*
X1560080Y924820D01*
X1558230Y927230D01*
X1555820Y929080D01*
X1553013Y930243D01*
X1550000Y930639D01*
D02*
G37*
G36*
X987230Y949730D02*
X980460D01*
Y939960D01*
X987230D01*
Y949730D01*
D02*
G37*
G36*
X692890Y1114905D02*
X667810D01*
Y1109135D01*
X668146D01*
X669350Y1108975D01*
X669350Y1107865D01*
Y1097975D01*
X691350D01*
Y1099397D01*
X762836D01*
X814922Y1047311D01*
Y923868D01*
X813782Y922162D01*
X813352Y920000D01*
X813782Y917838D01*
X815006Y916006D01*
X816838Y914781D01*
X819000Y914352D01*
X821162Y914781D01*
X822994Y916006D01*
X824219Y917838D01*
X824649Y920000D01*
X824219Y922162D01*
X823078Y923868D01*
Y1049000D01*
X823078Y1049000D01*
X822768Y1050561D01*
X821884Y1051884D01*
X821884Y1051884D01*
X767409Y1106359D01*
X766086Y1107243D01*
X764525Y1107553D01*
X764525Y1107553D01*
X692248D01*
X692019Y1107783D01*
X692473Y1109124D01*
X692554Y1109135D01*
X692890D01*
Y1114905D01*
D02*
G37*
G36*
X996540Y949730D02*
X989770D01*
Y939960D01*
X996540D01*
Y949730D01*
D02*
G37*
%LPD*%
G36*
X1086255Y993793D02*
X1086165Y993354D01*
X1085711Y992549D01*
X1033464D01*
X1032489Y992355D01*
X1031662Y991802D01*
X1022198Y982338D01*
X1021645Y981511D01*
X1021451Y980536D01*
Y932056D01*
X998944Y909549D01*
X993985D01*
X993459Y910819D01*
X1013802Y931162D01*
X1014355Y931989D01*
X1014549Y932964D01*
Y975243D01*
X1015273Y975727D01*
X1016277Y977229D01*
X1016629Y979000D01*
X1016293Y980688D01*
X1030056Y994451D01*
X1085745D01*
X1086255Y993793D01*
D02*
G37*
G36*
X987576Y905181D02*
X890944Y808549D01*
X879900D01*
Y814451D01*
X881000D01*
X881975Y814645D01*
X882802Y815198D01*
X974056Y906451D01*
X987050D01*
X987576Y905181D01*
D02*
G37*
G36*
X1443261Y1006771D02*
X1442900Y1005900D01*
X1442900D01*
Y987900D01*
X1442915D01*
X1443401Y986727D01*
X1435837Y979163D01*
X1435174Y978170D01*
X1434941Y977000D01*
X1434941Y977000D01*
Y937059D01*
X1321000D01*
X1319830Y936826D01*
X1318837Y936163D01*
X1287733Y905059D01*
X1190267D01*
X1170000Y925326D01*
Y928700D01*
X1152000D01*
Y927759D01*
X1116000D01*
Y928700D01*
X1098000D01*
Y920700D01*
X1116000D01*
X1116941Y919906D01*
Y916794D01*
X1116000Y916000D01*
X1115671Y916000D01*
X1098000D01*
Y908000D01*
X1115671D01*
X1116000Y908000D01*
X1116941Y907206D01*
Y904094D01*
X1116000Y903300D01*
X1107394D01*
X1107000Y903378D01*
X1001117D01*
X1000975Y904645D01*
X1001802Y905198D01*
X1025802Y929198D01*
X1026355Y930025D01*
X1026549Y931000D01*
Y979480D01*
X1029287Y982217D01*
X1030367Y981770D01*
X1040000D01*
X1049540D01*
Y987451D01*
X1084944D01*
X1087541Y984854D01*
X1087371Y984000D01*
X1087723Y982229D01*
X1088727Y980727D01*
X1090229Y979723D01*
X1092000Y979371D01*
X1092854Y979541D01*
X1101198Y971198D01*
X1102025Y970645D01*
X1103000Y970451D01*
X1201000D01*
X1201975Y970645D01*
X1202802Y971198D01*
X1214056Y982451D01*
X1240000D01*
X1240975Y982645D01*
X1241802Y983198D01*
X1246190Y987585D01*
X1247460Y987059D01*
Y981270D01*
X1257000D01*
X1266540D01*
Y987181D01*
X1266540Y988040D01*
X1267640Y988451D01*
X1333000D01*
X1333976Y988645D01*
X1334802Y989198D01*
X1340295Y994691D01*
X1342000Y994352D01*
X1344162Y994781D01*
X1345994Y996006D01*
X1347219Y997838D01*
X1347648Y1000000D01*
X1347219Y1002162D01*
X1345994Y1003994D01*
X1344162Y1005219D01*
X1342000Y1005648D01*
X1339838Y1005219D01*
X1338006Y1003994D01*
X1336781Y1002162D01*
X1336351Y1000000D01*
X1336691Y998295D01*
X1331944Y993549D01*
X1246000D01*
X1245025Y993355D01*
X1244198Y992802D01*
X1238944Y987549D01*
X1227950D01*
X1227424Y988819D01*
X1235056Y996451D01*
X1315836D01*
X1316838Y995781D01*
X1319000Y995351D01*
X1321162Y995781D01*
X1322994Y997006D01*
X1324219Y998838D01*
X1324648Y1001000D01*
X1324219Y1003162D01*
X1322994Y1004994D01*
X1321162Y1006219D01*
X1319000Y1006648D01*
X1316838Y1006219D01*
X1315006Y1004994D01*
X1313781Y1003162D01*
X1313461Y1001549D01*
X1235113D01*
X1234587Y1002819D01*
X1246689Y1014922D01*
X1435111D01*
X1443261Y1006771D01*
D02*
G37*
%LPC*%
G36*
X1225648Y971103D02*
X1212648D01*
Y967082D01*
X1161203D01*
X1159787Y966800D01*
X1152000D01*
Y958800D01*
X1160606D01*
X1161000Y958722D01*
X1161394Y958800D01*
X1170000D01*
Y958925D01*
X1212648D01*
Y954903D01*
X1225648D01*
Y971103D01*
D02*
G37*
G36*
X1171540Y948830D02*
X1162270D01*
Y944560D01*
X1171540D01*
Y948830D01*
D02*
G37*
G36*
X1117540D02*
X1108270D01*
Y944560D01*
X1117540D01*
Y948830D01*
D02*
G37*
G36*
X1159730D02*
X1150460D01*
Y944560D01*
X1159730D01*
Y948830D01*
D02*
G37*
G36*
X1171540Y955640D02*
X1162270D01*
Y951370D01*
X1171540D01*
Y955640D01*
D02*
G37*
G36*
X1105730D02*
X1096460D01*
Y951370D01*
X1105730D01*
Y955640D01*
D02*
G37*
G36*
X1159730D02*
X1150460D01*
Y951370D01*
X1159730D01*
Y955640D01*
D02*
G37*
G36*
X1117540D02*
X1108270D01*
Y951370D01*
X1117540D01*
Y955640D01*
D02*
G37*
G36*
X1049540Y979230D02*
X1040000D01*
X1030460D01*
Y972460D01*
X1030920D01*
X1032000Y972000D01*
X1032000Y971190D01*
Y959000D01*
X1048000D01*
Y960961D01*
X1054800D01*
Y954900D01*
X1067800D01*
Y971100D01*
X1054800D01*
Y965039D01*
X1048000D01*
X1048000Y972000D01*
X1049079Y972460D01*
X1049540D01*
Y979230D01*
D02*
G37*
G36*
X1085500Y971100D02*
X1072500D01*
Y954900D01*
X1085500D01*
Y960761D01*
X1098000D01*
Y958800D01*
X1116000D01*
Y966800D01*
X1098000D01*
Y964839D01*
X1085500D01*
Y971100D01*
D02*
G37*
G36*
X1047000Y944000D02*
X1031000D01*
Y931810D01*
X1031000Y931000D01*
X1029921Y930540D01*
X1029460D01*
Y923770D01*
X1048540D01*
Y930540D01*
X1048080D01*
X1047247Y930895D01*
X1047110Y932172D01*
X1047898Y932961D01*
X1054650D01*
Y926900D01*
X1067650D01*
Y943100D01*
X1054650D01*
Y937039D01*
X1047000D01*
Y944000D01*
D02*
G37*
G36*
X1243350Y947100D02*
X1230350D01*
Y930900D01*
X1243350D01*
Y934922D01*
X1248000D01*
X1248000Y929000D01*
X1246921Y928540D01*
X1246460D01*
Y921770D01*
X1265540D01*
Y928540D01*
X1265079D01*
X1264000Y929000D01*
X1264000Y929810D01*
Y934922D01*
X1280500D01*
Y929100D01*
X1297500D01*
Y946100D01*
X1280500D01*
Y943078D01*
X1243350D01*
Y947100D01*
D02*
G37*
G36*
X1225650D02*
X1212650D01*
Y941478D01*
X1161000D01*
X1160606Y941400D01*
X1152000D01*
Y933400D01*
X1160606D01*
X1161000Y933322D01*
X1212650D01*
Y930900D01*
X1225650D01*
Y947100D01*
D02*
G37*
G36*
X1048540Y921230D02*
X1040270D01*
Y914460D01*
X1048540D01*
Y921230D01*
D02*
G37*
G36*
X1254730Y919230D02*
X1246460D01*
Y912460D01*
X1254730D01*
Y919230D01*
D02*
G37*
G36*
X1265540D02*
X1257270D01*
Y912460D01*
X1265540D01*
Y919230D01*
D02*
G37*
G36*
X1037730Y921230D02*
X1029460D01*
Y914460D01*
X1037730D01*
Y921230D01*
D02*
G37*
G36*
X1266540Y978730D02*
X1257000D01*
X1247460D01*
Y971960D01*
X1247921D01*
X1249000Y971500D01*
X1249000Y970690D01*
Y967082D01*
X1243348D01*
Y971103D01*
X1230348D01*
Y954903D01*
X1243348D01*
Y958925D01*
X1249000D01*
Y958500D01*
X1265000D01*
Y958925D01*
X1281488D01*
X1281575Y958713D01*
X1282938Y956938D01*
X1284713Y955575D01*
X1286781Y954719D01*
X1289000Y954427D01*
X1291219Y954719D01*
X1293287Y955575D01*
X1295062Y956938D01*
X1296425Y958713D01*
X1297281Y960781D01*
X1297573Y963000D01*
X1297281Y965219D01*
X1296425Y967287D01*
X1295062Y969062D01*
X1293287Y970425D01*
X1291219Y971281D01*
X1289000Y971573D01*
X1286781Y971281D01*
X1284713Y970425D01*
X1282938Y969062D01*
X1281575Y967287D01*
X1281490Y967082D01*
X1265000D01*
X1265000Y971500D01*
X1266079Y971960D01*
X1266540D01*
Y978730D01*
D02*
G37*
G36*
X1420640Y972730D02*
X1388370D01*
Y942460D01*
X1420640D01*
Y972730D01*
D02*
G37*
G36*
X1105730Y948830D02*
X1096460D01*
Y944560D01*
X1105730D01*
Y948830D01*
D02*
G37*
G36*
X1385830Y972730D02*
X1353560D01*
Y942460D01*
X1385830D01*
Y972730D01*
D02*
G37*
G36*
X1085350Y943100D02*
X1072350D01*
Y926900D01*
X1085350D01*
Y935361D01*
X1098000D01*
Y933400D01*
X1116000D01*
Y941400D01*
X1098000D01*
Y939439D01*
X1085350D01*
Y943100D01*
D02*
G37*
G36*
X1420640Y1005540D02*
X1388370D01*
Y975270D01*
X1420640D01*
Y1005540D01*
D02*
G37*
G36*
X1385830D02*
X1353560D01*
Y975270D01*
X1385830D01*
Y1005540D01*
D02*
G37*
%LPD*%
G36*
X789922Y882689D02*
X737311Y830078D01*
X720946D01*
X720757Y830645D01*
X720735Y831348D01*
X721884Y832116D01*
X781884Y892116D01*
X782768Y893439D01*
X783078Y895000D01*
X783078Y895000D01*
Y937263D01*
X784250Y937500D01*
X784348Y937500D01*
X789922D01*
Y882689D01*
D02*
G37*
D10*
X627000Y583150D02*
D03*
Y600850D02*
D03*
X390000Y595150D02*
D03*
Y612850D02*
D03*
X428500Y595150D02*
D03*
Y612850D02*
D03*
X467000Y595150D02*
D03*
Y612850D02*
D03*
D11*
X607500Y537000D02*
D03*
X642500D02*
D03*
X1041400Y1071000D02*
D03*
X934400Y1123000D02*
D03*
X871400Y817000D02*
D03*
D12*
X791500Y946000D02*
D03*
X757000D02*
D03*
X685750Y660000D02*
D03*
X720250D02*
D03*
X559750Y666000D02*
D03*
X594250D02*
D03*
D13*
X1150000Y1063500D02*
D03*
Y1098500D02*
D03*
X1400000Y515000D02*
D03*
Y480000D02*
D03*
X1360000Y515500D02*
D03*
Y480500D02*
D03*
X1527000Y783400D02*
D03*
X1289000Y937600D02*
D03*
D14*
X847300Y931500D02*
D03*
Y938000D02*
D03*
Y944500D02*
D03*
Y951000D02*
D03*
Y957500D02*
D03*
Y964000D02*
D03*
Y970500D02*
D03*
X904700D02*
D03*
Y964000D02*
D03*
Y957500D02*
D03*
Y951000D02*
D03*
Y944500D02*
D03*
Y938000D02*
D03*
Y931500D02*
D03*
D15*
X733844Y775906D02*
D03*
Y771080D02*
D03*
Y766000D02*
D03*
Y760920D02*
D03*
Y756094D02*
D03*
X690156D02*
D03*
Y760920D02*
D03*
Y766000D02*
D03*
Y771080D02*
D03*
Y775906D02*
D03*
D16*
X1462000Y725750D02*
D03*
Y760250D02*
D03*
X1490000Y725750D02*
D03*
Y760250D02*
D03*
X652000Y622750D02*
D03*
Y657250D02*
D03*
X699000Y552750D02*
D03*
Y587250D02*
D03*
X652000Y561750D02*
D03*
Y596250D02*
D03*
X945000Y695250D02*
D03*
Y660750D02*
D03*
X526000Y550750D02*
D03*
Y585250D02*
D03*
X569000Y552750D02*
D03*
Y587250D02*
D03*
X526000Y622750D02*
D03*
Y657250D02*
D03*
X457000Y1068750D02*
D03*
Y1103250D02*
D03*
D17*
X1257000Y965000D02*
D03*
Y980000D02*
D03*
X1256000Y935500D02*
D03*
Y920500D02*
D03*
X457000Y1136000D02*
D03*
Y1121000D02*
D03*
X1275000Y871500D02*
D03*
Y856500D02*
D03*
X477000Y1136500D02*
D03*
Y1121500D02*
D03*
X738000Y560500D02*
D03*
Y575500D02*
D03*
X606000Y560500D02*
D03*
Y575500D02*
D03*
X1039000Y937500D02*
D03*
Y922500D02*
D03*
X1040000Y965500D02*
D03*
Y980500D02*
D03*
D18*
X1387100Y974000D02*
D03*
D19*
X1458900Y951100D02*
D03*
Y996900D02*
D03*
D20*
X510350Y1116175D02*
D03*
Y1103475D02*
D03*
Y1090775D02*
D03*
Y1078075D02*
D03*
Y1065375D02*
D03*
Y1052675D02*
D03*
Y1039975D02*
D03*
Y1027275D02*
D03*
Y1014575D02*
D03*
Y1001875D02*
D03*
Y989175D02*
D03*
Y976475D02*
D03*
Y963775D02*
D03*
Y951075D02*
D03*
X680350D02*
D03*
Y963775D02*
D03*
Y976475D02*
D03*
Y989175D02*
D03*
Y1001875D02*
D03*
Y1014575D02*
D03*
Y1027275D02*
D03*
Y1039975D02*
D03*
Y1052675D02*
D03*
Y1065375D02*
D03*
Y1078075D02*
D03*
Y1090775D02*
D03*
Y1103475D02*
D03*
Y1116175D02*
D03*
D21*
X538200Y941075D02*
D03*
X550900D02*
D03*
X563600D02*
D03*
X576300D02*
D03*
X589000D02*
D03*
X601700D02*
D03*
X614400D02*
D03*
X627100D02*
D03*
X639800D02*
D03*
X652500D02*
D03*
D22*
X567000Y1059525D02*
D03*
X585350D02*
D03*
X603700D02*
D03*
X567000Y1041175D02*
D03*
X585350D02*
D03*
X603700D02*
D03*
X567000Y1022825D02*
D03*
X585350D02*
D03*
X603700D02*
D03*
D23*
X698500Y699000D02*
D03*
X713500D02*
D03*
X574500Y708000D02*
D03*
X589500D02*
D03*
X454832Y636000D02*
D03*
X439832D02*
D03*
X621500Y623000D02*
D03*
X606500D02*
D03*
X755000Y622000D02*
D03*
X740000D02*
D03*
X377495Y636000D02*
D03*
X362495D02*
D03*
X416164D02*
D03*
X401164D02*
D03*
X493500D02*
D03*
X478500D02*
D03*
X1082500Y874000D02*
D03*
X1067500D02*
D03*
D24*
X689000Y634000D02*
D03*
X698500Y610000D02*
D03*
X679500D02*
D03*
X563500Y630000D02*
D03*
X573000Y606000D02*
D03*
X554000D02*
D03*
D25*
X1114000Y720000D02*
D03*
X1094000D02*
D03*
X1114000Y740000D02*
D03*
X1113000Y617000D02*
D03*
X1093000D02*
D03*
X1113000Y637000D02*
D03*
D26*
X1094000Y738000D02*
D03*
X1093000Y635000D02*
D03*
D27*
X1142000Y603000D02*
D03*
Y628000D02*
D03*
Y653000D02*
D03*
X1222000D02*
D03*
Y603000D02*
D03*
X1144000Y705000D02*
D03*
Y730000D02*
D03*
Y755000D02*
D03*
X1224000D02*
D03*
Y705000D02*
D03*
X1059000Y755000D02*
D03*
Y730000D02*
D03*
Y705000D02*
D03*
X979000D02*
D03*
Y755000D02*
D03*
X1060000Y653000D02*
D03*
Y628000D02*
D03*
Y603000D02*
D03*
X980000D02*
D03*
Y653000D02*
D03*
X903000Y703000D02*
D03*
Y678000D02*
D03*
Y653000D02*
D03*
X823000D02*
D03*
Y703000D02*
D03*
D28*
X1107000Y962800D02*
D03*
Y950100D02*
D03*
Y937400D02*
D03*
Y924700D02*
D03*
Y912000D02*
D03*
Y899300D02*
D03*
Y886600D02*
D03*
Y873900D02*
D03*
X1161000D02*
D03*
Y886600D02*
D03*
Y899300D02*
D03*
Y912000D02*
D03*
Y924700D02*
D03*
Y937400D02*
D03*
Y950100D02*
D03*
Y962800D02*
D03*
D29*
X874000Y901500D02*
D03*
Y874500D02*
D03*
X844000Y901500D02*
D03*
Y874500D02*
D03*
X905000D02*
D03*
Y901500D02*
D03*
X1193000Y1018500D02*
D03*
Y991500D02*
D03*
D30*
X988500Y951000D02*
D03*
X961500D02*
D03*
X410500Y1123000D02*
D03*
X437500D02*
D03*
X988500Y927000D02*
D03*
X961500D02*
D03*
X772500Y787000D02*
D03*
X799500D02*
D03*
X772500Y762000D02*
D03*
X799500D02*
D03*
D31*
X1219148Y963003D02*
D03*
X1236848D02*
D03*
X1219150Y939000D02*
D03*
X1236850D02*
D03*
X1061150Y935000D02*
D03*
X1078850D02*
D03*
X1061300Y963000D02*
D03*
X1079000D02*
D03*
D32*
X1107000Y1035050D02*
D03*
Y1022350D02*
D03*
Y1009650D02*
D03*
Y996950D02*
D03*
X1163000D02*
D03*
Y1009650D02*
D03*
Y1022350D02*
D03*
Y1035050D02*
D03*
D33*
X373380Y710250D02*
D03*
Y735650D02*
D03*
Y761050D02*
D03*
Y786450D02*
D03*
Y811850D02*
D03*
Y837250D02*
D03*
Y862650D02*
D03*
Y888050D02*
D03*
Y913450D02*
D03*
Y938850D02*
D03*
Y964250D02*
D03*
Y989650D02*
D03*
Y1015050D02*
D03*
Y1040450D02*
D03*
D34*
X1327000Y859500D02*
D03*
D35*
X1350000Y798500D02*
D03*
X1327000D02*
D03*
X1304000D02*
D03*
D36*
X630000Y779000D02*
D03*
Y756000D02*
D03*
X647500D02*
D03*
Y779000D02*
D03*
D37*
X287000Y636000D02*
D03*
D38*
Y667000D02*
D03*
Y606000D02*
D03*
D39*
X1204000Y1076000D02*
D03*
X1354000Y1077000D02*
D03*
D40*
X1204000Y1170000D02*
D03*
X1278000Y1150000D02*
D03*
X1354000Y1171000D02*
D03*
X1428000Y1151000D02*
D03*
D41*
X607000Y558000D02*
X627000Y578000D01*
Y583000D01*
X607000Y537000D02*
Y561500D01*
X287000Y636000D02*
X362495D01*
X373380Y888050D02*
X408950D01*
X582250Y580000D02*
X607500D01*
X1236848Y963003D02*
X1288997D01*
X1163000Y996950D02*
X1222950D01*
X1360000Y622750D02*
X1463000Y725750D01*
X1236850Y939000D02*
X1287600D01*
X645000Y826000D02*
X739000D01*
X794000Y881000D01*
Y943500D01*
X791500Y946000D02*
X794000Y943500D01*
X680350Y963775D02*
X721225D01*
X739000Y946000D01*
X757000D01*
X717425Y1014575D02*
X771000Y961000D01*
Y905000D02*
Y961000D01*
X723000Y857000D02*
X771000Y905000D01*
X718725Y1027275D02*
X779000Y967000D01*
Y895000D02*
Y967000D01*
X719000Y835000D02*
X779000Y895000D01*
X652000Y596250D02*
Y622750D01*
X573000Y589250D02*
X582250Y580000D01*
X1068000Y1186000D02*
X1089000Y1165000D01*
X1059000D02*
X1125500Y1098500D01*
X1150000D01*
X1400000Y635750D02*
X1490000Y725750D01*
X1400000Y515000D02*
Y635750D01*
X1360000Y515500D02*
Y622750D01*
X457225Y1103475D02*
X495025D01*
X437500Y1122750D02*
X457000Y1103250D01*
X1497600Y783400D02*
X1527000D01*
X440000Y857000D02*
X723000D01*
X764525Y1103475D02*
X819000Y1049000D01*
Y920000D02*
Y1049000D01*
X375630Y835000D02*
X719000D01*
X373380Y837250D02*
X375630Y835000D01*
X408950Y888050D02*
X440000Y857000D01*
X819000Y767500D02*
X1176500D01*
X799500Y787000D02*
X819000Y767500D01*
X1176500D02*
X1224000Y720000D01*
X843000Y738000D02*
X863000Y718000D01*
Y622000D02*
Y718000D01*
Y622000D02*
X905000Y580000D01*
X823500Y738000D02*
X843000D01*
X1199000Y580000D02*
X1222000Y603000D01*
X905000Y580000D02*
X1199000D01*
X799500Y762000D02*
X823500Y738000D01*
X1224000Y705000D02*
Y720000D01*
X467000Y624500D02*
X478500Y636000D01*
X467000Y612850D02*
Y624500D01*
X428500Y624668D02*
X439832Y636000D01*
X428500Y612850D02*
Y624668D01*
X390000Y624836D02*
X401164Y636000D01*
X390000Y612850D02*
Y624836D01*
X755000Y622000D02*
X786000Y653000D01*
X823000D01*
X699000Y587250D02*
X710750Y575500D01*
X738000D01*
X689000Y634000D02*
X701000Y622000D01*
X740000D01*
X652000Y657250D02*
X654750Y660000D01*
X685750D01*
Y637250D02*
Y660000D01*
Y637250D02*
X689000Y634000D01*
X698500Y610000D02*
X699000Y609500D01*
Y587250D02*
Y609500D01*
X652000Y622750D02*
X664750Y610000D01*
X679500D01*
X621500Y623000D02*
X621750Y622750D01*
X652000D01*
X563500Y630000D02*
X570500Y623000D01*
X606500D01*
X526000Y657250D02*
X534750Y666000D01*
X559750D01*
X563500Y662250D01*
Y630000D02*
Y662250D01*
X573000Y589250D02*
Y606000D01*
X526000Y585250D02*
Y622750D01*
X542750Y606000D01*
X554000D01*
X511250Y622750D02*
X526000D01*
X498000Y636000D02*
X511250Y622750D01*
X493500Y636000D02*
X498000D01*
X454832D02*
X478500D01*
X416164D02*
X439832D01*
X377495D02*
X401164D01*
X934000Y649000D02*
X980000Y603000D01*
X930000Y653000D02*
X934000Y649000D01*
Y649750D01*
X945000Y660750D01*
X933000Y709000D02*
X979000Y755000D01*
X927000Y703000D02*
X933000Y709000D01*
Y707250D02*
Y709000D01*
Y707250D02*
X945000Y695250D01*
X903000Y653000D02*
X930000D01*
X903000Y703000D02*
X927000D01*
X1060000Y603000D02*
X1079000D01*
X1093000Y617000D01*
X1060000Y653000D02*
X1075000D01*
X1093000Y635000D01*
X1059000Y705000D02*
X1079000D01*
X1094000Y720000D01*
X1059000Y755000D02*
X1077000D01*
X1094000Y738000D01*
X1114000Y740000D02*
X1129000Y755000D01*
X1144000D01*
X1114000Y720000D02*
X1129000Y705000D01*
X1144000D01*
X1127000Y603000D02*
X1142000D01*
X1113000Y617000D02*
X1127000Y603000D01*
X1113000Y637000D02*
X1129000Y653000D01*
X1142000D01*
X1288997Y963003D02*
X1289000Y963000D01*
X1287600Y939000D02*
X1289000Y937600D01*
X1217550Y937400D02*
X1219150Y939000D01*
X1161000Y937400D02*
X1217550D01*
X1161000Y962800D02*
X1161203Y963003D01*
X1219148D01*
X1527000Y848000D02*
X1608000Y929000D01*
X1527000Y783400D02*
Y848000D01*
X1489000Y792000D02*
X1497600Y783400D01*
X437500Y1122750D02*
Y1123000D01*
X457000Y1103250D02*
X457225Y1103475D01*
X716375Y1065375D02*
X737000Y1086000D01*
X1050000Y1186000D02*
X1068000D01*
X1043000Y1179000D02*
X1050000Y1186000D01*
X1043000Y1118000D02*
Y1179000D01*
Y1118000D02*
X1109000Y1052000D01*
X1117000D01*
X1137000Y1032000D01*
Y1012000D02*
Y1032000D01*
Y1012000D02*
X1152050Y996950D01*
X1163000D01*
X1436800Y1019000D02*
X1458900Y996900D01*
X985000Y844000D02*
Y890000D01*
X994300Y899300D01*
X1107000D01*
X878400Y1052000D02*
X1109000D01*
X807400Y1123000D02*
X841000Y1089400D01*
X878400Y1052000D01*
X446250Y1103250D02*
X457000D01*
X440000Y1097000D02*
X446250Y1103250D01*
X680350Y1103475D02*
X764525D01*
X680350Y1065375D02*
X716375D01*
X680350Y1027275D02*
X718725D01*
X680350Y1014575D02*
X717425D01*
X1222950Y996950D02*
X1245000Y1019000D01*
X1436800D01*
X439999Y970998D02*
X440000Y970999D01*
Y1097000D01*
X1608000Y929000D02*
Y957385D01*
X1150000Y1063500D02*
X1170500Y1043000D01*
X1387899D01*
X1404899Y1026000D01*
X1439700D01*
X1452699Y1013000D01*
X1552385D01*
X1608000Y957385D01*
D42*
X624000Y915000D02*
X625000Y916000D01*
X1152000Y1036000D02*
X1385000D01*
X680350Y989175D02*
X698175D01*
X745000Y815000D02*
X801000Y871000D01*
X691000Y815000D02*
X745000D01*
X750000Y1093000D02*
X808000Y1035000D01*
Y861000D02*
Y1035000D01*
X801000Y871000D02*
Y982000D01*
X730325Y1052675D02*
X801000Y982000D01*
X717080Y760920D02*
X733844D01*
X702094Y775906D02*
X717080Y760920D01*
X690156Y775906D02*
X702094D01*
X680350Y1090775D02*
X682575Y1093000D01*
X676080Y760920D02*
X690156D01*
X675000Y762000D02*
X676080Y760920D01*
X755000Y808000D02*
X808000Y861000D01*
X691000Y808000D02*
X755000D01*
X572500Y463500D02*
X637500D01*
X852000D02*
X917000D01*
X1131500D02*
X1196500D01*
X533725Y1027275D02*
X545000Y1016000D01*
Y1001000D02*
Y1016000D01*
X469000Y990000D02*
X493575Y1014575D01*
X469000Y929000D02*
Y990000D01*
Y929000D02*
X483000Y915000D01*
X685000Y933000D02*
X729000D01*
X730000Y932000D01*
X483000Y915000D02*
X624000D01*
X706000Y918000D02*
X737000D01*
X682575Y1093000D02*
X750000D01*
X680350Y1052675D02*
X730325D01*
X510350Y1027275D02*
X533725D01*
X493575Y1014575D02*
X510350D01*
X601700Y941075D02*
X605000Y944375D01*
X601700Y941075D02*
Y954300D01*
X603400Y956000D01*
X723925Y942925D02*
X725000Y944000D01*
X603400Y956000D02*
X662000D01*
X665963Y952038D01*
Y945038D02*
Y952038D01*
Y945038D02*
X668075Y942925D01*
X723925D01*
X1153350Y1009650D02*
X1163000D01*
X1147000Y1016000D02*
X1153350Y1009650D01*
X1147000Y1016000D02*
Y1031000D01*
X1079200Y962800D02*
X1107000D01*
X1079000Y963000D02*
X1079200Y962800D01*
X1081250Y937400D02*
X1107000D01*
X1078850Y935000D02*
X1081250Y937400D01*
X1039000Y937500D02*
X1041500Y935000D01*
X1040000Y965500D02*
X1042500Y963000D01*
X1147000Y1031000D02*
X1152000Y1036000D01*
X1042500Y963000D02*
X1061000D01*
X1061300D01*
X1041500Y935000D02*
X1061150D01*
D43*
X673550Y951075D02*
X680350D01*
X658000Y998000D02*
X659000Y999000D01*
X756000Y786000D02*
X776000D01*
X844000Y817000D02*
Y874500D01*
X874000Y817000D02*
Y874500D01*
X871000Y814000D02*
X872700Y815700D01*
X647500Y755000D02*
X652000D01*
X712875Y1001875D02*
X715000Y1004000D01*
X680350Y1001875D02*
X712875D01*
X904700Y957500D02*
X910000D01*
X1225000Y990000D02*
X1234000Y999000D01*
X325500Y775500D02*
X327500Y777500D01*
X325500Y840500D02*
X327500Y838500D01*
Y777500D02*
Y838500D01*
X1464000Y761250D02*
Y793000D01*
X1463000Y760250D02*
X1464000Y761250D01*
X640000Y984625D02*
X673550Y951075D01*
X640000Y984625D02*
Y1033000D01*
X638000Y1073000D02*
X652000Y1059000D01*
X560000Y1073000D02*
X638000D01*
X526975Y1039975D02*
X560000Y1073000D01*
X1082500Y874000D02*
X1082600Y873900D01*
X1107000D01*
X893000Y1139000D02*
X909000Y1123000D01*
X748000Y1124000D02*
X763000Y1139000D01*
X615000Y1124000D02*
X748000D01*
X581775Y1090775D02*
X615000Y1124000D01*
X763000Y1139000D02*
X893000D01*
X847300Y938000D02*
X863000D01*
X1477000Y773250D02*
X1490000Y760250D01*
X1477000Y773250D02*
Y792000D01*
X904700Y901800D02*
X905000Y901500D01*
X904700Y901800D02*
Y931500D01*
X831000Y914500D02*
Y926000D01*
X836500Y931500D01*
X847300D01*
X831000Y914500D02*
X844000Y901500D01*
X874000D02*
Y927000D01*
X863000Y938000D02*
X874000Y927000D01*
X660080Y771080D02*
X690156D01*
X652000Y755000D02*
X663000Y766000D01*
X690156D01*
X733844Y771080D02*
X745920D01*
X755000Y762000D01*
X733844Y775906D02*
X745906D01*
X756000Y786000D01*
X755000Y762000D02*
X772500D01*
X776500D01*
X457000Y1068750D02*
X470750D01*
X492775Y1090775D01*
X864000Y1008000D02*
X901500Y970500D01*
X904700D01*
X861000Y1008000D02*
X864000D01*
X630000Y778000D02*
X639000Y769000D01*
X658000D01*
X660080Y771080D01*
X1107000Y886600D02*
X1161000D01*
X1298600D01*
X1319000Y907000D01*
X325500Y899500D02*
Y964500D01*
X550900Y941075D02*
Y950900D01*
X620000Y1020000D01*
X624000D01*
X510350Y1090775D02*
X581775D01*
X492775D02*
X510350D01*
X585350Y1041175D02*
X594525D01*
X917000Y951000D02*
X961500D01*
X871400Y817000D02*
X874000D01*
X881000D01*
X973000Y909000D01*
X988036D01*
X1012000Y932964D01*
X846000Y817000D02*
X857000Y806000D01*
X892000D01*
X993000Y907000D01*
X1000000D01*
X1024000Y931000D01*
Y980536D01*
X1033464Y990000D01*
X1086000D01*
X1105000Y979000D02*
X1198036D01*
X1012000Y980000D02*
X1029000Y997000D01*
X1087000D01*
X1105000Y979000D01*
X1103000Y973000D02*
X1201000D01*
X1213000Y985000D01*
X1240000D01*
X1198036Y979000D02*
X1209035Y990000D01*
X1225000D01*
X1240000Y985000D02*
X1246000Y991000D01*
X1333000D01*
X1342000Y1000000D01*
X1234000Y999000D02*
X1317000D01*
X1319000Y1001000D01*
X652000Y1004000D02*
Y1059000D01*
Y1004000D02*
X658000Y998000D01*
X659000D02*
Y999000D01*
X1086000Y990000D02*
X1092000Y984000D01*
X1103000Y973000D01*
X1012000Y932964D02*
Y979000D01*
Y980000D01*
D44*
X373380Y938850D02*
X414150D01*
X591000Y709500D02*
X713500D01*
X1327000Y798500D02*
Y858000D01*
X750000Y920000D02*
X759000D01*
X635000Y817000D02*
X676094Y775906D01*
X694000Y864000D02*
X750000Y920000D01*
X589500Y670750D02*
X594250Y666000D01*
X589500Y670750D02*
Y708000D01*
X1491000Y840000D02*
Y883000D01*
X1438000Y936000D02*
Y977000D01*
X1457900Y996900D01*
X1458900D01*
X460000Y864000D02*
X694000D01*
X410550Y913450D02*
X460000Y864000D01*
X373380Y913450D02*
X410550D01*
X492000Y879000D02*
X629000D01*
X381350Y989650D02*
X492000Y879000D01*
X373380Y989650D02*
X381350D01*
X629000Y879000D02*
X639800Y889800D01*
X636000Y874000D02*
X652500Y890500D01*
X479000Y874000D02*
X636000D01*
X414150Y938850D02*
X479000Y874000D01*
X1396750Y792250D02*
X1451950D01*
X1390500Y798500D02*
X1396750Y792250D01*
X1350000Y798500D02*
X1390500D01*
X1597750Y817750D02*
X1599000Y819000D01*
X1536000Y817750D02*
X1597750D01*
X1107000Y899300D02*
X1117300D01*
X1120000Y924700D02*
X1161000D01*
X1117300Y899300D02*
X1120000Y902000D01*
Y924700D01*
X1107000D02*
X1120000D01*
X713500Y666750D02*
Y699000D01*
Y666750D02*
X720250Y660000D01*
X1438000Y936000D02*
X1440000Y934000D01*
X1491000Y883000D01*
X955000Y927000D02*
X961500D01*
X937500Y944500D02*
X955000Y927000D01*
X904700Y944500D02*
X937500D01*
X886500D02*
X904700D01*
X866000Y965000D02*
X886500Y944500D01*
X866000Y965000D02*
Y984000D01*
X841000Y1009000D02*
X866000Y984000D01*
X841000Y1009000D02*
Y1089400D01*
X676094Y775906D02*
X690156D01*
X345000Y884187D02*
X366537Y862650D01*
X345000Y1028000D02*
X357450Y1040450D01*
X373380D01*
X345000Y884187D02*
Y1028000D01*
X713500Y699000D02*
Y709500D01*
X589500Y708000D02*
X591000Y709500D01*
X545000Y817000D02*
X635000D01*
X652500Y890500D02*
Y941075D01*
X639800Y889800D02*
Y941075D01*
X1321000Y934000D02*
X1440000D01*
X1161000Y924700D02*
X1166300D01*
X1189000Y902000D01*
X1289000D01*
X1321000Y934000D01*
X366537Y862650D02*
X373380D01*
D45*
X866000Y1017850D02*
X893539D01*
X1103650Y1026350D02*
X1107000Y1023000D01*
X901739Y1009650D02*
X1107000D01*
X893539Y1017850D02*
X901739Y1009650D01*
X521075Y951075D02*
X534000Y964000D01*
Y1014000D01*
X1099050Y1039000D02*
X1102000Y1036050D01*
X866000Y1039000D02*
X1099050D01*
X871000Y1026350D02*
X1103650D01*
X510350Y951075D02*
X521075D01*
D46*
X1324000Y856500D02*
X1327000Y859500D01*
X1275000Y856500D02*
X1324000D01*
X495025Y1103475D02*
X510350D01*
X477000Y1121500D02*
X495025Y1103475D01*
X476500Y1121000D02*
X477000Y1121500D01*
X457000Y1121000D02*
X476500D01*
D47*
X1458900Y951100D02*
X1475800Y968000D01*
X1510000D01*
D48*
X904700Y951000D02*
X917000D01*
D49*
X261000Y442000D02*
X261000Y1193000D01*
X1661000Y1193000D01*
X1661000Y442000D02*
X1661000Y1193000D01*
X261000Y442000D02*
X1661000Y442000D01*
D50*
X1016000Y1071000D02*
D03*
X990600D02*
D03*
X1527000Y758000D02*
D03*
X1289000Y963000D02*
D03*
X807400Y1123000D02*
D03*
X832800D02*
D03*
X858200D02*
D03*
X883600D02*
D03*
X909000D02*
D03*
X846000Y817000D02*
D03*
D51*
X1545000Y1045000D02*
D03*
Y1133000D02*
D03*
D52*
X1475000Y1064000D02*
D03*
Y1089000D02*
D03*
D53*
Y1114000D02*
D03*
D54*
X1599050Y867200D02*
D03*
Y780800D02*
D03*
X1637050Y867200D02*
D03*
Y780800D02*
D03*
D55*
X1510000Y968000D02*
D03*
D56*
X1570000D02*
D03*
D57*
X1541000Y919000D02*
D03*
D58*
X1196500Y508500D02*
D03*
Y463500D02*
D03*
X1131500Y508500D02*
D03*
Y463500D02*
D03*
X917000Y508500D02*
D03*
Y463500D02*
D03*
X852000Y508500D02*
D03*
Y463500D02*
D03*
X637500Y508500D02*
D03*
Y463500D02*
D03*
X572500Y508500D02*
D03*
Y463500D02*
D03*
X280500Y840500D02*
D03*
X325500D02*
D03*
X280500Y775500D02*
D03*
X325500D02*
D03*
X280500Y964500D02*
D03*
X325500D02*
D03*
X280500Y899500D02*
D03*
X325500D02*
D03*
D59*
X576175Y1059525D02*
D03*
X594525D02*
D03*
X567000Y1050350D02*
D03*
X585350D02*
D03*
X603700D02*
D03*
X576175Y1041175D02*
D03*
X594525D02*
D03*
X567000Y1032000D02*
D03*
X585350D02*
D03*
X603700D02*
D03*
X576175Y1022825D02*
D03*
X594525D02*
D03*
X691000Y815000D02*
D03*
X1491000Y840000D02*
D03*
X845000Y970000D02*
D03*
X685000Y756000D02*
D03*
X904700Y964000D02*
D03*
X675000Y762000D02*
D03*
X691000Y808000D02*
D03*
D60*
X1378000Y873000D02*
D03*
D61*
X1526000Y512000D02*
D03*
Y626000D02*
D03*
D62*
X1451000Y544000D02*
D03*
Y569000D02*
D03*
Y594000D02*
D03*
X1596000Y544000D02*
D03*
D63*
Y594000D02*
D03*
D64*
X1059000Y1165000D02*
D03*
X1089000D02*
D03*
D65*
X1119000D02*
D03*
D66*
X1026500D02*
D03*
X1151500D02*
D03*
D67*
X1241000Y1089000D02*
D03*
Y1159000D02*
D03*
X1391000Y1090000D02*
D03*
Y1160000D02*
D03*
D68*
X1640000Y1120000D02*
D03*
Y1040000D02*
D03*
Y960000D02*
D03*
Y880000D02*
D03*
Y800000D02*
D03*
Y720000D02*
D03*
Y640000D02*
D03*
Y560000D02*
D03*
X1600000Y1120000D02*
D03*
X1620000Y1080000D02*
D03*
X1600000Y1040000D02*
D03*
X1620000Y1000000D02*
D03*
Y920000D02*
D03*
X1600000Y880000D02*
D03*
X1620000Y760000D02*
D03*
X1600000Y720000D02*
D03*
X1620000Y680000D02*
D03*
X1600000Y640000D02*
D03*
X1620000Y600000D02*
D03*
X1600000Y560000D02*
D03*
X1620000Y520000D02*
D03*
X1580000Y1160000D02*
D03*
Y1080000D02*
D03*
Y1000000D02*
D03*
Y920000D02*
D03*
Y760000D02*
D03*
X1560000Y720000D02*
D03*
X1580000Y680000D02*
D03*
X1560000Y640000D02*
D03*
X1580000Y600000D02*
D03*
X1560000Y560000D02*
D03*
X1580000Y520000D02*
D03*
X1560000Y480000D02*
D03*
X1540000Y1160000D02*
D03*
X1520000Y1120000D02*
D03*
X1540000Y1080000D02*
D03*
Y1000000D02*
D03*
X1520000Y880000D02*
D03*
Y720000D02*
D03*
X1540000Y680000D02*
D03*
Y600000D02*
D03*
X1520000Y560000D02*
D03*
Y480000D02*
D03*
X1500000Y1160000D02*
D03*
Y1080000D02*
D03*
X1480000Y1040000D02*
D03*
X1500000Y1000000D02*
D03*
Y920000D02*
D03*
X1480000Y880000D02*
D03*
X1500000Y680000D02*
D03*
X1480000Y640000D02*
D03*
Y560000D02*
D03*
Y480000D02*
D03*
X1460000Y1160000D02*
D03*
X1440000Y1120000D02*
D03*
X1460000Y1080000D02*
D03*
X1440000Y1040000D02*
D03*
Y880000D02*
D03*
Y720000D02*
D03*
X1460000Y680000D02*
D03*
X1440000Y640000D02*
D03*
X1460000Y520000D02*
D03*
X1440000Y480000D02*
D03*
X1400000Y1120000D02*
D03*
X1420000Y920000D02*
D03*
X1400000Y880000D02*
D03*
X1420000Y840000D02*
D03*
Y760000D02*
D03*
X1400000Y720000D02*
D03*
X1420000Y520000D02*
D03*
X1360000Y1120000D02*
D03*
X1380000Y1080000D02*
D03*
Y760000D02*
D03*
X1360000Y720000D02*
D03*
X1380000Y680000D02*
D03*
X1360000Y640000D02*
D03*
X1380000Y520000D02*
D03*
X1340000Y920000D02*
D03*
X1320000Y880000D02*
D03*
X1340000Y840000D02*
D03*
Y760000D02*
D03*
X1320000Y720000D02*
D03*
X1340000Y680000D02*
D03*
X1320000Y640000D02*
D03*
Y560000D02*
D03*
X1340000Y520000D02*
D03*
X1320000Y480000D02*
D03*
X1300000Y1080000D02*
D03*
Y840000D02*
D03*
X1280000Y800000D02*
D03*
X1300000Y760000D02*
D03*
X1280000Y720000D02*
D03*
X1300000Y680000D02*
D03*
X1280000Y640000D02*
D03*
X1300000Y600000D02*
D03*
Y520000D02*
D03*
X1280000Y480000D02*
D03*
X1240000Y1120000D02*
D03*
X1260000Y840000D02*
D03*
X1240000Y800000D02*
D03*
X1260000Y760000D02*
D03*
X1240000Y720000D02*
D03*
X1260000Y680000D02*
D03*
Y600000D02*
D03*
X1240000Y480000D02*
D03*
X1200000Y1120000D02*
D03*
X1220000Y920000D02*
D03*
Y840000D02*
D03*
X1200000Y800000D02*
D03*
Y720000D02*
D03*
X1220000Y680000D02*
D03*
X1200000Y640000D02*
D03*
Y480000D02*
D03*
X1180000Y1160000D02*
D03*
X1160000Y1120000D02*
D03*
X1180000Y1080000D02*
D03*
Y840000D02*
D03*
Y680000D02*
D03*
Y600000D02*
D03*
X1160000Y480000D02*
D03*
X1120000Y1120000D02*
D03*
X1140000Y1080000D02*
D03*
Y840000D02*
D03*
Y680000D02*
D03*
X1120000Y480000D02*
D03*
X1080000Y1120000D02*
D03*
X1100000Y1080000D02*
D03*
X1080000Y720000D02*
D03*
X1100000Y680000D02*
D03*
Y600000D02*
D03*
Y520000D02*
D03*
X1080000Y480000D02*
D03*
X1060000Y1080000D02*
D03*
Y920000D02*
D03*
Y840000D02*
D03*
X1040000Y800000D02*
D03*
X1060000Y680000D02*
D03*
X1040000Y560000D02*
D03*
X1060000Y520000D02*
D03*
X1040000Y480000D02*
D03*
X1000000Y1120000D02*
D03*
X1020000Y1000000D02*
D03*
X1000000Y720000D02*
D03*
X1020000Y680000D02*
D03*
Y600000D02*
D03*
X1000000Y560000D02*
D03*
X1020000Y520000D02*
D03*
X1000000Y480000D02*
D03*
X980000Y1160000D02*
D03*
X960000Y1120000D02*
D03*
X980000Y680000D02*
D03*
X960000Y560000D02*
D03*
X980000Y520000D02*
D03*
X960000Y480000D02*
D03*
X940000Y1160000D02*
D03*
Y1080000D02*
D03*
Y1000000D02*
D03*
Y920000D02*
D03*
Y680000D02*
D03*
Y600000D02*
D03*
X920000Y560000D02*
D03*
X940000Y520000D02*
D03*
X900000Y1160000D02*
D03*
Y1080000D02*
D03*
Y1000000D02*
D03*
X880000Y720000D02*
D03*
Y640000D02*
D03*
X900000Y600000D02*
D03*
X880000Y560000D02*
D03*
X900000Y520000D02*
D03*
X880000Y480000D02*
D03*
X860000Y1160000D02*
D03*
Y920000D02*
D03*
X840000Y720000D02*
D03*
X860000Y600000D02*
D03*
X820000Y1160000D02*
D03*
X800000Y720000D02*
D03*
X820000Y680000D02*
D03*
X800000Y640000D02*
D03*
X820000Y600000D02*
D03*
X800000Y560000D02*
D03*
X820000Y520000D02*
D03*
X800000Y480000D02*
D03*
X780000Y1160000D02*
D03*
Y680000D02*
D03*
Y520000D02*
D03*
X760000Y480000D02*
D03*
X740000Y1160000D02*
D03*
Y840000D02*
D03*
X720000Y800000D02*
D03*
Y720000D02*
D03*
X740000Y680000D02*
D03*
X720000Y640000D02*
D03*
X740000Y600000D02*
D03*
X720000Y560000D02*
D03*
X740000Y520000D02*
D03*
X720000Y480000D02*
D03*
X700000Y1160000D02*
D03*
X680000Y880000D02*
D03*
Y800000D02*
D03*
Y720000D02*
D03*
X700000Y680000D02*
D03*
X680000Y560000D02*
D03*
X700000Y520000D02*
D03*
X680000Y480000D02*
D03*
X640000Y800000D02*
D03*
Y720000D02*
D03*
X660000Y680000D02*
D03*
X640000Y640000D02*
D03*
X660000Y520000D02*
D03*
X640000Y480000D02*
D03*
X600000Y1120000D02*
D03*
X620000Y680000D02*
D03*
Y520000D02*
D03*
X600000Y480000D02*
D03*
X560000Y1120000D02*
D03*
Y800000D02*
D03*
X580000Y760000D02*
D03*
X560000Y720000D02*
D03*
X580000Y680000D02*
D03*
X560000Y480000D02*
D03*
X520000Y800000D02*
D03*
Y720000D02*
D03*
X540000Y680000D02*
D03*
X520000Y640000D02*
D03*
X540000Y520000D02*
D03*
X520000Y480000D02*
D03*
X480000Y1040000D02*
D03*
Y960000D02*
D03*
Y800000D02*
D03*
X500000Y760000D02*
D03*
X480000Y720000D02*
D03*
X500000Y680000D02*
D03*
Y600000D02*
D03*
X480000Y560000D02*
D03*
X500000Y520000D02*
D03*
X480000Y480000D02*
D03*
X460000Y1160000D02*
D03*
Y1000000D02*
D03*
X440000Y960000D02*
D03*
X460000Y760000D02*
D03*
X440000Y720000D02*
D03*
X460000Y680000D02*
D03*
X440000Y560000D02*
D03*
X460000Y520000D02*
D03*
X440000Y480000D02*
D03*
X420000Y1160000D02*
D03*
Y1080000D02*
D03*
Y1000000D02*
D03*
Y760000D02*
D03*
Y680000D02*
D03*
X400000Y560000D02*
D03*
X420000Y520000D02*
D03*
X400000Y480000D02*
D03*
X380000Y1160000D02*
D03*
X360000Y1120000D02*
D03*
X380000Y680000D02*
D03*
X360000Y560000D02*
D03*
X380000Y520000D02*
D03*
X360000Y480000D02*
D03*
X340000Y1160000D02*
D03*
X320000Y1120000D02*
D03*
X340000Y1080000D02*
D03*
X320000Y1040000D02*
D03*
Y880000D02*
D03*
X340000Y840000D02*
D03*
Y760000D02*
D03*
X320000Y720000D02*
D03*
X340000Y680000D02*
D03*
Y600000D02*
D03*
X320000Y560000D02*
D03*
X340000Y520000D02*
D03*
X280000Y1120000D02*
D03*
X300000Y1080000D02*
D03*
X280000Y1040000D02*
D03*
X300000Y1000000D02*
D03*
Y920000D02*
D03*
X280000Y880000D02*
D03*
X300000Y840000D02*
D03*
X280000Y800000D02*
D03*
X300000Y760000D02*
D03*
X280000Y720000D02*
D03*
Y560000D02*
D03*
X300000Y520000D02*
D03*
D69*
X645000Y826000D02*
D03*
X627000Y600850D02*
D03*
X910000Y957500D02*
D03*
X840998Y963998D02*
D03*
X1092000Y984000D02*
D03*
X1161000Y1035000D02*
D03*
X1012000Y979000D02*
D03*
D70*
X759000Y920000D02*
D03*
D71*
X698175Y989175D02*
D03*
X640000Y1033000D02*
D03*
X819000Y920000D02*
D03*
X737000Y1086000D02*
D03*
X680350Y1078075D02*
D03*
X1461000Y811000D02*
D03*
X1470500D02*
D03*
X1480000D02*
D03*
Y824000D02*
D03*
X1470500D02*
D03*
X1461000D02*
D03*
X1489000Y792000D02*
D03*
X1477000D02*
D03*
X1464000Y793000D02*
D03*
X1451950Y792250D02*
D03*
X1536000Y817750D02*
D03*
X1599000Y819000D02*
D03*
X510350Y1103475D02*
D03*
Y1090775D02*
D03*
Y1014575D02*
D03*
Y1001875D02*
D03*
Y963775D02*
D03*
X680350Y976475D02*
D03*
X374000Y936000D02*
D03*
X375000Y890000D02*
D03*
X680350Y1052675D02*
D03*
Y1027275D02*
D03*
X534000Y1014000D02*
D03*
X1319000Y907000D02*
D03*
X592000Y709000D02*
D03*
X545000Y1001000D02*
D03*
X510350Y976475D02*
D03*
X685000Y933000D02*
D03*
X730000Y932000D02*
D03*
X625000Y915000D02*
D03*
X706000Y918000D02*
D03*
X737000D02*
D03*
X725000Y944000D02*
D03*
X917000Y951000D02*
D03*
X1385000Y1036000D02*
D03*
X1061000Y963000D02*
D03*
X1062000Y936000D02*
D03*
X1205000Y1173000D02*
D03*
X1207000Y1076000D02*
D03*
X1277000Y1148000D02*
D03*
X1319000Y1001000D02*
D03*
X1342000Y1000000D02*
D03*
X504000Y990000D02*
D03*
X527000Y1039000D02*
D03*
X659000Y998000D02*
D03*
X439999Y970998D02*
D03*
D72*
X678000Y951000D02*
D03*
X1354000Y1077000D02*
D03*
X1428000Y1151000D02*
D03*
X1055000Y629000D02*
D03*
X1062000Y730000D02*
D03*
X715000Y1004000D02*
D03*
X1328000Y858000D02*
D03*
X1316000D02*
D03*
X1339000Y865000D02*
D03*
Y858000D02*
D03*
X1316000Y865000D02*
D03*
X985000Y844000D02*
D03*
X866000Y1039000D02*
D03*
X871000Y1026350D02*
D03*
X866000Y1018000D02*
D03*
X861000Y1008000D02*
D03*
X545000Y817000D02*
D03*
X624000Y1020000D02*
D03*
D73*
X373380Y1040450D02*
D03*
D74*
Y1015050D02*
D03*
Y964250D02*
D03*
Y989650D02*
D03*
Y938850D02*
D03*
Y913450D02*
D03*
Y888050D02*
D03*
Y862650D02*
D03*
Y837250D02*
D03*
Y811850D02*
D03*
Y786450D02*
D03*
Y761050D02*
D03*
Y735650D02*
D03*
Y710250D02*
D03*
D75*
X295000Y1159000D02*
D03*
X1624000Y1158000D02*
D03*
Y475000D02*
D03*
X295000D02*
D03*
M02*
