M48
;Layer_Color=9474304
;FILE_FORMAT=2:5
INCH,LZ
;TYPE=PLATED
T1F00S00C0.00787
T2F00S00C0.01181
T3F00S00C0.01575
T5F00S00C0.02362
T8F00S00C0.03543
T9F00S00C0.03937
T11F00S00C0.04134
T12F00S00C0.04331
T15F00S00C0.12205
;TYPE=NON_PLATED
T16F00S00C0.06693
%
T01
X024685Y0236555
X0265748Y03
X0269685Y0297638
X0272047Y031811
Y0320866
X0253937Y0325197
X0266929Y037441
X0234065Y0402687
Y0409911
X0237677Y0406299
Y0413524
X0234065Y0417136
X0226841
X0230453Y0413524
X0223228
Y0406299
X0226841Y0409911
X0230453Y0406299
X0226841Y0402687
X0332677Y038189
X0331102Y0379527
X0356181Y0379528
X0358268Y0376969
X0398425Y0385433
X0429921Y0387402
X0457087Y040748
X0533071Y0424016
X0562205Y045315
X0587008Y0330709
T02
X0415354Y0247638
X041811Y0287402
X0214567Y0321654
X0245669Y0401575
X0281496Y0395276
X0338976Y039685
X0340945Y0400787
X0342913Y0404075
X0340945Y0409055
X0387795Y0332283
X051811Y0337795
Y0340551
X0522835Y0337795
X0527165
Y0340551
T03
X0571634Y031191
X0576378Y0312205
X0581496Y0311811
X0586221
X0233071Y0279134
X0147638Y0350394
X0147244Y0368504
X0173228Y0382283
X0200925Y0384439
Y0379439
X0198425Y0389764
X0200925Y0394439
Y0399439
X0210236Y0399213
X0214567Y0394094
X020748Y0409055
X0200925Y0429439
Y0434439
X0267854Y0424439
Y0414439
Y0404439
X0251969Y0406693
X0259449Y0392913
X0267854Y0384439
X0274872Y0389439
X0269685Y0367323
X0277953Y0361417
X0290158
X0287402Y0366929
X0285433Y0371654
X0298819Y0362205
X0246063Y0360236
X0290158Y0427559
X0322441Y0362205
X0361024Y037441
X0417717Y0379134
X041811Y0368504
X0475197Y0423622
X0474409Y0461811
X0502756Y0451968
X0519291Y0394094
X0528346Y0393701
X0545276Y0407874
X0519291Y0357087
X0575197Y032441
X0578937
X0582677
Y0319291
X0578937
X0575197
X0604724Y0321949
X0629528Y0322441
T05
X0637795Y0204724
X0629921Y0220472
X0645669
X0637795Y023622
X0629921Y0251969
X0645669
X0637795Y0267717
X0629921Y0283465
X0645669
X0637795Y0299213
X0622047
X0614173Y0283465
X0598425
X0606299Y0267717
X0622047
X0614173Y0251969
X0622047Y023622
X0606299
X0598425Y0220472
X0614173
X0622047Y0204724
X0614173Y0188976
X0598425
X0582677
X0566929
X0574803Y0204724
X0559055
X0543307
X0527559
X0511811
X0503937Y0188976
X0519685
Y0220472
X0511811Y023622
X0496063
X0503937Y0251969
X0519685
X0535433
X0543307Y0267717
X0527559
X0511811
X0496063
X0480315
X0472441Y0283465
X0488189
X0503937
X0519685
X0535433
X0551181
X0566929
X0574803Y0267717
X0590551
X0582677Y0251969
X0566929
X0582677Y0220472
X0559055Y0299213
X0543307
X0527559
X0511811
X0496063
X0472441Y0251969
Y0188976
X0488189
X0456693
X0440945
X0425197
X0409449
X0393701
X0377953
X0385827Y0204724
X0401575
X0417323
X0433071
Y023622
X0464567
Y0267717
X0448819
X0433071
X0417323
X0401575
X0385827
X0370079
Y023622
X0354331
X0338583
X0322835
X0314961Y0251969
X0322835Y0267717
X0314961Y0283465
X0330709
X0346457
Y0251969
Y0220472
X0362205
X0377953
X0393701
X0409449
X0401575Y023622
X0393701Y0283465
X0425197
X0370079Y0204724
X0354331
X0346457Y0188976
X0314961
X0322835Y0204724
X0314961Y0220472
X0307087Y0204724
X0291338
X027559
X0259842
X0244094
X023622Y0188976
X0251969
X0267717
X0283465
X0299213
X0283465Y0220472
X0267717
X0291338Y023622
X0283465Y0251969
X0291338Y0267717
X0307087
X027559
X0259842
X0244094
X0228346
X0212598
X019685
X0181102
X0165354
X0173228Y0283465
X0188976
X0204724
X0220472
X0228346Y0299213
X019685
X0181102
X0165354
X015748Y0220472
X0173228
X0188976
X019685Y023622
X0204724Y0251969
X0251969
Y0283465
X0267717
X0283465
X0212598Y0204724
X019685
X0181102
X0165354
X015748Y0188976
X0173228
X0188976
X0204724
X0220472
X0141732
X0149606Y0204724
X0133858
X011811
X0110236Y0220472
X0125984
X0141732
X0133858Y023622
Y0267717
X0149606
X0125984Y0283465
X0110236
X011811Y0299213
X0133858
Y0330709
X011811
X0110236Y0346457
X0125984
X011811Y0362205
Y0393701
X0110236Y0409449
X0125984
X0133858Y0425197
X011811
X0110236Y0440945
X0125984
X0141732
X0149606Y0456693
X0133858
X0110236Y0314961
X0188976
X0204724
X0220472
X0251969
X0267717
X0283465
X0291338Y0330709
X0267717Y0346457
X0188976Y0377953
X0173228
X0181102Y0393701
X0165354
Y0425197
Y0456693
X0181102
X0220472Y0440945
X023622
X027559Y0456693
X0291338
X0307087
X0188976Y0409449
X0354331Y0425197
X0370079
X0377953Y0440945
X0393701
X0385827Y0456693
X0370079
X0354331
X0338583
X0322835
X0354331Y0393701
X0370079
X0401575
X0417323Y0425197
X0433071
X0448819
X0464567
X0456693Y0440945
X0440945
X0425197
X0464567Y0456693
Y0330709
X0448819
X0417323
X0409449Y0314961
X0417323Y0362205
X0370079
X0338583
X0480315
Y0330709
X0496063
X0511811
X0527559
X0519685Y0346457
X0527559Y0362205
X0559055
X0551181Y0346457
X0566929
X0582677
X0598425
X0590551Y0362205
X0622047
Y0393701
X0606299
X0590551
X0582677Y0409449
X0566929
X0574803Y0425197
X0590551
X0606299
X0622047
Y0456693
X0606299
X0590551
X0574803
X0566929Y0440945
X0551181
X0535433
X0543307Y0425197
X0511811
X0488189Y0440945
X0472441
X0598425
X0559055Y0330709
X0503937Y0314961
X0488189
X0472441
X0645669
Y0346457
X0629921
X0637795Y0362205
X0645669Y0377953
X0637795Y0393701
X0629921Y0409449
X0645669
X0637795Y0425197
X0629921Y0440945
X0645669
T08
X0601181Y0298425
Y0308425
X0343071Y0321654
X0333071
X0337874Y0442126
X0327874
X0317874
X0347874
X0357874
X0367874
X039Y0421654
X04
X041
X0416929Y0458661
X042874
X0440551
X050748Y0379134
Y0369134
T09
X0147Y0279626
Y0289626
Y0299626
Y0309626
Y0319626
Y0329626
Y0339626
Y0349626
Y0359626
Y0369626
Y0379626
Y0389626
Y0399626
Y0409626
X0580709Y0418898
Y042874
Y0438583
T11
X0471063Y018248
Y0200197
X0445472
Y018248
X0361024
Y0200197
X0335433
Y018248
X0250984
Y0200197
X0225394
Y018248
X012815Y0305315
X0110433
Y0330906
X012815
X012815Y0354134
X0110433
Y0379724
X012815
T12
X0628346Y0214173
Y0233858
X057126
Y0224016
Y0214173
T15
X063937Y0187008
X0116142
Y0456299
X063937Y0455905
T16
X0488583Y042874
Y0456299
X0547638Y0456693
Y0429134
M30
